<?xml version="1.0" encoding="utf-8"?>
<!-- Generator: Adobe Illustrator 16.0.3, SVG Export Plug-In . SVG Version: 6.00 Build 0)  -->
<!DOCTYPE svg PUBLIC "-//W3C//DTD SVG 1.1//EN" "http://www.w3.org/Graphics/SVG/1.1/DTD/svg11.dtd">
<svg version="1.1" id="Capa_1" xmlns="http://www.w3.org/2000/svg" xmlns:xlink="http://www.w3.org/1999/xlink" x="0px" y="0px"
	 width="612px" height="792px" viewBox="0 0 612 792" enable-background="new 0 0 612 792" xml:space="preserve">
<g>
	<g>
		<path fill-rule="evenodd" clip-rule="evenodd" fill="#FFFFFF" d="M145.037,653.525c-7.93-4.484-10.374-11.063-10.347-20.279
			c0.307-108.678,0.201-217.359,0.201-326.04c0-4.722,0-9.444,0-14.167c-0.877-0.364-1.749-0.73-2.622-1.095
			c-3.432,7.209-7.056,14.333-10.253,21.644c-10.076,23.019-5.753,23.174-28.664,9.734c-25.932-15.212-51.911-30.342-77.87-45.507
			c0-1.727,0-3.456,0-5.183c1.914-3.686,4.069-7.272,5.71-11.078c13.755-31.899,28.678-63.37,40.779-95.889
			c14.446-38.818,40.621-62.447,80.936-70.82c1.261-0.262,2.521-0.534,3.758-0.89c27.098-7.802,54.193-15.618,81.287-23.43
			c0.866,0,1.727,0,2.592,0c6.996,22.657,18.265,41.387,42.825,48.843c23.35,7.089,46.538,7.411,69.474-0.984
			c17.862-6.537,30.757-18.321,36.154-37.261c1.043-3.656,2.927-7.071,4.422-10.597c0.865,0,1.727,0,2.592,0
			c2.32,0.956,4.58,2.099,6.969,2.839c38.05,11.785,76.483,22.492,113.943,35.919c10.627,3.809,21.199,13.92,26.959,23.925
			c13.438,23.351,24.263,48.246,35.535,72.793c10.111,22.016,19.409,44.406,29.065,66.63c0,1.727,0,3.456,0,5.183
			c-27.081,15.814-54.191,31.573-81.226,47.466c-16.02,9.42-15.929,9.5-23.231-6.982c-3.897-8.796-7.938-17.532-14.952-25.771
			c0,4.461,0,8.924,0,13.384c0,109.112-0.105,218.225,0.199,327.334c0.029,9.219-2.415,15.795-10.347,20.279
			C360.965,653.525,252.999,653.525,145.037,653.525z M136.942,261.412c1.795,0.761,3.589,1.522,5.382,2.285
			c0,4.688,0,9.375,0,14.061c0,116.994,0.234,233.988-0.315,350.98c-0.064,13.531,4.186,16.533,16.91,16.473
			c97.997-0.471,195.995-0.238,293.996-0.273c17.59-0.004,17.904-0.385,17.908-18.32c0.014-115.699-0.015-231.397,0.076-347.097
			c0.006-5.643,1.028-11.286,1.577-16.928c1.534-0.391,3.064-0.781,4.598-1.172c6.923,14.66,13.843,29.32,21.085,44.659
			c25.752-15.324,50.731-29.843,75.186-45.198c2.9-1.82,5.269-9.21,3.933-12.321c-15.307-35.647-31.271-71.013-47.304-106.344
			c-6.365-14.033-16.91-23.789-31.867-28.334c-33.386-10.147-66.819-20.141-100.147-30.476c-7.181-2.228-9.944,0.674-12.315,6.95
			c-6.834,18.077-20.436,29.525-37.964,36.645c-50.255,20.414-99.687,2.155-124.696-48.094
			c-36.327,11.553-73.113,23.218-109.874,34.963c-13.523,4.321-22.967,13.396-28.839,26.104
			c-15.353,33.217-30.577,66.495-45.727,99.807c-2.429,5.339-4.2,10.977-6.361,16.705c28.351,16.784,55.663,32.959,83.617,49.511
			C123.193,290.406,130.067,275.908,136.942,261.412z M108.334,320.17c0.893-1.57,1.789-3.141,2.683-4.71
			c-26.956-16.42-53.912-32.839-80.868-49.257c-1.123,0.679-2.245,1.358-3.366,2.038c1.64,2.845,2.57,6.87,5.036,8.35
			c21.788,13.106,43.825,25.799,65.854,38.51C101.069,317.061,104.774,318.494,108.334,320.17z M577.839,270.334
			c-24.985,14.939-49.969,29.878-74.955,44.819C515.565,317.997,575.983,281.658,577.839,270.334z"/>
		<path fill-rule="evenodd" clip-rule="evenodd" fill="#FFFFFF" d="M367.872,70.526c3.878,6.122,1.221,8.677-5.045,8.689
			c-37.231,0.07-74.458,0.07-111.691,0c-6.264-0.013-8.921-2.567-5.045-8.689C286.684,70.526,327.281,70.526,367.872,70.526z"/>
		<path fill-rule="evenodd" clip-rule="evenodd" fill="#FFFFFF" d="M287.543,95.55c11.124-9.244,28.751-9.04,37.918,0
			C312.577,95.55,301.632,95.55,287.543,95.55z"/>
		<path fill-rule="evenodd" clip-rule="evenodd" fill="#FFFFFF" d="M152.082,628.357c103.756,0,206.05,0,309.813,0
			C453.192,637.949,160.747,637.943,152.082,628.357z"/>
	</g>
	<g>
		<path fill-rule="evenodd" clip-rule="evenodd" fill="#FFFFFF" d="M323.528,314.782c0.844,0.433,1.679,0.887,2.533,1.294
			c4.221,2.011,8.721,3.054,13.295,3.858c3.892,0.684,7.797,1.353,11.538,2.662c6.24,2.186,10.06,6.572,11.206,13.08
			c0.685,3.885-0.867,7.14-3.633,9.881c0.17-0.601,0.318-1.208,0.512-1.801c1.47-4.502,0.089-8.285-2.986-11.599
			c-1.957-2.11-4.386-3.399-7.221-3.977c-3.958-0.805-7.942-1.362-11.975-1.626c-5.225-0.342-10.009-2.088-14.509-4.694
			c-0.725-0.419-1.471-0.801-2.208-1.198c-0.063-0.033-0.137-0.045-0.257-0.083c0.487,0.985,0.976,1.894,1.396,2.833
			c1.624,3.622,2.325,7.458,2.519,11.394c0.191,3.907,0.267,7.821,0.501,11.724c0.204,3.386,0.48,6.771,0.867,10.141
			c0.44,3.835,2.627,6.61,5.749,8.703c1.041,0.698,2.169,1.267,3.257,1.895c0.151,0.087,0.297,0.183,0.594,0.364
			c-1.182,0.184-2.205,0.197-3.221,0.002c-3.631-0.697-6.716-2.355-8.571-5.633c-0.939-1.66-1.484-3.57-2.038-5.417
			c-1.642-5.481-2.576-11.111-3.38-16.767c-0.506-3.561-1.194-7.083-2.597-10.428c-1.006-2.401-2.4-4.545-4.14-6.476
			c-0.437-0.485-0.85-0.992-1.37-1.601c1.302,0,2.465,0,3.63,0c0.066-0.092,0.133-0.183,0.2-0.275
			c-0.207-0.111-0.438-0.193-0.615-0.339c-1.688-1.379-3.679-1.821-5.777-1.743c-6.39,0.24-10.977,3.377-13.918,8.958
			c-1.813,3.441-2.58,7.211-2.942,11.043c-0.309,3.277-0.396,6.573-0.625,9.858c-0.208,2.981-0.738,5.901-1.946,8.662
			c-0.516,1.179-1.519,2.558-2.553,3.492c0.271-0.94,0.57-1.835,0.783-2.749c0.67-2.877,0.575-5.786,0.314-8.7
			c-0.349-3.856-0.743-7.709-1.004-11.572c-0.197-2.958-0.009-5.904,0.842-8.779c0.66-2.235,1.787-4.216,3.181-6.063
			c0.694-0.921,1.376-1.85,2.144-2.881c-0.263,0.063-0.408,0.082-0.543,0.13c-3.335,1.199-6.792,1.83-10.316,1.952
			c-4.008,0.139-8.022,0.065-12.031,0.166c-1.89,0.047-3.801,0.131-5.654,0.465c-7.4,1.332-12.042,8.232-12.153,14.817
			c-0.041,2.416,0.296,4.775,0.876,7.11c0.058,0.229,0.109,0.458,0.176,0.73c-0.279,0.126-0.525,0.238-0.766,0.347
			c-2.824-5.028-4.434-10.229-2.597-15.954c1.623-5.058,5.046-8.512,9.83-10.675c2.209-0.999,4.549-1.402,6.969-1.552
			c5.677-0.352,11.349-0.801,17.021-1.212c0.054-0.003,0.106-0.028,0.169-0.143c-0.734-0.1-1.471-0.188-2.204-0.302
			c-2.404-0.376-4.831-0.655-7.207-1.169c-3.818-0.825-6.985-2.928-9.744-5.599c-2.219-2.148-4.323-4.424-6.374-6.735
			c-1.583-1.781-3.163-3.547-5.087-4.966c-1.563-1.152-3.275-1.872-5.26-1.415c-0.825,0.19-1.612,0.553-2.45,0.85
			c0.338-1.149,1.027-2.088,1.964-2.85c2.492-2.031,6.188-2.177,8.727-0.19c1.485,1.163,2.827,2.522,4.157,3.868
			c3.784,3.832,7.966,7.194,12.16,10.552c1.363,1.093,2.847,1.726,4.561,1.9c0.454,0.046,0.904,0.141,1.535,0.243
			c-1.89-1.942-3.671-3.772-5.477-5.628c0.228-0.305,0.426-0.572,0.638-0.855c4.22,2.947,8.827,4.017,13.89,3.058
			c-0.43-0.084-0.857-0.183-1.289-0.252c-1.162-0.188-2.321-0.412-3.489-0.541c-4.129-0.458-7.185-2.687-9.673-5.833
			c-2.865-3.625-3.965-7.764-3.509-12.345c0.418-4.191,0.852-8.381,1.201-12.577c0.243-2.922,0.454-5.854,0.503-8.783
			c0.051-2.958-1.054-5.495-3.338-7.458c-0.042-0.037-0.07-0.09-0.166-0.211c1.019-0.153,1.952-0.052,2.834,0.322
			c2.61,1.108,4.002,3.21,4.403,5.911c0.227,1.525,0.129,3.105,0.094,4.659c-0.087,3.871-0.233,7.74-0.331,11.611
			c-0.056,2.215-0.15,4.433-0.073,6.645c0.12,3.478,1.074,6.713,3.437,9.366c0.962,1.079,2.127,1.977,3.342,3.087
			c0-1.95,0-3.704,0-5.584c0.211,0.153,0.313,0.221,0.407,0.298c0.855,0.687,1.661,1.447,2.57,2.049
			c2.908,1.925,5.998,2.037,8.832,0.095c2.369-1.623,4.806,0.431,5.004,2.606c0.063,0.69,0.079,1.384,0.118,2.097
			c2.305-1.833,3.3-5.078,0.876-7.364c-0.734-0.692-1.573-1.188-2.528-1.553c-1.111-0.424-2.24-0.88-3.229-1.528
			c-2.872-1.878-3.607-4.941-2.06-8.019c0.754-1.497,1.816-2.752,2.997-3.909c-3.351-2.179-4.729-5.552-5.549-9.187
			c-1.425-6.312-0.16-12.119,3.606-17.378c0.859-1.2,2.087-1.97,3.314-2.71c4.477-2.7,9.221-3.496,14.237-1.767
			c3.683,1.269,6.448,3.716,8.406,7.044c2.007,3.413,3.152,7.105,3.189,11.094c0.042,4.608-1.667,8.559-4.605,12.033
			c-0.142,0.167-0.287,0.332-0.433,0.496s-0.294,0.324-0.492,0.542c0.182,0.091,0.332,0.16,0.477,0.24
			c0.868,0.484,1.805,0.88,2.592,1.474c2.223,1.674,2.44,3.688,1.043,6.09c-1.303,2.242-3.187,3.911-4.976,5.697
			c-0.8,0.796-1.614,1.64-2.166,2.607c-1.272,2.226-0.696,4.515,1.382,6.01c0.561,0.403,1.196,0.7,1.881,1.094
			c0.145-0.451,0.261-0.802,0.371-1.154c1.102-3.519,2.668-4.672,6.348-4.671c0.181,0,0.363-0.017,0.539,0.005
			c3.608,0.446,6.229-1.287,8.412-3.881c1.789-2.126,2.638-4.571,2.508-7.407c-0.207-4.516-0.87-8.975-1.45-13.448
			c-0.541-4.169,0.015-8.178,2.261-11.82c2.224-3.604,5.543-5.664,9.621-6.548c0.509-0.11,1.087,0.099,1.632,0.16
			c0.013,0.058,0.024,0.115,0.035,0.172c-0.196,0.104-0.392,0.21-0.59,0.311c-1.719,0.874-3.315,1.921-4.68,3.296
			c-2.374,2.389-3.393,5.303-3.105,8.614c0.301,3.476,0.755,6.939,1.169,10.405c0.452,3.785,1.147,7.55,0.993,11.381
			c-0.298,7.363-3.771,12.803-10.159,16.38c-1.691,0.947-3.599,1.265-5.551,1.423c1.122,0.1,2.244,0.213,3.368,0.294
			c5.917,0.421,11.154-1.422,15.825-4.931c3.031-2.278,5.946-4.708,8.915-7.068c2.335-1.856,4.729-3.611,7.574-4.637
			c3.196-1.153,6.411-1.217,9.62-0.101c0.564,0.195,1.039,0.65,1.581,1.003c-1.296,0-2.469-0.063-3.632,0.012
			c-3.239,0.209-6.04,1.564-8.391,3.705c-2.447,2.228-4.742,4.625-7.05,7.002c-2.715,2.795-5.395,5.622-8.594,7.883
			c-4.95,3.5-10.427,5.178-16.517,4.738c-0.74-0.054-1.493,0.067-2.24,0.107C323.554,314.634,323.541,314.708,323.528,314.782z
			 M293.709,283.518c-0.636,2.464,3.06,5.656,6.19,5.346C299.485,285.107,296.859,282.927,293.709,283.518z M308.69,288.875
			c3.135,0.188,6.368-2.4,6.265-4.98C311.837,283.335,309.323,285.32,308.69,288.875z"/>
		<path fill-rule="evenodd" clip-rule="evenodd" fill="#FFFFFF" d="M229.862,233.735c-0.423,0.237-0.88,0.428-1.262,0.72
			c-0.791,0.607-1.521,1.294-2.314,1.897c-1.557,1.186-3.238,1.238-4.894,0.157c0.706-0.733,1.41-1.452,2.102-2.183
			c2.84-3,5.652-6.028,8.521-9.001c4.338-4.495,9.387-8.111,14.535-11.591c6.836-4.619,14.056-8.521,21.754-11.518
			c5.818-2.266,11.811-3.916,17.934-5.115c8.264-1.618,16.604-2.289,25.016-1.966c10.063,0.386,19.924,2.007,29.536,5.051
			c11.909,3.771,22.739,9.571,32.497,17.369c5.742,4.588,10.977,9.699,15.691,15.338c0.46,0.551,0.854,1.156,1.314,1.708
			c0.624,0.748,0.766,1.655,0.884,2.565c0.019,0.142-0.13,0.383-0.263,0.448c-0.181,0.086-0.466,0.129-0.628,0.044
			c-0.881-0.469-1.721-1.014-2.604-1.472c-0.77-0.398-1.581-0.716-2.372-1.068c-0.043,0.062-0.086,0.124-0.129,0.186
			c1.145,1.485,2.289,2.969,3.472,4.502c-0.696,0.639-1.365,1.253-2.052,1.882c-1.82-1.56-3.605-3.09-5.39-4.619
			c-0.059,0.038-0.117,0.075-0.177,0.112c0.292,0.57,0.546,1.163,0.887,1.703c0.425,0.673,0.96,1.278,1.378,1.956
			c0.786,1.275,0.602,2.565-0.499,3.685c-1.623-0.963-3.259-1.934-4.895-2.904c-0.065,0.044-0.13,0.088-0.194,0.131
			c0.174,0.42,0.287,0.88,0.537,1.25c0.321,0.476,0.751,0.876,1.132,1.312c1.16,1.33,1.002,2.49-0.519,3.534
			c-1.256-1.085-2.523-2.18-3.789-3.274c-0.105-0.092-0.199-0.209-0.321-0.266c-0.137-0.064-0.302-0.073-0.453-0.105
			c0.005,0.154-0.047,0.339,0.021,0.458c0.681,1.22,1.382,2.428,2.076,3.64c0.188,0.328,0.376,0.657,0.597,1.043
			c-0.673,0.566-1.34,1.127-2.063,1.734c-0.177-0.239-0.343-0.453-0.5-0.673c-5.468-7.586-11.972-14.117-19.761-19.326
			c-5.618-3.756-11.646-6.708-17.981-9.043c-8.946-3.296-18.203-4.884-27.726-5.056c-7.483-0.135-14.87,0.586-22.143,2.374
			c-10.186,2.504-19.482,6.927-27.98,13.056c-4.937,3.561-9.503,7.552-13.652,12.001c-1.276,1.368-2.351,2.922-3.531,4.38
			c-0.351,0.433-0.715,0.866-1.13,1.235c-1.093,0.976-2.056,0.878-2.968-0.263c-0.147-0.184-0.273-0.386-0.416-0.59
			c0.976-1.518,1.937-3.012,2.897-4.505c0.075-0.118,0.174-0.227,0.219-0.355c0.055-0.146,0.062-0.31,0.09-0.466
			c-0.148,0.046-0.331,0.051-0.44,0.143c-0.427,0.361-0.827,0.752-1.244,1.125c-0.313,0.28-0.65,0.532-0.949,0.824
			c-0.953,0.931-2.123,1.096-3.436,0.994c-0.03-0.974-0.158-1.943,0.448-2.822c0.68-0.985,1.342-1.983,2.012-2.976
			c0.109-0.162,0.218-0.325,0.259-0.608c-0.287,0.14-0.609,0.235-0.854,0.428c-0.533,0.417-1.029,0.881-1.535,1.333
			c-0.297,0.266-0.567,0.562-0.876,0.815c-1.184,0.975-2.197,0.991-3.411,0.06c-0.267-0.205-0.511-0.44-0.814-0.706
			c0.574-0.775,1.127-1.525,1.681-2.272c0.713-0.963,1.434-1.919,2.132-2.893c0.107-0.15,0.107-0.378,0.157-0.57
			c-0.063-0.026-0.127-0.052-0.189-0.079c-1.873,1.482-3.746,2.964-5.617,4.444c-0.929-1.057-1.192-2.532-0.521-3.695
			c0.475-0.818,1.142-1.527,1.739-2.271c0.344-0.428,0.722-0.827,1.085-1.238C229.934,233.832,229.898,233.784,229.862,233.735z
			 M285.086,212.01c0.182,0.692,0.34,1.286,0.492,1.882c0.098,0.381,0.306,0.516,0.706,0.406c1.02-0.279,2.047-0.528,3.069-0.795
			c0.493-0.129,0.668-0.409,0.519-0.937c-1.234-4.375-2.452-8.755-3.678-13.133c-0.191-0.68-0.303-0.738-0.979-0.564
			c-0.849,0.219-1.69,0.468-2.547,0.657c-0.601,0.132-0.971,0.451-1.226,1.012c-1.069,2.36-2.17,4.708-3.259,7.06
			c-1.418,3.057-2.84,6.112-4.25,9.173c-0.084,0.184-0.07,0.411-0.102,0.619c0.206-0.001,0.423,0.038,0.618-0.011
			c1.103-0.273,2.195-0.596,3.303-0.842c0.593-0.132,0.915-0.447,1.152-0.99c1.4-3.218,2.828-6.424,4.251-9.632
			c0.047-0.108,0.129-0.201,0.248-0.38c0.29,1.097,0.553,2.089,0.827,3.125c-0.38,0.104-0.679,0.216-0.989,0.268
			c-0.485,0.08-0.771,0.353-0.955,0.796c-0.345,0.829-0.721,1.644-1.07,2.47c-0.089,0.209-0.131,0.438-0.249,0.844
			C282.42,212.675,283.717,212.351,285.086,212.01z M320.904,205.58c-0.098,0.665-0.375,0.903-0.929,0.781
			c-0.467-0.103-0.952-0.146-1.403-0.295c-0.472-0.156-0.701,0.015-0.894,0.416c-0.303,0.629-0.626,1.249-0.958,1.863
			c-0.206,0.377-0.142,0.58,0.3,0.675c1.111,0.242,2.21,0.544,3.327,0.751c1.089,0.201,2.175-0.012,2.796-0.953
			c0.84-1.271,1.552-2.641,2.176-4.032c0.366-0.817-0.075-1.59-0.865-1.908c-0.328-0.132-0.688-0.216-1.04-0.252
			c-1.826-0.188-3.656-0.346-5.483-0.532c-1.816-0.184-3.228,0.477-4.116,2.068c-0.972,1.742-1.904,3.508-2.773,5.303
			c-0.787,1.625-0.063,2.876,1.722,3.065c2.024,0.215,4.055,0.388,6.082,0.561c0.198,0.017,0.519-0.027,0.591-0.153
			c0.517-0.883,0.982-1.796,1.513-2.792c-0.318-0.052-0.486-0.087-0.656-0.104c-1.53-0.151-3.06-0.306-4.59-0.442
			c-0.411-0.036-0.547-0.171-0.339-0.565c0.585-1.112,1.148-2.236,1.753-3.339c0.099-0.18,0.36-0.397,0.537-0.388
			C318.723,205.363,319.789,205.479,320.904,205.58z M330.095,208.02c0.16-0.544,0.493-0.501,0.841-0.423
			c1.634,0.37,3.27,0.732,4.9,1.117c0.492,0.116,0.845,0.01,1.122-0.428c0.342-0.539,0.724-1.052,1.081-1.581
			c0.374-0.555,0.329-0.668-0.341-0.818c-1.888-0.426-3.782-0.82-5.662-1.273c-2.518-0.605-4.271-0.137-5.913,2.689
			c-0.931,1.603-0.25,3.039,1.546,3.448c0.952,0.216,1.91,0.411,2.858,0.646c0.195,0.048,0.356,0.231,0.533,0.352
			c-0.239,0.123-0.469,0.271-0.72,0.357c-0.112,0.039-0.269-0.049-0.404-0.08c-1.614-0.366-3.23-0.723-4.842-1.103
			c-0.495-0.116-0.841,0.013-1.116,0.446c-0.354,0.556-0.75,1.083-1.116,1.629c-0.317,0.474-0.271,0.602,0.281,0.727
			c2.139,0.486,4.28,0.96,6.42,1.444c2.626,0.594,4.504-0.65,5.694-3.395c0.604-1.391-0.109-2.547-1.576-2.903
			c-0.736-0.18-1.479-0.328-2.217-0.501C331.01,208.266,330.56,208.14,330.095,208.02z M304.059,204.863
			c-0.087,0.257-0.154,0.478-0.235,0.693c-0.494,1.305-1.021,2.599-1.481,3.915c-0.593,1.688,0.218,2.817,1.997,2.815
			c1.256-0.001,2.514-0.022,3.768-0.084c0.252-0.012,0.622-0.187,0.718-0.39c0.375-0.813,0.67-1.663,0.98-2.504
			c0.107-0.29-0.004-0.465-0.335-0.46c-0.319,0.005-0.638,0.01-0.957,0.011c-0.588,0.001-1.174,0-1.887,0
			c0.526-1.372,0.994-2.637,1.511-3.881c0.062-0.146,0.394-0.236,0.606-0.25c0.636-0.041,1.275-0.038,1.913-0.036
			c0.411,0.001,0.68-0.173,0.825-0.558c0.281-0.747,0.565-1.491,0.859-2.232c0.183-0.459,0.022-0.612-0.449-0.597
			c-0.755,0.023-1.511,0.006-2.375,0.006c0.305-0.799,0.591-1.534,0.865-2.273c0.208-0.557,0.121-0.697-0.454-0.692
			c-0.938,0.008-1.878-0.001-2.809,0.083c-0.269,0.024-0.617,0.286-0.744,0.534c-0.316,0.617-0.55,1.282-0.769,1.943
			c-0.134,0.409-0.344,0.587-0.777,0.529c-0.586-0.08-0.927,0.196-1.107,0.757c-0.188,0.588-0.436,1.157-0.652,1.736
			c-0.32,0.858-0.311,0.868,0.63,0.88C303.794,204.811,303.887,204.836,304.059,204.863z M297.101,202.161
			c-0.31-0.134-0.522-0.313-0.72-0.296c-0.914,0.073-1.833,0.158-2.73,0.334c-0.286,0.056-0.671,0.36-0.744,0.625
			c-0.935,3.363-1.818,6.739-2.724,10.11c-0.128,0.476,0.037,0.63,0.505,0.566c0.829-0.115,1.659-0.246,2.493-0.312
			c0.597-0.047,0.868-0.326,1.013-0.894c0.552-2.165,1.141-4.319,1.724-6.476c0.05-0.184,0.124-0.465,0.251-0.508
			c0.566-0.189,1.158-0.31,1.879-0.489c-0.23,0.918-0.409,1.649-0.598,2.377c-0.095,0.37,0.028,0.541,0.416,0.492
			c1.011-0.124,2.025-0.223,3.026-0.395c0.218-0.037,0.501-0.298,0.563-0.511c0.312-1.052,0.636-2.108,0.809-3.187
			c0.288-1.792-0.747-2.737-2.508-2.313C298.812,201.512,297.906,201.891,297.101,202.161z"/>
		<path fill-rule="evenodd" clip-rule="evenodd" fill="#FFFFFF" d="M379.079,261.678c-0.742-1.454-1.484-2.908-2.226-4.363
			c-0.226-0.444-0.49-0.875-0.655-1.34c-0.442-1.25-0.125-2.165,0.98-2.894c0.36-0.239,0.761-0.418,1.174-0.641
			c1.204,1.416,2.379,2.795,3.553,4.177c0.053,0.061,0.091,0.148,0.156,0.178c0.17,0.078,0.353,0.13,0.53,0.193
			c0-0.172,0.061-0.375-0.009-0.512c-0.648-1.281-1.318-2.551-1.981-3.825c-0.33-0.635-0.658-1.272-1.013-1.954
			c1.059-0.762,2.108-1.517,3.209-2.31c0.142,0.181,0.277,0.344,0.401,0.516c1.158,1.6,2.314,3.202,3.475,4.801
			c0.156,0.215,0.303,0.534,0.638,0.139c-1.021-2.052-2.031-4.111-3.075-6.151c-0.229-0.447-0.222-0.71,0.205-1.03
			c0.797-0.597,1.542-1.259,2.362-1.938c1.651,1.981,3.226,3.982,4.862,5.928c0.06-0.047,0.119-0.095,0.181-0.143
			c0.004-0.054,0.032-0.12,0.013-0.161c-0.881-1.677-1.71-3.385-2.666-5.018c-1.003-1.717-0.786-2.494,1.151-3.247
			c6.719,9.416,12.114,19.521,15.797,30.626c-0.219-0.043-0.364-0.058-0.502-0.102c-4.155-1.344-8.311-2.687-12.463-4.041
			c-1.812-0.59-2.665-0.24-3.566,1.46c-1.717,3.244-3.449,6.481-5.176,9.72c-0.111,0.21-0.234,0.414-0.424,0.748
			c-4.65-8.453-9.257-16.826-13.863-25.197c1.177-0.814,2.444-0.696,3.424,0.408c1.217,1.374,2.358,2.814,3.558,4.205
			c0.567,0.66,1.19,1.274,1.788,1.908C378.971,261.771,379.025,261.724,379.079,261.678z"/>
		<path fill-rule="evenodd" clip-rule="evenodd" fill="#FFFFFF" d="M223.568,242.162c0.814,0.429,1.003,0.756,0.783,1.747
			c-0.31,1.401-0.701,2.785-1.064,4.174c-0.14,0.532-0.301,1.059-0.345,1.644c1.399-1.599,2.799-3.197,4.218-4.817
			c0.982,0.695,1.922,1.36,2.903,2.055c-0.687,1.338-1.354,2.648-2.027,3.957c-0.519,1.012-1.049,2.018-1.55,3.039
			c-0.078,0.159-0.029,0.381-0.038,0.574c0.073,0.015,0.147,0.03,0.22,0.046c1.48-2.025,2.963-4.049,4.435-6.063
			c2.283,0.689,3.165,2.616,2.133,4.615c-0.183,0.353-0.415,0.68-0.639,1.01c-0.845,1.248-1.446,2.604-1.736,4.15
			c0.083-0.114,0.16-0.231,0.25-0.34c1.389-1.701,2.787-3.395,4.16-5.107c0.242-0.302,0.459-0.402,0.792-0.199
			c0.052,0.031,0.109,0.047,0.165,0.071c1.951,0.835,2.414,2.104,1.294,3.906c-0.97,1.56-1.715,3.195-2.15,4.975
			c-0.026,0.108-0.034,0.22-0.052,0.331c0.056,0.034,0.11,0.068,0.164,0.103c1.302-1.757,2.665-3.472,3.885-5.283
			c1.134-1.684,2.749-2.37,4.63-1.699c-4.663,8.462-9.322,16.914-14.034,25.463c-0.285-0.506-0.53-0.93-0.763-1.359
			c-1.933-3.56-3.872-7.117-5.785-10.687c-0.227-0.421-0.428-0.495-0.878-0.35c-4.651,1.501-9.31,2.978-13.968,4.46
			c-0.242,0.077-0.486,0.144-0.859,0.253C211.442,261.711,216.873,251.609,223.568,242.162z"/>
		<path fill-rule="evenodd" clip-rule="evenodd" fill="#FFFFFF" d="M406.813,351.188c-0.492,1.255-0.962,2.519-1.482,3.762
			c-4.888,11.665-11.877,21.942-20.563,31.093c-8.501,8.953-18.216,16.311-29.165,22.02c-8.473,4.416-17.383,7.619-26.742,9.574
			c-8.073,1.688-16.232,2.346-24.466,2.068c-10.149-0.34-20.093-1.947-29.778-5.035c-15.513-4.947-29.15-13.08-40.971-24.259
			c-8.718-8.247-15.946-17.644-21.485-28.296c-1.618-3.11-2.951-6.369-4.41-9.563c-0.09-0.195-0.146-0.406-0.139-0.658
			c0.097,0.169,0.196,0.334,0.287,0.506c4.005,7.631,8.504,14.954,13.698,21.838c7.389,9.793,15.931,18.401,26.081,25.354
			c9.45,6.475,19.739,11.092,30.839,13.904c8.046,2.041,16.225,3.072,24.518,3.295c6.058,0.162,12.096-0.074,18.111-0.777
			c17.065-1.994,32.792-7.582,46.884-17.533c9.698-6.849,17.885-15.224,24.935-24.743c5.192-7.014,9.646-14.479,13.541-22.281
			c0.053-0.106,0.113-0.207,0.171-0.312C406.722,351.16,406.768,351.173,406.813,351.188z"/>
		<path fill-rule="evenodd" clip-rule="evenodd" fill="#FFFFFF" d="M380.571,325.957c-0.47,1.54-0.883,3.101-1.42,4.619
			c-6.726,19.016-19.11,33.293-36.487,43.323c-7.147,4.125-14.813,6.994-22.977,8.264c-22.916,3.562-43.349-2.066-61.152-16.959
			c-7.191-6.015-13.1-13.145-17.547-21.415c-1.441-2.68-2.544-5.542-3.799-8.322c-0.03-0.068-0.041-0.146,0.021-0.265
			c0.105,0.17,0.212,0.338,0.313,0.51c4.969,8.547,10.726,16.496,17.811,23.436c8.398,8.224,18.073,14.345,29.374,17.764
			c5.896,1.785,11.936,2.732,18.09,2.962c6.674,0.248,13.286-0.26,19.833-1.568c15.764-3.151,28.891-10.877,39.564-22.848
			c5.601-6.282,10.182-13.26,14.021-20.728c1.404-2.731,2.653-5.543,3.974-8.317c0.08-0.17,0.163-0.338,0.246-0.507
			C380.481,325.922,380.526,325.939,380.571,325.957z"/>
		<path fill-rule="evenodd" clip-rule="evenodd" fill="#FFFFFF" d="M251.656,376.519c0.541-0.284,0.883-0.465,1.279-0.673
			c-0.149-0.174-0.254-0.313-0.375-0.436c-1.166-1.178-2.353-2.336-3.493-3.538c-0.401-0.424-0.752-0.481-1.256-0.219
			c-0.562,0.292-1.16,0.51-1.833,0.8c0.213,0.24,0.357,0.42,0.521,0.583c1.561,1.573,3.132,3.137,4.687,4.718
			c1.359,1.383,1.248,3.196-0.406,4.154c-1.775,1.027-3.682,1.826-5.712,2.246c-1.63,0.336-3.091-0.127-4.257-1.25
			c-2.271-2.188-4.503-4.42-6.683-6.699c-1.141-1.192-0.913-2.869,0.455-3.784c0.671-0.449,1.449-0.748,2.205-1.055
			c0.188-0.075,0.55,0.006,0.701,0.15c0.981,0.939,1.925,1.915,2.879,2.881c0.052,0.053,0.075,0.134,0.147,0.266
			c-0.356,0.196-0.695,0.383-1.086,0.599c0.109,0.145,0.188,0.275,0.292,0.38c1.264,1.277,2.543,2.539,3.79,3.833
			c0.353,0.366,0.663,0.416,1.106,0.195c0.598-0.3,1.225-0.542,1.928-0.848c-0.272-0.291-0.47-0.51-0.675-0.717
			c-1.463-1.474-2.928-2.946-4.394-4.417c-1.668-1.672-1.378-3.655,0.784-4.621c1.67-0.746,3.396-1.396,5.147-1.913
			c1.623-0.479,3.119,0.101,4.301,1.233c2.216,2.13,4.386,4.311,6.513,6.528c1.063,1.111,0.915,2.713-0.321,3.632
			c-0.707,0.525-1.571,0.846-2.385,1.213c-0.158,0.072-0.475,0.018-0.603-0.102C253.852,378.667,252.817,377.646,251.656,376.519z"
			/>
		<path fill-rule="evenodd" clip-rule="evenodd" fill="#FFFFFF" d="M296.98,398.799c-1.131-0.168-2.233-0.348-3.341-0.482
			c-0.196-0.023-0.516,0.08-0.607,0.23c-0.854,1.393-1.671,2.811-2.495,4.223c-0.025,0.045-0.009,0.113-0.017,0.264
			c0.713,0.041,1.419,0.078,2.125,0.121c0.89,0.053,0.927,0.127,0.475,0.887c-0.397,0.668-0.802,1.332-1.187,2.01
			c-0.231,0.406-0.572,0.611-1.026,0.6c-1.276-0.029-2.556-0.023-3.826-0.131c-1.833-0.154-2.69-1.66-1.953-3.359
			c0.197-0.455,0.464-0.881,0.714-1.311c0.893-1.535,1.791-3.066,2.687-4.6c0.061-0.104,0.126-0.205,0.186-0.309
			c1.21-2.108,2.995-2.983,5.42-2.597c2.501,0.4,5.01,0.748,7.517,1.121c0.453,0.066,0.905,0.137,1.359,0.202
			c0.782,0.111,0.847,0.228,0.455,0.898c-1.267,2.17-2.54,4.338-3.812,6.506c-1.028,1.754-2.058,3.512-3.089,5.266
			c-0.161,0.275-0.329,0.547-0.494,0.82c-1.168,1.928-2.852,2.768-5.102,2.428c-2.091-0.314-4.182-0.627-6.275-0.928
			c-0.512-0.072-0.608-0.287-0.349-0.721c0.431-0.719,0.844-1.447,1.27-2.17c0.457-0.775,0.617-0.842,1.504-0.705
			c1.38,0.211,2.758,0.438,4.144,0.604c0.251,0.031,0.662-0.123,0.781-0.322c1.661-2.771,3.282-5.566,4.912-8.355
			C296.974,398.957,296.967,398.912,296.98,398.799z"/>
		<path fill-rule="evenodd" clip-rule="evenodd" fill="#FFFFFF" d="M262.247,387.748c-1.069-0.726-2.127-1.469-3.217-2.159
			c-0.164-0.104-0.529-0.054-0.714,0.063c-1.297,0.823-2.568,1.684-3.852,2.528c-0.453,0.298-0.286,0.514,0.063,0.751
			c1.501,1.021,2.996,2.05,4.49,3.08c0.189,0.131,0.356,0.289,0.577,0.47c-0.17,0.156-0.272,0.277-0.398,0.362
			c-0.777,0.522-1.567,1.03-2.341,1.56c-0.358,0.246-0.68,0.259-1.042,0.009c-2.084-1.441-4.188-2.854-6.259-4.313
			c-1.349-0.951-1.424-2.583-0.183-3.677c0.476-0.419,1.027-0.755,1.559-1.108c1.427-0.952,2.862-1.892,4.291-2.84
			c2.052-1.359,4.072-1.416,6.118,0.048c1.702,1.22,3.452,2.373,5.178,3.561c0.229,0.157,0.453,0.328,0.656,0.519
			c1.012,0.958,1.078,2.206-0.021,3.053c-1.272,0.981-2.638,1.869-4.052,2.632c-1.283,0.692-2.628,0.466-3.758-0.457
			c-1.096-0.894-2.114-1.882-3.171-2.824c-0.339-0.302-0.257-0.516,0.093-0.741c0.756-0.486,1.504-0.983,2.24-1.496
			c0.365-0.256,0.646-0.282,0.989,0.066c0.431,0.441,0.911,0.836,1.393,1.223C261.442,388.502,261.746,388.435,262.247,387.748z"/>
		<path fill-rule="evenodd" clip-rule="evenodd" fill="#FFFFFF" d="M368.757,374.67c-0.312,0.242-0.596,0.454-0.869,0.678
			c-1.317,1.068-2.632,2.143-3.949,3.213c-0.513,0.416-0.582,0.39-0.78-0.257c-0.245-0.802-0.467-1.61-0.746-2.399
			c-0.181-0.512-0.076-0.853,0.35-1.192c1.871-1.496,3.718-3.021,5.581-4.529c1.646-1.331,3.35-0.85,4.031,1.168
			c0.49,1.455,0.911,2.934,1.364,4.402c0.458,1.487,0.896,2.98,1.385,4.458c0.197,0.593,0.13,1.006-0.398,1.395
			c-0.804,0.591-1.556,1.251-2.331,1.881c-0.615,0.498-0.674,0.48-0.897-0.257c-0.343-1.126-0.684-2.253-1.031-3.379
			c-0.062-0.203-0.142-0.402-0.248-0.699c-1.009,0.831-1.979,1.587-2.881,2.419c-0.145,0.133,0.02,0.6,0.042,0.912
			c0.216-0.074,0.479-0.094,0.637-0.232c0.504-0.44,0.969-0.927,1.527-1.472c0.126,0.265,0.226,0.426,0.282,0.602
			c0.245,0.76,0.47,1.525,0.718,2.284c0.156,0.479,0.099,0.888-0.26,1.268c-0.698,0.741-1.36,1.517-2.069,2.246
			c-0.317,0.324-0.689,0.613-1.082,0.839c-0.956,0.552-2.047,0.347-2.543-0.622c-0.904-1.765-1.574-3.629-1.473-5.663
			c0.063-1.241,0.752-2.171,1.667-2.937c1.271-1.063,2.561-2.104,3.854-3.141C368.964,375.393,369.121,375.138,368.757,374.67z"/>
		<path fill-rule="evenodd" clip-rule="evenodd" fill="#FFFFFF" d="M325.321,401.238c-1.271,0.205-2.452,0.379-3.626,0.592
			c-0.452,0.082-0.506,0.494-0.446,0.848c0.014,0.088,0.427,0.188,0.634,0.15c0.529-0.096,1.048-0.252,1.563-0.406
			c0.406-0.123,0.586-0.023,0.484,0.418c-0.205,0.895-0.388,1.795-0.639,2.676c-0.072,0.254-0.308,0.574-0.538,0.648
			c-1.304,0.434-2.609,0.904-3.953,1.166c-1.643,0.318-2.693-0.676-2.459-2.32c0.191-1.334,0.523-2.664,0.948-3.945
			c0.589-1.773,1.989-2.617,3.779-2.895c1.538-0.236,3.074-0.484,4.611-0.729c0.099-0.016,0.239-0.002,0.287-0.059
			c0.15-0.182,0.266-0.391,0.395-0.59c-0.175-0.046-0.358-0.154-0.523-0.13c-1.813,0.278-3.625,0.58-5.438,0.871
			c-0.888,0.141-0.914,0.107-0.711-0.753c0.191-0.815,0.34-1.645,0.592-2.441c0.081-0.26,0.398-0.586,0.652-0.632
			c2.534-0.447,5.072-0.878,7.621-1.239c1.61-0.229,2.723,0.775,2.599,2.398c-0.091,1.163-0.412,2.312-0.666,3.458
			c-0.472,2.123-0.988,4.236-1.446,6.363c-0.126,0.586-0.411,0.838-0.992,0.91c-1.01,0.125-2.011,0.316-3.017,0.471
			c-0.737,0.115-0.783,0.064-0.62-0.646c0.283-1.225,0.572-2.447,0.854-3.672C325.296,401.619,325.296,401.48,325.321,401.238z"/>
		<path fill-rule="evenodd" clip-rule="evenodd" fill="#FFFFFF" d="M334.514,394.528c-0.45,0.126-0.814,0.222-1.176,0.332
			c-0.36,0.11-0.558-0.011-0.529-0.391c0.082-1.074,0.171-2.148,0.277-3.222c0.048-0.482,0.429-0.669,0.837-0.726
			c0.737-0.103,1.021-0.486,1.038-1.229c0.022-0.896,0.163-1.788,0.258-2.68c0.229-2.173,1.358-3.612,3.466-4.258
			c1.526-0.468,3.05-0.942,4.576-1.408c0.131-0.041,0.343-0.105,0.399-0.046c0.424,0.446,0.788,0.085,1.159-0.063
			c0.814-0.327,1.618-0.68,2.434-1.005c0.559-0.223,0.688-0.135,0.697,0.449c0.015,0.897,0.004,1.797,0.027,2.694
			c0.013,0.484-0.181,0.785-0.631,0.967c-1.055,0.426-2.104,0.864-3.147,1.316c-0.396,0.173-0.662,0.142-0.735-0.357
			c-1.089,0.337-2.156,0.65-3.209,1.005c-0.191,0.065-0.436,0.282-0.464,0.461c-0.126,0.763-0.181,1.535-0.271,2.417
			c0.662-0.199,1.224-0.375,1.789-0.537c0.641-0.185,0.775-0.079,0.722,0.563c-0.081,0.935-0.177,1.868-0.258,2.803
			c-0.04,0.475-0.266,0.772-0.736,0.896c-0.404,0.106-0.794,0.286-1.202,0.357c-0.532,0.092-0.7,0.376-0.741,0.892
			c-0.198,2.566-0.431,5.13-0.651,7.697c-0.101,1.168-0.11,1.186-1.221,1.527c-0.915,0.281-1.832,0.557-2.747,0.836
			c-0.639,0.195-0.76,0.109-0.704-0.551c0.229-2.684,0.465-5.369,0.697-8.053C334.483,395.019,334.494,394.822,334.514,394.528z"/>
		<path fill-rule="evenodd" clip-rule="evenodd" fill="#FFFFFF" d="M377.205,366.775c0.563-0.627,1.08-1.202,1.595-1.779
			c0.493-0.549,0.965-1.12,1.481-1.646c1.072-1.092,2.572-1.154,3.604-0.02c1.604,1.761,2.996,5.084,0.66,7.771
			c-1.819,2.096-3.67,4.164-5.503,6.245c-0.289,0.328-0.542,0.317-0.741-0.074c-0.415-0.817-0.825-1.64-1.226-2.466
			c-0.21-0.435-0.066-0.798,0.244-1.145c1.373-1.53,2.734-3.07,4.096-4.611c0.145-0.162,0.339-0.345,0.359-0.533
			c0.022-0.223-0.12-0.462-0.189-0.693c-0.162,0.082-0.364,0.129-0.479,0.254c-0.848,0.929-1.668,1.883-2.515,2.811
			c-1.406,1.543-3.245,1.45-4.335-0.333c-0.562-0.917-0.949-1.979-1.223-3.026c-0.365-1.4,0.067-2.727,0.979-3.809
			c1.813-2.152,3.698-4.242,5.558-6.355c0.283-0.322,0.522-0.228,0.694,0.115c0.411,0.82,0.806,1.65,1.223,2.468
			c0.245,0.481,0.045,0.831-0.271,1.183c-1.331,1.487-2.652,2.983-3.98,4.473C376.938,365.938,376.721,366.269,377.205,366.775z"/>
		<path fill-rule="evenodd" clip-rule="evenodd" fill="#FFFFFF" d="M355.43,390.597c1.574-0.896,3.044-1.732,4.514-2.57
			c0.313-0.177,0.627-0.351,0.936-0.534c0.377-0.225,0.627-0.115,0.687,0.304c0.149,1.026,0.307,2.055,0.375,3.088
			c0.017,0.267-0.211,0.677-0.447,0.814c-2.445,1.43-4.899,2.844-7.384,4.205c-1.225,0.672-2.377,0.176-2.678-1.186
			c-0.314-1.418-0.466-2.872-0.665-4.313c-0.202-1.462-0.406-2.925-0.551-4.393c-0.171-1.73,0.57-3.014,2.067-3.869
			c2.407-1.377,4.814-2.751,7.228-4.12c0.546-0.311,0.7-0.232,0.784,0.374c0.13,0.928,0.24,1.859,0.371,2.789
			c0.069,0.497-0.111,0.826-0.556,1.075c-1.602,0.896-3.181,1.833-4.792,2.713c-0.503,0.274-0.661,0.589-0.569,1.149
			c0.208,1.28,0.355,2.568,0.533,3.853C355.305,390.148,355.36,390.315,355.43,390.597z"/>
		<path fill-rule="evenodd" clip-rule="evenodd" fill="#FFFFFF" d="M275.306,390.364c1.045,0.206,2.044,0.385,3.031,0.61
			c0.383,0.088,0.76,0.249,1.106,0.438c1.384,0.756,1.759,1.943,0.784,3.182c-0.941,1.197-2.113,2.218-3.227,3.273
			c-0.156,0.146-0.592,0.133-0.831,0.033c-1.088-0.449-2.151-0.958-3.225-1.441c-0.42-0.188-0.494-0.428-0.144-0.763
			c0.52-0.496,1.033-0.998,1.546-1.501c0.139-0.137,0.263-0.286,0.519-0.568c-0.8-0.258-1.479-0.499-2.176-0.678
			c-0.128-0.034-0.341,0.162-0.479,0.292c-1.941,1.839-3.879,3.683-5.813,5.528c-0.699,0.668-0.799,0.689-1.68,0.289
			c-0.891-0.402-1.784-0.801-2.67-1.213c-0.549-0.254-0.585-0.445-0.144-0.867c2.991-2.85,5.99-5.691,8.982-8.541
			c0.346-0.328,0.709-0.403,1.146-0.2c0.959,0.445,1.924,0.88,2.888,1.314C275.305,389.726,275.734,389.869,275.306,390.364z"/>
		<path fill-rule="evenodd" clip-rule="evenodd" fill="#FFFFFF" d="M311.984,398.543c-0.865,0.139-1.571,0.219-2.256,0.385
			c-0.16,0.039-0.284,0.357-0.363,0.57c-0.905,2.471-1.817,4.941-2.684,7.426c-0.244,0.705-0.6,1.041-1.38,1.014
			c-0.955-0.033-1.914,0.053-2.87,0.084c-0.701,0.025-0.806-0.104-0.571-0.742c1.277-3.504,2.55-7.01,3.842-10.507
			c0.706-1.909,0.293-1.739,2.561-1.829c0.678-0.026,1.355-0.047,2.033-0.069c0.53-0.018,0.585,0.034,0.63,0.558
			c0.95-0.258,1.898-0.551,2.863-0.766c0.479-0.108,0.991-0.126,1.482-0.098c1.297,0.076,1.96,0.787,1.959,2.087
			c-0.001,0.392-0.052,0.804-0.173,1.177c-0.374,1.135-0.798,2.256-1.195,3.383c-0.136,0.387-0.391,0.576-0.804,0.59
			c-1.216,0.039-2.432,0.094-3.646,0.135c-0.439,0.016-0.504-0.238-0.381-0.592c0.23-0.658,0.47-1.314,0.7-1.973
			C311.802,399.172,311.855,398.965,311.984,398.543z"/>
		<path fill-rule="evenodd" clip-rule="evenodd" fill="#FFFFFF" d="M318.82,280.651c5.774-8.67,5.927-17.56,1.065-26.716
			c0.175,0.153,0.358,0.299,0.525,0.461c2.635,2.551,4.227,5.683,5.033,9.22c1.121,4.916,0.773,9.709-1.387,14.317
			c-0.093,0.198-0.194,0.393-0.303,0.584c-0.935,1.657-1.034,3.295-0.215,5.082c1.478,3.224,0.471,6.649-2.523,9.056
			c-1.06,0.852-2.226,1.518-3.56,1.906c0.414-0.445,0.869-0.859,1.232-1.342c0.935-1.24,1.944-2.443,2.71-3.782
			c1.384-2.419,1.047-4.757-0.758-6.868C320.086,281.919,319.465,281.327,318.82,280.651z"/>
		<path fill-rule="evenodd" clip-rule="evenodd" fill="#FFFFFF" d="M300.422,324.421c-0.536,1.166-1.052,2.173-1.469,3.22
			c-1.169,2.941-1.638,6.035-1.94,9.164c-0.344,3.554-0.615,7.121-1.091,10.659c-0.502,3.725-1.366,7.378-2.996,10.804
			c-1.179,2.48-2.746,4.678-4.795,6.518c-0.295,0.265-0.609,0.52-0.949,0.721c-0.19,0.112-0.45,0.104-0.778,0.17
			c0.826-1.163,1.608-2.17,2.289-3.242c2.423-3.813,3.698-8.045,4.23-12.484c0.439-3.664,0.635-7.356,0.991-11.03
			c0.385-3.975,1.276-7.808,3.556-11.178c0.635-0.937,1.407-1.783,2.138-2.653C299.801,324.858,300.078,324.698,300.422,324.421z"/>
		<path fill-rule="evenodd" clip-rule="evenodd" fill="#FFFFFF" d="M339.056,315.875c-0.107-0.275-0.205-0.528-0.313-0.803
			c1.075-0.524,2.143-1.009,3.179-1.558c3.859-2.045,7.25-4.726,10.319-7.81c1.885-1.894,3.705-3.857,5.483-5.851
			c1.985-2.224,4.404-3.793,7.109-4.955c0.992-0.427,2.03-0.387,3.036,0.019c1.117,0.451,1.978,1.223,2.644,2.077
			c-0.851,0-1.719-0.026-2.584,0.005c-2.708,0.1-4.958,1.293-6.922,3.052c-2.38,2.128-4.646,4.384-7.064,6.465
			c-2.569,2.211-5.262,4.281-7.897,6.415c-1.085,0.878-2.305,1.495-3.639,1.899C341.305,315.164,340.206,315.515,339.056,315.875z"
			/>
		<path fill-rule="evenodd" clip-rule="evenodd" fill="#FFFFFF" d="M248.008,289.631c-0.702,0.448-1.44,0.846-2.097,1.353
			c-1.448,1.118-2.955,2.191-4.264,3.462c-3.131,3.042-3.783,6.736-2.55,10.849c0.762,2.54,1.933,4.891,3.213,7.196
			c0.144,0.258,0.289,0.516,0.527,0.938c-0.537-0.152-0.935-0.23-1.305-0.377c-2.567-1.022-4.296-2.924-5.233-5.449
			c-1.518-4.088-1.188-8.074,1.147-11.814c0.881-1.409,2.125-2.478,3.512-3.378C243.107,291.016,245.484,290.178,248.008,289.631z"
			/>
		<path fill-rule="evenodd" clip-rule="evenodd" fill="#FFFFFF" d="M342.581,260.754c-1.022,3.075-1.124,6.209-0.599,9.354
			c0.401,2.399,0.943,4.775,1.477,7.148c0.897,3.995,1.425,8.018,0.997,12.117c-0.4,3.845-1.817,7.253-4.471,10.107
			c-0.108,0.117-0.206,0.257-0.337,0.339c-0.209,0.127-0.442,0.214-0.665,0.318c0.056-0.24,0.046-0.527,0.177-0.712
			c0.933-1.312,1.669-2.718,2.192-4.239c0.91-2.646,1.104-5.38,1.016-8.15c-0.147-4.683-1.046-9.274-1.663-13.9
			c-0.263-1.957-0.427-3.927-0.588-5.895c-0.043-0.527,0.041-1.078,0.15-1.601C340.645,263.833,341.618,262.297,342.581,260.754z"/>
		<path fill-rule="evenodd" clip-rule="evenodd" fill="#FFFFFF" d="M365.52,343.526c0.138-1.48,0.313-2.96,0.402-4.446
			c0.174-2.934-0.079-5.825-1.155-8.591c-1.718-4.407-4.833-7.537-8.962-9.727c-2.535-1.345-5.248-2.214-8.005-2.964
			c-0.132-0.036-0.262-0.077-0.394-0.241c0.311,0,0.623-0.007,0.936,0c3.523,0.091,6.982,0.558,10.13,2.247
			c5.28,2.833,8.43,7.202,9.123,13.214c0.401,3.468-0.114,6.802-1.683,9.947c-0.089,0.177-0.19,0.349-0.293,0.52
			C365.604,343.511,365.551,343.515,365.52,343.526z"/>
		<path fill-rule="evenodd" clip-rule="evenodd" fill="#FFFFFF" d="M279.347,404.486c-0.25-0.045-0.37-0.057-0.483-0.092
			c-1.107-0.334-2.217-0.662-3.319-1.014c-0.543-0.172-0.593-0.357-0.224-0.816c2.602-3.232,5.21-6.46,7.813-9.692
			c0.281-0.35,0.617-0.475,1.057-0.339c1.104,0.342,2.217,0.662,3.32,1.009c0.585,0.186,0.628,0.346,0.228,0.843
			c-2.589,3.218-5.181,6.433-7.784,9.64C279.78,404.238,279.507,404.369,279.347,404.486z"/>
		<path fill-rule="evenodd" clip-rule="evenodd" fill="#FFFFFF" d="M348.191,391.959c0,2.055-0.008,4.109,0.005,6.164
			c0.003,0.453-0.141,0.773-0.565,0.951c-1.104,0.461-2.21,0.92-3.312,1.387c-0.47,0.199-0.627-0.016-0.634-0.449
			c-0.021-1.377-0.043-2.752-0.06-4.129c-0.034-2.713-0.049-5.427-0.107-8.139c-0.017-0.688,0.245-1.068,0.878-1.305
			c0.933-0.35,1.844-0.757,2.765-1.14c0.772-0.322,0.879-0.251,0.879,0.615c0.002,2.015,0.001,4.03,0.001,6.045
			C348.091,391.959,348.141,391.959,348.191,391.959z"/>
		<path fill-rule="evenodd" clip-rule="evenodd" fill="#FFFFFF" d="M215.815,305.391c-0.004,2.606-1.666,4.357-4.137,4.359
			c-2.522,0.002-4.518-1.924-4.527-4.371c-0.011-2.402,1.979-4.29,4.515-4.287C214.229,301.097,215.817,302.743,215.815,305.391z"/>
		<path fill-rule="evenodd" clip-rule="evenodd" fill="#FFFFFF" d="M406.403,305.428c0,0.02,0,0.04,0,0.06
			c-0.025,1.682-0.379,3.208-2.119,3.948c-1.771,0.751-3.86,0.287-5.183-1.111c-1.231-1.3-1.559-2.821-0.902-4.478
			c0.662-1.669,1.957-2.569,3.746-2.744c0.158-0.016,0.318-0.009,0.479-0.009c2.522,0.007,3.895,1.336,3.975,3.856
			c0.006,0.159,0.002,0.319,0.002,0.479C406.4,305.428,406.402,305.428,406.403,305.428z"/>
		<path fill-rule="evenodd" clip-rule="evenodd" fill="#FFFFFF" d="M327.771,330.385c0.353-0.049,0.627-0.085,0.995-0.135
			c0.076,0.655,0.171,1.295,0.219,1.939c0.419,5.608,0.837,11.216,1.239,16.827c0.197,2.746,0.306,5.498,0.567,8.236
			c0.097,1.013,0.517,1.995,0.793,2.99c0.057,0.205,0.127,0.406,0.24,0.76c-1.205-0.872-2.035-1.86-2.656-3.029
			c-0.85-1.605-1.216-3.355-1.205-5.139c0.025-4.027,0.126-8.053,0.271-12.078c0.113-3.116,0.151-6.221-0.366-9.309
			C327.813,331.117,327.805,330.778,327.771,330.385z"/>
		<path fill-rule="evenodd" clip-rule="evenodd" fill="#FFFFFF" d="M277.254,326.904c-1.406,0.152-2.816,0.271-4.217,0.462
			c-2.807,0.381-5.638,0.661-8.403,1.241c-3.297,0.692-6.042,2.386-7.841,5.348c-1.386,2.281-1.783,4.8-1.652,7.426
			c0.027,0.548,0.082,1.096,0.138,1.815c-0.798-1.115-1.179-2.222-1.267-3.397c-0.365-4.891,1.57-8.6,5.798-11.104
			c3.857-2.287,8.063-2.925,12.459-2.586c1.666,0.128,3.322,0.387,4.983,0.586C277.252,326.764,277.253,326.834,277.254,326.904z"/>
		<path fill-rule="evenodd" clip-rule="evenodd" fill="#FFFFFF" d="M275.664,259.913c1.54,1.435,2.624,3.144,3.274,5.125
			c0.703,2.144,0.762,4.335,0.579,6.566c-0.429,5.229-0.797,10.462-1.203,15.693c-0.085,1.092-0.208,2.183-0.348,3.27
			c-0.047,0.365-0.198,0.715-0.303,1.074c-0.063-0.006-0.126-0.012-0.188-0.017c0-0.496-0.003-0.993,0-1.488
			c0.038-6.864,0.092-13.726,0.107-20.589c0.008-2.91-0.329-5.775-1.434-8.504C275.995,260.665,275.826,260.29,275.664,259.913z"/>
		<path fill-rule="evenodd" clip-rule="evenodd" fill="#FFFFFF" d="M254.791,272.912c-3.737-2.291-5.42-6.575-3.736-11.698
			c1.152-3.503,5.704-6.598,9.027-6.049c-0.319,0.151-0.562,0.264-0.802,0.38c-3.109,1.5-5.421,3.716-6.291,7.164
			c-0.615,2.44-0.279,4.837,0.553,7.171C253.906,270.902,254.366,271.89,254.791,272.912z"/>
		<path fill-rule="evenodd" clip-rule="evenodd" fill="#FFFFFF" d="M351.778,259.54c1.203,0.226,2.087,0.753,2.802,1.57
			c1.982,2.269,2.33,6.811,0.711,9.344c-0.703,1.101-1.685,1.892-2.96,2.59c0.145-0.534,0.271-0.938,0.36-1.35
			c0.344-1.592,0.796-3.174,0.977-4.786c0.185-1.632-0.46-3.174-0.979-4.705C352.397,261.346,352.103,260.489,351.778,259.54z"/>
		<path fill-rule="evenodd" clip-rule="evenodd" fill="#FFFFFF" d="M357.463,272.042c0.097-0.308,0.18-0.525,0.232-0.749
			c0.417-1.743,0.965-3.468,1.211-5.235c0.48-3.462-0.896-6.278-3.399-8.602c-0.608-0.565-1.246-1.1-1.913-1.686
			c3,0.198,6.063,3.24,6.934,6.755C361.525,266.561,360.079,270.189,357.463,272.042z"/>
		<path fill-rule="evenodd" clip-rule="evenodd" fill="#FFFFFF" d="M274.297,352.701c-0.564,0.58-1.184,1.121-1.687,1.754
			c-0.691,0.869-1.408,1.748-1.916,2.727c-1.134,2.178-0.632,4.309,0.503,6.328c0.601,1.068,1.311,2.072,1.961,3.09
			c-2.926-0.761-5.048-4.052-4.787-7.461C268.615,355.951,271.328,353.003,274.297,352.701z"/>
		<path fill-rule="evenodd" clip-rule="evenodd" fill="#FFFFFF" d="M377.076,297.906c3.67,5.535,1.732,12.956-5.176,15.629
			c2.17-2.117,3.854-4.405,4.783-7.181C377.613,303.58,377.641,300.761,377.076,297.906z"/>
		<path fill-rule="evenodd" clip-rule="evenodd" fill="#FFFFFF" d="M354.699,352.562c-2.673,0.953-5.194,0.596-7.49-1.083
			c-2.592-1.899-3.799-4.5-3.729-7.683c0.052-0.028,0.103-0.055,0.154-0.083c0.282,0.51,0.559,1.022,0.847,1.529
			c0.46,0.815,0.915,1.633,1.396,2.437c1.16,1.938,2.921,3.058,5.052,3.659c1.264,0.355,2.528,0.702,3.794,1.052
			C354.714,352.447,354.707,352.503,354.699,352.562z"/>
		<path fill-rule="evenodd" clip-rule="evenodd" fill="#FFFFFF" d="M288.842,392.681c-0.237-0.057-0.373-0.083-0.506-0.122
			c-1.089-0.327-2.179-0.65-3.265-0.987c-0.556-0.172-0.615-0.343-0.255-0.801c0.566-0.721,1.158-1.422,1.735-2.137
			c0.267-0.33,0.586-0.448,1.005-0.319c1.125,0.348,2.255,0.673,3.378,1.024c0.513,0.159,0.573,0.354,0.244,0.77
			c-0.581,0.735-1.169,1.466-1.779,2.179C289.244,392.469,288.997,392.575,288.842,392.681z"/>
		<path fill-rule="evenodd" clip-rule="evenodd" fill="#FFFFFF" d="M258.481,271.851c-2.126-1.539-3.28-3.555-3.012-6.194
			c0.246-2.436,1.642-4.143,3.713-5.376C257.219,264.038,256.693,267.863,258.481,271.851z"/>
		<path fill-rule="evenodd" clip-rule="evenodd" fill="#FFFFFF" d="M373.64,303.428c0.569,5.451-3.292,8.756-8.62,8.491
			c2-0.958,3.785-1.96,5.286-3.388C371.816,307.093,372.904,305.384,373.64,303.428z"/>
		<path fill-rule="evenodd" clip-rule="evenodd" fill="#FFFFFF" d="M266.775,338.318c2.155,1.645,2.759,4.165,1.693,6.597
			c-1.128,2.578-3.323,3.922-5.835,3.494c0.349-0.225,0.655-0.389,0.922-0.602c0.899-0.721,1.874-1.376,2.66-2.207
			c1.854-1.96,1.931-4.223,0.863-6.602C266.999,338.822,266.921,338.645,266.775,338.318z"/>
		<path fill-rule="evenodd" clip-rule="evenodd" fill="#FFFFFF" d="M343.264,353.546c5.07,3.022,5.164,7.333,1.921,11.033
			c0.145-1.816,0.476-3.726,0.399-5.617C345.507,356.999,344.182,355.414,343.264,353.546z"/>
		<path fill-rule="evenodd" clip-rule="evenodd" fill="#FFFFFF" d="M242.032,305.166c2.054,2.239,4.02,4.382,6.051,6.598
			C244.062,310.732,241.923,308.12,242.032,305.166z"/>
		<path fill-rule="evenodd" clip-rule="evenodd" fill="#FFFFFF" d="M243.23,248.493c1.227,1.133,2.401,2.218,3.575,3.303
			c-0.018,0.041-0.036,0.081-0.054,0.121c-1.921-0.218-3.843-0.435-5.899-0.668C241.734,250.227,242.543,249.29,243.23,248.493z"/>
		<path fill-rule="evenodd" clip-rule="evenodd" fill="#FFFFFF" d="M338.192,363.347c1.264-1.807,2.426-3.47,3.588-5.131
			c0.066-0.094,0.138-0.184,0.299-0.398c0.238,1.586,0.47,3.031-0.39,4.373c-0.438,0.686-1.153,0.964-1.924,1.072
			C339.298,363.33,338.821,363.318,338.192,363.347z"/>
		<path fill-rule="evenodd" clip-rule="evenodd" fill="#FFFFFF" d="M262.013,352.458c2.538-1.214,4.994-2.388,7.488-3.581
			C268.502,351.402,264.498,353.667,262.013,352.458z"/>
		<path fill-rule="evenodd" clip-rule="evenodd" fill="#FFFFFF" d="M367.161,251.316c0.891-1.144,1.701-2.183,2.561-3.287
			c0.895,1.175,1.742,2.288,2.686,3.526C370.604,251.474,368.951,251.398,367.161,251.316z"/>
		<path fill-rule="evenodd" clip-rule="evenodd" fill="#FFFFFF" d="M269.009,302.376c-3.852-3.759-7.662-7.476-11.471-11.193
			c0.04-0.079,0.079-0.157,0.12-0.235c0.146,0.044,0.328,0.05,0.434,0.143c0.329,0.291,0.627,0.614,0.938,0.924
			c3.247,3.246,6.494,6.492,9.734,9.744C268.945,301.939,269.353,302.112,269.009,302.376z"/>
	</g>
</g>
</svg>
