<?xml version="1.0" encoding="utf-8"?>
<!-- Generator: Adobe Illustrator 16.0.3, SVG Export Plug-In . SVG Version: 6.00 Build 0)  -->
<!DOCTYPE svg PUBLIC "-//W3C//DTD SVG 1.1//EN" "http://www.w3.org/Graphics/SVG/1.1/DTD/svg11.dtd">
<svg version="1.1" id="Capa_1" xmlns="http://www.w3.org/2000/svg" xmlns:xlink="http://www.w3.org/1999/xlink" x="0px" y="0px"
	 width="792px" height="612px" viewBox="0 0 792 612" enable-background="new 0 0 792 612" xml:space="preserve">
<g>
	<path fill-rule="evenodd" clip-rule="evenodd" fill="#FFFFFF" d="M74.689,330.745c-19.931-13.19-27.936-44.281-3.569-66.425
		c-6.353-10.515-8.991-21.771-6.411-33.979c2.165-10.245,8.266-16.922,18.636-18.747c9.114-1.604,18.354-3.137,27.571-3.359
		c15.326-0.37,29.541-4.628,43.832-9.562c67.657-23.359,135.504-46.173,203.084-69.75c23.066-8.047,45.486-17.937,68.35-26.589
		c6.206-2.349,12.893-3.923,19.483-4.566c3.812-0.372,8.278,1.086,11.755,2.99c18.295,10.011,36.721,19.671,56.611,26.211
		c1.529,0.503,3.077,0.968,4.642,1.345c6.757,1.628,11.646,5.531,15.484,11.362c4.351,6.607,9.067,13.022,14.126,19.104
		c13.104,15.757,30.565,22.587,50.58,22.625c15.859,0.03,31.723-1.057,47.579-1.749c6.258-0.273,11.923,1.19,15.99,6.06
		c14.533,17.396,32.729,30.218,51.729,42.092c3.078,1.922,5.949,4.17,9.004,6.129c17.26,11.065,17.729,37.604-2.497,49.21
		c-1.609,0.922-3.232,1.82-5,2.815c5.118,10.21,7.224,20.693,5.882,31.83c-0.974,8.079-4.108,14.867-11.564,18.732
		c-7.254,3.761-14.761,7.033-22.55,10.706c0.618,0.821,1.456,1.942,2.298,3.059c14.039,18.626,8.556,39.148-13.492,46.889
		c-18.478,6.487-37.446,11.62-56.308,16.968c-32.818,9.304-65.759,18.181-98.575,27.495c-17.971,5.101-34.074,14.54-50.507,23.068
		c-44.747,23.222-89.327,46.764-133.989,70.146c-8.366,4.379-17.018,8.07-26.484,9.295c-13.695,1.771-25.042-3.37-34.966-12.313
		c-15.79-14.229-31.182-28.923-47.341-42.718c-33.354-28.476-67.125-56.495-104.143-80.191
		c-12.084-7.734-24.75-14.729-37.714-20.867c-10.725-5.077-15.736-13.019-17.374-24.201
		C67.129,352.17,68.156,341.085,74.689,330.745z M663.924,205.824c-3.197-3.523-6.135-6.317-8.52-9.523
		c-2.099-2.822-4.054-3.26-7.454-2.222c-38.777,11.832-78.134,18.878-118.868,13.378c-10.563-1.426-20.925-3.626-30.234-9.216
		c-10.496-6.302-13.965-15.651-10.014-27.245c3.466-10.168,10.32-17.806,18.543-24.362c2.547-2.03,5.213-3.911,7.954-5.958
		c-6.643-2.406-12.925-4.737-19.263-6.905c-0.781-0.267-2.128,0.035-2.764,0.588c-10.685,9.31-20.323,19.519-23.275,33.962
		c-1.559,7.623-1.845,15.505-2.701,23.231c-9.386-24.177-5.227-45.704,13.308-64.57c-6.375-3.283-13.267-5.744-18.854-9.94
		c-11.059-8.305-22.077-8.164-33.782-2.271c-0.241,0.121-0.483,0.24-0.734,0.335c-28.749,10.899-57.288,22.398-86.293,32.569
		c-60.447,21.196-121.139,41.697-181.735,62.469c-13.317,4.565-26.396,9.66-40.89,9.975c-10.43,0.227-20.888,1.737-31.211,3.426
		c-7.641,1.25-10.32,5.034-10.88,12.764c-0.135,1.873-0.236,3.794,0.016,5.643c1.221,8.93,3.953,16.799,12.635,21.653
		c7.496,4.19,14.569,9.16,21.71,13.963c64.818,43.604,130.291,86.288,192.138,134.134c12.663,9.796,25.222,11.333,39.276,3.859
		c7.584-4.033,15.493-7.45,23.219-11.222c8.162-3.985,16.281-8.063,24.904-12.34c-13.436,1.128-26.222,2.201-39.008,3.274
		c-0.068-0.479-0.138-0.96-0.205-1.439c1.193-0.471,2.367-1.002,3.585-1.403c24.995-8.235,50.026-16.362,74.987-24.702
		c40.494-13.531,80.879-27.394,121.426-40.761c50.379-16.609,100.9-32.784,151.287-49.369c5.395-1.776,10.794-4.376,15.325-7.756
		c8.229-6.14,8.024-17.937,0.065-24.366c-3.441-2.781-7.217-5.154-10.881-7.654c-10.963-7.477-21.944-14.925-32.518-22.111
		c-6.829,2.917-13.478,6.168-20.406,8.629c-14.691,5.218-30.051,7.176-45.525,7.939c-24.491,1.208-48.877,0.039-73.089-4.39
		C578.701,224.91,622.362,222.964,663.924,205.824z M80.693,272.719c-5.444,5.707-10.69,10.823-11.765,18.532
		C67.257,303.252,71,313.164,81.262,319.87c14.515,9.484,29.697,17.989,43.861,27.955c38.817,27.316,77.219,55.225,115.854,82.804
		c18.484,13.196,37.142,26.15,55.681,39.271c10.144,7.179,25.978,4.339,33.493-2.407c3.687-3.308,7.805-6.173,11.916-8.96
		c34.059-23.094,70.527-41.72,108.178-58.129c7.072-3.082,14.25-5.924,21.379-8.878c0.025,0.095,0.049,0.188,0.073,0.281
		c-34.373,21.015-68.747,42.031-103.12,63.046c0.245,0.428,0.49,0.854,0.735,1.282c15.307-6.824,30.631-13.61,45.917-20.48
		c53.309-23.956,106.832-47.41,161.588-67.917c31.333-11.734,63.002-22.366,95.653-30.014c9.85-2.307,19.235-6.674,28.733-10.354
		c4.524-1.752,7.505-5.105,8.023-10.228c0.771-7.621,0.008-14.981-3.002-22.129c-1.499-3.561-3.033-4.701-7.194-3.341
		c-64.075,20.948-128.188,41.784-192.359,62.438c-35.841,11.535-69.37,28.243-102.924,44.979
		c-20.442,10.196-40.956,20.27-61.7,29.83c-14.688,6.769-29.102,5.395-42.298-4.364c-9.08-6.717-17.777-13.969-27.033-20.427
		c-43.78-30.551-87.606-61.035-131.599-91.279C121.291,299.219,101.042,286.205,80.693,272.719z M85.79,336.566
		c-5.712,8.902-5.854,17.381-4.56,26.254c1.031,7.083,4.664,11.299,11.16,14.376c10.548,4.996,20.986,10.401,30.868,16.597
		c48.267,30.265,91.545,66.999,134.213,104.481c10.304,9.053,20.14,18.646,30.553,27.567c6.675,5.719,14.972,8.188,23.407,5.344
		c9.998-3.371,19.874-7.435,29.238-12.288c42.247-21.892,84.229-44.299,126.447-66.248c17.502-9.1,34.819-18.708,54.039-24.024
		c41.549-11.491,83.095-22.997,124.598-34.654c9.431-2.648,18.857-5.485,27.97-9.044c11.565-4.516,14.433-14.535,7.614-24.829
		c-1.842-2.781-4.086-5.366-6.511-7.655c-1.009-0.953-3.114-1.512-4.477-1.195c-7.978,1.854-15.942,3.813-23.801,6.114
		c-52.969,15.51-104.009,36.224-154.538,58.17c-51.392,22.321-103.085,44.011-153.141,69.294
		c-13.916,7.028-27.791,7.038-41.293-0.558c-9.588-5.393-19.061-11.125-27.977-17.551c-38.843-27.993-77.272-56.563-116.238-84.381
		C131.384,366.644,108.654,352.001,85.79,336.566z M528.646,152.892c6.093,40.118,33.415,50.494,63.656,43.693
		c-13.39-2.872-25.461-7.286-36.327-14.654C544.934,174.445,536.273,164.689,528.646,152.892z"/>
	<path fill-rule="evenodd" clip-rule="evenodd" fill="#FFFFFF" d="M297.016,355.987c-35.733-6.26-151.114-82.841-171.201-114.261
		c12.759,7.989,24.819,14.926,36.227,22.809c26.537,18.335,52.532,37.458,79.188,55.616c18.076,12.315,36.898,23.534,55.381,35.255
		C296.793,355.522,296.883,355.789,297.016,355.987z"/>
	<path fill-rule="evenodd" clip-rule="evenodd" fill="#FFFFFF" d="M331.847,352.697c3.71,1.355,7.554,2.438,11.086,4.158
		c2.544,1.239,3.975,3.585,2.529,6.678c-1.501,3.211-4.367,4.614-7.217,3.005c-3.593-2.027-7.086-4.718-9.685-7.892
		C325.835,355.316,327.263,353.321,331.847,352.697z"/>
	<path fill-rule="evenodd" clip-rule="evenodd" fill="#FFFFFF" d="M367.255,359.189c-0.395,0.281-0.779,0.774-1.226,0.837
		c-3.006,0.425-5.906,0.244-7.734-2.618c-0.255-0.4,0.305-1.836,0.854-2.147C361.43,353.966,365.697,356.07,367.255,359.189z"/>
</g>
<g>
	<path fill-rule="evenodd" clip-rule="evenodd" fill="#FFFFFF" d="M391.688,267.081c0.425,0.622,0.832,1.249,1.284,1.865
		c2.236,3.042,5.347,5.791,8.675,8.469c2.836,2.278,5.689,4.557,7.984,7.041c3.826,4.144,4.156,8.053,0.836,11.565
		c-1.983,2.097-5.438,2.777-9.575,2.611c0.538-0.185,1.065-0.382,1.618-0.552c4.207-1.284,5.535-3.688,5.123-6.737
		c-0.262-1.941-1.462-3.751-3.475-5.446c-2.811-2.367-5.802-4.636-9.029-6.795c-4.186-2.8-7.072-6.008-9.152-9.46
		c-0.333-0.556-0.712-1.106-1.073-1.658c-0.029-0.047-0.087-0.09-0.163-0.168c-0.236,0.691-0.422,1.347-0.687,1.984
		c-1.016,2.453-2.953,4.537-5.383,6.406c-2.412,1.859-4.929,3.659-7.304,5.536c-2.058,1.628-4.057,3.293-5.95,5.007
		c-2.156,1.95-2.139,4.308-0.883,6.831c0.417,0.842,0.994,1.669,1.499,2.502c0.07,0.117,0.13,0.232,0.262,0.465
		c-1.119-0.516-1.993-1.028-2.722-1.63c-2.604-2.151-4.113-4.46-3.522-6.876c0.305-1.224,1.104-2.36,1.854-3.472
		c2.225-3.3,5.146-6.31,8.194-9.264c1.921-1.861,3.66-3.795,4.682-6.012c0.733-1.592,0.971-3.264,0.774-5.012
		c-0.049-0.44-0.065-0.877-0.102-1.416c1.1,0.659,2.08,1.249,3.062,1.838c0.119-0.008,0.234-0.016,0.352-0.023
		c-0.1-0.154-0.239-0.308-0.295-0.463c-0.516-1.477-1.905-2.684-3.725-3.711c-5.551-3.127-11.49-4.036-17.648-3.012
		c-3.798,0.631-6.931,1.942-9.763,3.485c-2.42,1.319-4.661,2.76-7.021,4.124c-2.142,1.239-4.515,2.285-7.35,2.917
		c-1.214,0.27-2.97,0.385-4.458,0.281c0.851-0.287,1.689-0.538,2.474-0.842c2.461-0.957,4.298-2.315,5.999-3.76
		c2.246-1.913,4.451-3.85,6.774-5.721c1.786-1.433,3.883-2.664,6.498-3.528c2.031-0.674,4.284-0.995,6.679-1.121
		c1.193-0.063,2.381-0.138,3.708-0.213c-0.263-0.105-0.398-0.17-0.544-0.216c-3.604-1.148-6.938-2.614-9.991-4.344
		c-3.472-1.967-6.814-4.033-10.263-6.018c-1.623-0.935-3.294-1.866-5.075-2.652c-7.124-3.148-15.589-2.389-20.019,0.52
		c-1.628,1.067-2.9,2.301-3.949,3.646c-0.101,0.133-0.208,0.263-0.332,0.417c-0.318-0.084-0.6-0.158-0.873-0.231
		c0.929-3.694,2.998-6.852,8.322-8.5c4.701-1.457,9.866-1.28,15.328,0.167c2.519,0.67,4.762,1.672,6.9,2.83
		c5.023,2.716,10.105,5.385,15.162,8.072c0.049,0.025,0.109,0.041,0.237,0.021c-0.554-0.417-1.116-0.83-1.661-1.253
		c-1.78-1.386-3.645-2.741-5.312-4.174c-2.675-2.305-3.963-4.857-4.531-7.456c-0.457-2.092-0.731-4.182-0.941-6.262
		c-0.163-1.604-0.332-3.199-1.02-4.813c-0.559-1.31-1.53-2.501-3.507-3.301c-0.821-0.332-1.727-0.567-2.626-0.856
		c1.044-0.347,2.242-0.421,3.536-0.291c3.441,0.346,6.657,2.153,7.487,4.332c0.489,1.276,0.724,2.567,0.96,3.848
		c0.669,3.643,1.98,7.274,3.308,10.91c0.432,1.183,1.267,2.219,2.597,3.165c0.353,0.252,0.669,0.521,1.136,0.886
		c-0.314-1.831-0.613-3.557-0.913-5.308c0.394-0.022,0.735-0.042,1.101-0.063c1.621,3.464,4.804,6.279,9.706,8.41
		c-0.306-0.256-0.603-0.517-0.92-0.766c-0.856-0.674-1.689-1.361-2.591-2.01c-3.183-2.297-4.289-4.848-4.315-7.525
		c-0.03-3.084,1.768-5.504,5.174-7.337c3.115-1.677,6.241-3.344,9.302-5.057c2.128-1.194,4.24-2.408,6.212-3.702
		c1.991-1.308,2.729-3.009,2.095-5.049c-0.011-0.038,0.003-0.077,0.001-0.18c0.959,0.448,1.682,0.965,2.18,1.58
		c1.473,1.821,1.261,3.471-0.182,4.892c-0.812,0.802-1.937,1.464-2.991,2.146c-2.622,1.7-5.295,3.368-7.928,5.063
		c-1.508,0.969-3.048,1.92-4.441,2.956c-2.19,1.627-3.517,3.568-3.271,5.959c0.1,0.973,0.489,1.967,0.784,3.082
		c1.287-0.878,2.44-1.668,3.679-2.515c0.079,0.175,0.117,0.257,0.147,0.34c0.271,0.744,0.45,1.493,0.82,2.224
		c1.184,2.34,3.719,3.955,7.389,4.516c3.07,0.468,3.771,2.627,2.504,3.707c-0.401,0.342-0.842,0.663-1.281,1.004
		c3.154,0.341,6.131-0.616,5.592-2.874c-0.163-0.684-0.545-1.331-1.11-1.979c-0.657-0.754-1.311-1.531-1.718-2.323
		c-1.187-2.301,0.21-4.053,3.547-4.656c1.622-0.292,3.345-0.319,5.104-0.243c-1.391-2.678-0.332-4.896,1.372-6.947
		c2.956-3.565,7.849-5.541,14.494-6.003c1.517-0.105,3.059,0.169,4.584,0.458c5.558,1.05,10.084,3.093,13.179,6.412
		c2.27,2.437,2.99,4.939,2.45,7.429c-0.555,2.553-2.022,4.796-4.62,6.612c-3.001,2.098-7.045,3.011-11.814,3.088
		c-0.229,0.004-0.461,0.004-0.692,0.004c-0.229,0.001-0.46-0.002-0.773-0.005c0.095,0.132,0.177,0.241,0.246,0.349
		c0.414,0.658,0.94,1.311,1.214,1.977c0.773,1.879-0.369,2.896-3.132,3.271c-2.576,0.35-5.266,0.148-7.951,0.047
		c-1.201-0.046-2.443-0.08-3.547,0.077c-2.539,0.359-3.563,1.681-2.796,3.407c0.209,0.465,0.551,0.921,0.868,1.445
		c0.421-0.13,0.748-0.229,1.072-0.333c3.25-1.027,5.332-0.752,8.436,1.11c0.152,0.091,0.32,0.176,0.452,0.275
		c2.751,2.028,6.104,2.574,9.655,2.51c2.91-0.051,5.239-0.723,6.997-2.067c2.802-2.139,5.182-4.483,7.639-6.792
		c2.29-2.152,5.4-3.676,9.698-4.179c4.25-0.499,8.407,0.254,12.432,1.921c0.503,0.209,0.852,0.595,1.271,0.898
		c-0.024,0.033-0.054,0.065-0.082,0.096c-0.234-0.053-0.471-0.104-0.705-0.159c-2.023-0.477-4.062-0.814-6.117-0.885
		c-3.58-0.125-6.36,0.67-8.298,2.308c-2.035,1.718-3.937,3.508-5.871,5.28c-2.113,1.933-4.007,3.981-6.66,5.629
		c-5.104,3.165-11.619,3.858-19.369,2.234c-2.048-0.43-3.868-1.252-5.621-2.169c0.883,0.613,1.754,1.232,2.649,1.838
		c4.716,3.186,10.348,5.007,16.601,5.791c4.063,0.508,8.124,0.89,12.183,1.33c3.193,0.347,6.369,0.768,9.448,1.747
		c3.457,1.097,6.212,2.697,8.183,4.824c0.349,0.375,0.449,0.82,0.675,1.254c-1.094-0.657-2.04-1.28-3.075-1.833
		c-2.87-1.547-6.128-2.354-9.52-2.58c-3.535-0.235-7.052-0.317-10.564-0.416c-4.132-0.115-8.255-0.199-12.446-0.799
		c-6.483-0.93-12.21-2.946-17.059-6.229c-0.591-0.398-1.305-0.725-1.961-1.085C391.809,267.027,391.75,267.053,391.688,267.081z
		 M387.129,237.899c-2.161,0.789-1.147,4.098,1.703,5.542C390.954,241.541,390.177,239.228,387.129,237.899z M396.239,247.898
		c2.522,1.671,6.957,2.143,8.569,0.928C402.545,246.996,399.115,246.617,396.239,247.898z"/>
	<path fill-rule="evenodd" clip-rule="evenodd" fill="#FFFFFF" d="M366.058,183.15c-0.513-0.107-1.024-0.252-1.539-0.315
		c-1.067-0.126-2.138-0.187-3.202-0.317c-2.095-0.255-3.551-1.083-4.234-2.406c1.081,0.026,2.148,0.059,3.214,0.08
		c4.372,0.086,8.74,0.147,13.122,0.261c6.622,0.171,13.266,1.098,19.902,2.137c8.812,1.38,17.475,3.279,25.946,5.826
		c6.402,1.926,12.548,4.215,18.504,6.775c8.038,3.455,15.517,7.375,22.404,11.779c8.239,5.271,15.49,10.992,21.595,17.229
		c7.563,7.729,12.883,15.826,15.978,24.278c1.822,4.974,2.872,9.926,3.134,14.853c0.024,0.48-0.042,0.954-0.018,1.435
		c0.033,0.653-0.447,1.133-0.944,1.603c-0.078,0.073-0.362,0.107-0.517,0.068c-0.21-0.053-0.479-0.177-0.559-0.297
		c-0.434-0.658-0.783-1.328-1.228-1.982c-0.387-0.57-0.86-1.124-1.298-1.683c-0.077,0.006-0.154,0.012-0.231,0.019
		c-0.013,1.249-0.026,2.497-0.038,3.786c-1.007-0.065-1.978-0.126-2.973-0.19c-0.507-1.625-1.004-3.217-1.503-4.81
		c-0.074-0.012-0.149-0.025-0.223-0.039c-0.129,0.405-0.306,0.8-0.372,1.216c-0.087,0.517-0.034,1.061-0.129,1.578
		c-0.174,0.973-1.182,1.459-2.848,1.407c-0.736-1.255-1.477-2.521-2.217-3.786c-0.084-0.014-0.166-0.027-0.252-0.04
		c-0.128,0.277-0.337,0.542-0.369,0.835c-0.042,0.377,0.056,0.775,0.093,1.164c0.101,1.186-0.797,1.628-2.769,1.33
		c-0.344-1.125-0.693-2.259-1.037-3.394c-0.032-0.094-0.034-0.195-0.098-0.282c-0.074-0.099-0.21-0.186-0.312-0.276
		c-0.101,0.071-0.266,0.128-0.289,0.217c-0.228,0.894-0.433,1.793-0.644,2.69c-0.058,0.244-0.118,0.487-0.184,0.772
		c-0.944-0.086-1.877-0.17-2.884-0.263c0.008-0.197,0.008-0.378,0.022-0.556c0.385-6.186-0.802-12.421-3.941-18.71
		c-2.266-4.537-5.408-8.92-9.213-13.178c-5.377-6.014-12.142-11.415-20.063-16.314c-6.227-3.85-12.934-7.265-20.252-10.141
		c-10.243-4.029-21.002-6.744-32.214-8.287c-6.511-0.894-12.995-1.409-19.426-1.505c-1.979-0.03-3.91,0.125-5.867,0.185
		c-0.582,0.018-1.174,0.028-1.769-0.016c-1.563-0.114-2.311-0.645-2.329-1.621c-0.003-0.158,0.024-0.313,0.038-0.476
		c1.823-0.19,3.619-0.376,5.413-0.563c0.141-0.016,0.297-0.015,0.418-0.05c0.143-0.038,0.256-0.108,0.383-0.164
		c-0.155-0.056-0.313-0.145-0.466-0.16c-0.597-0.053-1.193-0.08-1.79-0.124c-0.447-0.031-0.9-0.089-1.345-0.108
		c-1.418-0.064-2.512-0.582-3.552-1.293c0.616-0.454,1.146-0.955,2.237-1.044c1.222-0.099,2.438-0.213,3.656-0.321
		c0.199-0.018,0.398-0.037,0.623-0.144c-0.339-0.083-0.673-0.202-1.007-0.24c-0.724-0.081-1.447-0.124-2.174-0.177
		c-0.426-0.029-0.85-0.034-1.276-0.076c-1.641-0.161-2.505-0.667-2.916-1.701c-0.089-0.227-0.143-0.457-0.223-0.73
		c0.995-0.059,1.957-0.116,2.914-0.173c1.238-0.073,2.476-0.138,3.708-0.223c0.188-0.014,0.339-0.117,0.507-0.177
		c-0.035-0.045-0.073-0.089-0.107-0.132c-2.559-0.28-5.114-0.562-7.667-0.841c-0.09-0.946,0.661-1.744,1.99-1.928
		c0.942-0.129,1.971-0.11,2.967-0.143c0.571-0.018,1.152-0.007,1.73-0.008C366.053,183.23,366.058,183.19,366.058,183.15z
		 M426.974,201.323c-0.303,0.404-0.56,0.751-0.824,1.098c-0.171,0.22-0.084,0.387,0.328,0.539c1.044,0.391,2.073,0.799,3.112,1.196
		c0.501,0.191,0.834,0.155,1.056-0.159c1.841-2.596,3.698-5.186,5.552-7.777c0.285-0.403,0.231-0.486-0.456-0.75
		c-0.861-0.332-1.734-0.645-2.578-0.994c-0.597-0.245-1.118-0.29-1.703-0.165c-2.459,0.522-4.936,1.022-7.403,1.53
		c-3.209,0.66-6.423,1.316-9.631,1.98c-0.191,0.04-0.331,0.15-0.493,0.228c0.174,0.103,0.331,0.23,0.528,0.308
		c1.111,0.435,2.247,0.843,3.341,1.292c0.588,0.241,1.069,0.262,1.627,0.138c3.302-0.741,6.618-1.461,9.933-2.187
		c0.111-0.024,0.242-0.025,0.462-0.046c-0.479,0.641-0.914,1.221-1.364,1.828c-0.388-0.146-0.713-0.246-1.008-0.379
		c-0.466-0.211-0.885-0.233-1.332-0.126c-0.835,0.199-1.691,0.375-2.529,0.57c-0.216,0.049-0.4,0.131-0.77,0.253
		C424.286,200.273,425.592,200.785,426.974,201.323z M461.435,216.562c-0.519,0.25-0.91,0.216-1.298-0.119
		c-0.325-0.283-0.706-0.547-0.99-0.843c-0.297-0.31-0.6-0.348-1.026-0.265c-0.669,0.13-1.353,0.247-2.035,0.354
		c-0.423,0.065-0.505,0.189-0.193,0.456c0.778,0.671,1.508,1.364,2.313,2.023c0.787,0.642,1.843,1.095,2.984,0.987
		c1.55-0.148,3.051-0.404,4.497-0.716c0.847-0.183,0.984-0.754,0.525-1.298c-0.189-0.224-0.438-0.444-0.711-0.639
		c-1.417-1.01-2.858-2.007-4.278-3.016c-1.41-1.003-3.036-1.419-4.835-1.152c-1.968,0.293-3.919,0.616-5.835,0.984
		c-1.736,0.333-1.949,1.264-0.566,2.253c1.564,1.122,3.164,2.227,4.762,3.332c0.157,0.107,0.458,0.25,0.599,0.229
		c1.02-0.136,2.016-0.311,3.118-0.491c-0.234-0.185-0.353-0.286-0.484-0.38c-1.191-0.842-2.379-1.686-3.585-2.523
		c-0.322-0.226-0.348-0.354,0.09-0.426c1.227-0.204,2.443-0.427,3.679-0.616c0.202-0.032,0.564,0.003,0.708,0.097
		C459.737,215.361,460.561,215.952,461.435,216.562z M467.581,222.314c0.494-0.164,0.749,0.023,0.991,0.234
		c1.133,0.995,2.276,1.985,3.399,2.984c0.339,0.301,0.705,0.432,1.228,0.376c0.641-0.07,1.305-0.108,1.953-0.165
		c0.683-0.062,0.719-0.134,0.254-0.542c-1.314-1.148-2.653-2.284-3.942-3.441c-1.723-1.547-3.513-2.224-6.76-1.781
		c-1.84,0.25-2.211,1.241-0.969,2.334c0.661,0.58,1.34,1.153,1.986,1.739c0.134,0.119,0.151,0.284,0.22,0.428
		c-0.284-0.065-0.574-0.114-0.843-0.203c-0.121-0.039-0.194-0.158-0.29-0.24c-1.122-0.983-2.25-1.961-3.36-2.949
		c-0.341-0.303-0.716-0.42-1.235-0.365c-0.662,0.071-1.343,0.108-2.013,0.169c-0.582,0.053-0.628,0.135-0.244,0.471
		c1.486,1.301,2.979,2.599,4.465,3.901c1.826,1.596,4.23,1.987,7.045,1.354c1.424-0.322,1.584-1.203,0.58-2.106
		c-0.503-0.454-1.03-0.896-1.539-1.348C468.192,222.888,467.896,222.604,467.581,222.314z M447.692,207.71
		c-0.243,0.072-0.444,0.137-0.654,0.192c-1.275,0.337-2.574,0.653-3.832,1.014c-1.612,0.46-1.671,1.379-0.169,2.279
		c1.06,0.635,2.136,1.262,3.236,1.869c0.22,0.123,0.647,0.231,0.862,0.189c0.851-0.176,1.659-0.41,2.477-0.631
		c0.282-0.077,0.302-0.212,0.021-0.377c-0.273-0.159-0.544-0.32-0.816-0.48c-0.495-0.296-0.989-0.595-1.592-0.955
		c1.35-0.353,2.575-0.685,3.834-0.983c0.147-0.035,0.487,0.093,0.674,0.193c0.566,0.304,1.103,0.629,1.641,0.953
		c0.344,0.209,0.687,0.266,1.064,0.167c0.729-0.194,1.458-0.385,2.195-0.57c0.455-0.114,0.421-0.264,0.012-0.496
		c-0.651-0.371-1.277-0.762-2.007-1.2c0.783-0.205,1.51-0.391,2.228-0.586c0.545-0.145,0.563-0.252,0.075-0.541
		c-0.798-0.471-1.583-0.951-2.425-1.385c-0.244-0.126-0.711-0.185-0.981-0.137c-0.675,0.119-1.308,0.3-1.929,0.486
		c-0.382,0.116-0.677,0.09-1.003-0.155c-0.444-0.333-0.912-0.38-1.437-0.219c-0.542,0.169-1.126,0.301-1.693,0.452
		c-0.836,0.224-0.834,0.234-0.047,0.717C447.505,207.553,447.565,207.61,447.692,207.71z M443.603,202.97
		c-0.173-0.217-0.235-0.405-0.412-0.499c-0.819-0.429-1.652-0.856-2.525-1.231c-0.278-0.12-0.802-0.178-1.04-0.094
		c-3.004,1.04-5.975,2.113-8.958,3.174c-0.423,0.15-0.386,0.303,0.051,0.51c0.774,0.369,1.561,0.729,2.311,1.122
		c0.533,0.281,0.946,0.292,1.44,0.11c1.896-0.695,3.811-1.369,5.723-2.044c0.166-0.057,0.414-0.147,0.549-0.102
		c0.601,0.202,1.18,0.447,1.907,0.731c-0.8,0.296-1.432,0.535-2.071,0.768c-0.323,0.119-0.33,0.258,0.028,0.433
		c0.932,0.455,1.856,0.924,2.813,1.354c0.208,0.095,0.618,0.12,0.813,0.055c0.955-0.316,1.924-0.627,2.783-1.026
		c1.423-0.661,1.171-1.612-0.597-2.311C445.473,203.544,444.459,203.256,443.603,202.97z"/>
	<path fill-rule="evenodd" clip-rule="evenodd" fill="#FFFFFF" d="M473.559,271.285c0.33-1.031,0.663-2.062,0.997-3.092
		c0.102-0.314,0.162-0.643,0.33-0.936c0.449-0.787,1.321-1.039,2.733-0.808c0.46,0.076,0.918,0.196,1.415,0.307
		c0.082,1.246,0.163,2.463,0.245,3.679c0.003,0.055-0.021,0.113,0.013,0.158c0.094,0.122,0.211,0.238,0.321,0.356
		c0.114-0.077,0.298-0.138,0.332-0.234c0.294-0.906,0.566-1.818,0.848-2.728c0.139-0.453,0.28-0.906,0.433-1.392
		c1.395,0.192,2.779,0.384,4.229,0.583c0.003,0.153,0.011,0.295,0,0.435c-0.077,1.308-0.158,2.615-0.23,3.922
		c-0.01,0.176-0.097,0.393,0.445,0.386c0.49-1.441,0.995-2.879,1.458-4.328c0.103-0.317,0.28-0.433,0.851-0.36
		c1.067,0.135,2.132,0.213,3.272,0.323c0.086,1.729,0.098,3.427,0.198,5.132c0.081,0.009,0.161,0.018,0.245,0.027
		c0.038-0.021,0.106-0.038,0.117-0.066c0.36-1.201,0.786-2.39,1.057-3.609c0.286-1.281,0.981-1.522,3.112-0.88
		c-0.538,7.644-2.645,14.927-6.852,21.794c-0.156-0.13-0.272-0.209-0.359-0.3c-2.621-2.708-5.242-5.417-7.854-8.131
		c-1.14-1.183-2.09-1.457-3.973-1.148c-3.585,0.592-7.179,1.173-10.771,1.759c-0.232,0.038-0.471,0.068-0.852,0.123
		c1.646-6.162,3.277-12.267,4.907-18.369c1.529,0.229,2.521,0.924,2.62,1.917c0.123,1.235,0.134,2.461,0.229,3.696
		c0.047,0.584,0.164,1.176,0.254,1.764C473.405,271.272,473.481,271.278,473.559,271.285z"/>
	<path fill-rule="evenodd" clip-rule="evenodd" fill="#FFFFFF" d="M355.193,183.759c0.404,0.605,0.35,0.849-0.488,1.185
		c-1.185,0.475-2.426,0.897-3.65,1.341c-0.469,0.169-0.952,0.324-1.374,0.565c2.231-0.012,4.469-0.022,6.732-0.034
		c0.372,0.811,0.727,1.585,1.097,2.396c-1.461,0.255-2.887,0.505-4.317,0.755c-1.105,0.193-2.217,0.378-3.31,0.585
		c-0.173,0.032-0.276,0.156-0.412,0.239c0.053,0.044,0.104,0.087,0.155,0.132c2.586-0.163,5.171-0.324,7.738-0.487
		c1.473,1.467,0.945,2.782-1.241,3.159c-0.388,0.067-0.801,0.098-1.205,0.133c-1.536,0.134-2.938,0.44-4.203,0.989
		c0.148-0.008,0.289-0.022,0.439-0.026c2.291-0.063,4.588-0.118,6.873-0.194c0.405-0.013,0.654,0.052,0.8,0.312
		c0.023,0.04,0.061,0.077,0.092,0.116c1.1,1.364,0.65,2.17-1.481,2.415c-1.846,0.211-3.552,0.571-5.092,1.152
		c-0.095,0.035-0.175,0.082-0.265,0.122c0.028,0.043,0.051,0.087,0.073,0.13c2.257-0.132,4.535-0.215,6.76-0.413
		c2.066-0.185,3.881,0.324,5.026,1.578c-9.513,1.451-19.013,2.9-28.623,4.365c0.094-0.373,0.166-0.687,0.252-0.999
		c0.716-2.581,1.423-5.167,2.16-7.743c0.085-0.304-0.034-0.439-0.511-0.601c-4.913-1.68-9.815-3.373-14.724-5.063
		c-0.257-0.087-0.506-0.181-0.892-0.321C332.08,186.426,343.317,184.625,355.193,183.759z"/>
	<path fill-rule="evenodd" clip-rule="evenodd" fill="#FFFFFF" d="M437.979,325.647c-1.242,0.314-2.475,0.646-3.73,0.941
		c-11.813,2.779-24.481,3.872-37.843,3.594c-13.071-0.271-26.118-1.874-39.121-4.846c-10.058-2.302-19.688-5.369-28.874-9.228
		c-7.925-3.327-15.245-7.162-22.009-11.454c-8.339-5.293-15.672-11.05-21.809-17.345c-9.833-10.083-15.979-20.651-18.587-31.67
		c-1.922-8.129-1.829-16.021,0.518-23.624c0.684-2.221,1.706-4.363,2.577-6.541c0.053-0.134,0.146-0.257,0.317-0.367
		c-0.026,0.125-0.053,0.25-0.088,0.374c-1.65,5.464-2.678,11.042-2.831,16.771c-0.223,8.152,1.313,16.354,5.296,24.625
		c3.709,7.701,9.35,14.99,16.861,21.876c5.445,4.993,11.667,9.598,18.519,13.898c5.005,3.14,10.255,6.09,15.794,8.819
		c15.715,7.741,32.669,13.186,51.116,15.839c12.696,1.825,25.125,2.196,37.345,1.479c9.005-0.529,17.68-1.638,26.109-3.179
		c0.113-0.024,0.23-0.038,0.351-0.057C437.919,325.587,437.948,325.616,437.979,325.647z"/>
	<path fill-rule="evenodd" clip-rule="evenodd" fill="#FFFFFF" d="M432.459,300.994c-1.41,0.456-2.788,0.951-4.24,1.362
		c-18.209,5.16-38.064,5.321-59.341,1.04c-8.747-1.759-17.105-4.348-24.83-7.91c-21.685-9.997-35.221-22.877-40.428-38.6
		c-2.104-6.35-2.39-12.553-0.693-18.53c0.549-1.937,1.506-3.785,2.276-5.671c0.021-0.046,0.063-0.087,0.191-0.109
		c-0.021,0.13-0.042,0.26-0.072,0.387c-1.438,6.367-1.816,12.862-0.412,19.574c1.666,7.957,5.8,15.613,13.081,22.874
		c3.799,3.79,8.27,7.273,13.311,10.493c5.469,3.491,11.382,6.61,17.771,9.335c15.378,6.561,31.546,9.728,48.441,9.741
		c8.864,0.005,17.327-0.819,25.488-2.24c2.986-0.519,5.894-1.152,8.832-1.733c0.183-0.036,0.363-0.071,0.544-0.105
		C432.406,300.933,432.435,300.964,432.459,300.994z"/>
	<path fill-rule="evenodd" clip-rule="evenodd" fill="#FFFFFF" d="M290.358,258.5c0.645,0.146,1.052,0.238,1.523,0.345
		c-0.014-0.154-0.01-0.269-0.028-0.386c-0.209-1.121-0.446-2.244-0.619-3.362c-0.06-0.395-0.314-0.598-0.915-0.735
		c-0.667-0.153-1.314-0.357-2.073-0.567c0.021,0.215,0.024,0.369,0.054,0.526c0.281,1.499,0.578,2.999,0.85,4.498
		c0.232,1.311-1.057,2.072-3.082,1.665c-2.175-0.436-4.312-1.041-6.301-1.88c-1.597-0.674-2.522-1.622-2.768-2.718
		c-0.476-2.136-0.887-4.271-1.226-6.401c-0.177-1.114,1.121-1.754,2.878-1.473c0.863,0.137,1.715,0.396,2.555,0.641
		c0.211,0.062,0.46,0.282,0.495,0.423c0.207,0.92,0.362,1.837,0.529,2.756c0.01,0.049-0.025,0.097-0.051,0.194
		c-0.429-0.092-0.84-0.179-1.311-0.281c-0.002,0.121-0.022,0.22-0.003,0.32c0.225,1.216,0.47,2.431,0.671,3.646
		c0.057,0.343,0.286,0.522,0.806,0.648c0.699,0.168,1.39,0.376,2.187,0.594c-0.041-0.269-0.063-0.467-0.098-0.665
		c-0.264-1.403-0.532-2.808-0.798-4.213c-0.306-1.598,1.247-2.345,3.707-1.686c1.9,0.509,3.785,1.091,5.605,1.744
		c1.685,0.606,2.564,1.625,2.817,2.734c0.463,2.081,0.855,4.163,1.194,6.237c0.16,1.039-1.019,1.686-2.667,1.473
		c-0.942-0.12-1.884-0.414-2.813-0.661c-0.181-0.047-0.409-0.232-0.439-0.351C290.794,260.58,290.596,259.597,290.358,258.5z"/>
	<path fill-rule="evenodd" clip-rule="evenodd" fill="#FFFFFF" d="M313.923,291.483c-0.844-0.646-1.657-1.287-2.503-1.908
		c-0.151-0.11-0.486-0.226-0.662-0.204c-1.639,0.194-3.262,0.419-4.89,0.639c-0.052,0.007-0.081,0.045-0.188,0.11
		c0.575,0.379,1.144,0.753,1.716,1.13c0.716,0.475,0.698,0.527-0.185,0.64c-0.775,0.099-1.556,0.194-2.325,0.304
		c-0.462,0.066-0.887-0.015-1.261-0.25c-1.059-0.659-2.141-1.304-3.144-1.997c-1.444-0.996-1.176-2.109,0.566-2.501
		c0.464-0.105,0.973-0.162,1.466-0.229c1.766-0.24,3.53-0.474,5.296-0.712c0.122-0.016,0.241-0.029,0.361-0.046
		c2.412-0.337,4.496,0.173,6.286,1.575c1.847,1.447,3.734,2.873,5.603,4.31c0.339,0.259,0.676,0.52,1.014,0.78
		c0.586,0.446,0.567,0.531-0.208,0.635c-2.499,0.336-5.001,0.667-7.505,1c-2.021,0.27-4.049,0.541-6.075,0.808
		c-0.318,0.042-0.638,0.08-0.957,0.12c-2.256,0.276-4.23-0.197-5.904-1.489c-1.557-1.2-3.117-2.4-4.685-3.595
		c-0.384-0.292-0.324-0.438,0.181-0.5c0.837-0.106,1.667-0.226,2.502-0.335c0.895-0.118,1.074-0.067,1.733,0.443
		c1.025,0.794,2.037,1.594,3.099,2.371c0.19,0.141,0.64,0.279,0.871,0.25c3.228-0.407,6.437-0.845,9.652-1.277
		C313.812,291.552,313.834,291.528,313.923,291.483z"/>
	<path fill-rule="evenodd" clip-rule="evenodd" fill="#FFFFFF" d="M291.895,268.921c-0.422-0.869-0.827-1.739-1.289-2.603
		c-0.069-0.129-0.412-0.292-0.644-0.332c-1.636-0.286-3.277-0.542-4.918-0.812c-0.577-0.095-0.581,0.087-0.442,0.371
		c0.594,1.22,1.179,2.44,1.76,3.661c0.072,0.154,0.109,0.311,0.178,0.503c-0.246-0.015-0.413-0.013-0.577-0.038
		c-0.999-0.158-2-0.331-3.001-0.482c-0.464-0.071-0.744-0.228-0.888-0.523c-0.808-1.706-1.649-3.407-2.438-5.112
		c-0.509-1.111,0.503-1.886,2.271-1.75c0.675,0.054,1.36,0.181,2.044,0.291c1.832,0.292,3.662,0.596,5.493,0.893
		c2.625,0.427,4.369,1.425,5.134,3.118c0.63,1.413,1.345,2.818,2.021,4.227c0.087,0.187,0.164,0.377,0.209,0.566
		c0.224,0.944-0.542,1.539-2.028,1.364c-1.721-0.202-3.457-0.493-5.153-0.865c-1.538-0.337-2.525-1.121-2.872-2.109
		c-0.335-0.957-0.542-1.917-0.813-2.877c-0.088-0.307,0.123-0.362,0.567-0.286c0.955,0.164,1.916,0.318,2.877,0.46
		c0.473,0.069,0.73,0.2,0.789,0.53c0.073,0.417,0.218,0.838,0.369,1.257C290.719,268.854,291.019,268.976,291.895,268.921z"/>
	<path fill-rule="evenodd" clip-rule="evenodd" fill="#FFFFFF" d="M390.392,316.957c-0.423-0.048-0.806-0.098-1.183-0.137
		c-1.816-0.185-3.632-0.365-5.448-0.552c-0.707-0.072-0.752-0.118-0.492-0.51c0.325-0.484,0.669-0.961,0.953-1.459
		c0.185-0.319,0.498-0.422,1.081-0.36c2.564,0.275,5.127,0.522,7.694,0.788c2.267,0.233,3.386,1.313,2.631,2.566
		c-0.545,0.904-1.164,1.783-1.749,2.675c-0.593,0.901-1.208,1.796-1.77,2.708c-0.223,0.367-0.552,0.521-1.253,0.426
		c-1.07-0.139-2.139-0.222-3.209-0.332c-0.845-0.087-0.885-0.123-0.586-0.569c0.451-0.682,0.908-1.361,1.354-2.043
		c0.085-0.122,0.146-0.255,0.251-0.441c-1.397-0.136-2.714-0.287-4.024-0.369c-0.209-0.014-0.378,0.279-0.566,0.432
		c0.232,0.075,0.466,0.201,0.694,0.219c0.713,0.057,1.426,0.074,2.256,0.111c-0.067,0.183-0.09,0.306-0.16,0.412
		c-0.289,0.468-0.606,0.924-0.895,1.394c-0.188,0.294-0.504,0.45-1.056,0.439c-1.081-0.021-2.15-0.005-3.229-0.036
		c-0.48-0.016-0.985-0.072-1.466-0.171c-1.169-0.234-1.956-0.88-1.734-1.568c0.398-1.251,1.062-2.43,2.486-3.294
		c0.871-0.53,2.067-0.6,3.346-0.48c1.772,0.165,3.546,0.349,5.32,0.538C390.088,317.385,390.389,317.352,390.392,316.957z"/>
	<path fill-rule="evenodd" clip-rule="evenodd" fill="#FFFFFF" d="M336.229,306.931c-1.206-0.55-2.316-1.069-3.45-1.568
		c-0.433-0.191-0.751-0.034-0.936,0.155c-0.047,0.047,0.237,0.301,0.438,0.389c0.511,0.225,1.05,0.417,1.584,0.609
		c0.426,0.15,0.511,0.286,0.135,0.433c-0.761,0.299-1.51,0.612-2.301,0.882c-0.229,0.078-0.639,0.103-0.883,0.02
		c-1.385-0.465-2.798-0.915-4.102-1.478c-1.598-0.688-1.829-1.667-0.547-2.289c1.039-0.504,2.194-0.936,3.4-1.297
		c1.666-0.502,3.403-0.172,5.096,0.61c1.453,0.672,2.913,1.338,4.372,2.005c0.09,0.044,0.2,0.121,0.28,0.119
		c0.247-0.006,0.482-0.042,0.719-0.066c-0.113-0.109-0.199-0.251-0.354-0.324c-1.715-0.792-3.441-1.576-5.163-2.361
		c-0.84-0.385-0.841-0.414-0.102-0.7c0.697-0.27,1.37-0.568,2.106-0.8c0.24-0.075,0.724-0.062,0.965,0.046
		c2.436,1.082,4.862,2.173,7.252,3.301c1.507,0.712,1.786,1.727,0.614,2.395c-0.847,0.479-1.873,0.833-2.844,1.221
		c-1.797,0.718-3.628,1.408-5.414,2.134c-0.492,0.2-0.899,0.168-1.438-0.091c-0.935-0.455-1.905-0.878-2.855-1.316
		c-0.696-0.321-0.703-0.369-0.097-0.604c1.045-0.41,2.095-0.814,3.14-1.223C335.956,307.091,336.049,307.029,336.229,306.931z"/>
	<path fill-rule="evenodd" clip-rule="evenodd" fill="#FFFFFF" d="M348.41,308.563c-0.467-0.17-0.836-0.311-1.211-0.444
		c-0.378-0.133-0.467-0.288-0.191-0.445c0.777-0.441,1.561-0.88,2.357-1.31c0.358-0.192,0.805-0.085,1.186,0.097
		c0.688,0.327,1.182,0.297,1.685-0.028c0.609-0.393,1.318-0.723,1.983-1.077c1.625-0.863,3.527-0.94,5.729-0.163
		c1.6,0.562,3.196,1.119,4.792,1.682c0.137,0.049,0.359,0.125,0.369,0.182c0.061,0.416,0.606,0.438,1.016,0.558
		c0.905,0.266,1.814,0.513,2.719,0.779c0.616,0.183,0.67,0.289,0.291,0.555c-0.579,0.412-1.181,0.811-1.751,1.228
		c-0.311,0.225-0.671,0.263-1.17,0.116c-1.171-0.341-2.343-0.674-3.523-1.001c-0.449-0.122-0.653-0.271-0.385-0.532
		c-1.142-0.399-2.248-0.798-3.37-1.173c-0.202-0.066-0.556-0.092-0.695-0.026c-0.612,0.28-1.163,0.599-1.822,0.952
		c0.691,0.244,1.279,0.45,1.863,0.664c0.663,0.24,0.704,0.355,0.24,0.619c-0.686,0.379-1.383,0.75-2.065,1.13
		c-0.346,0.194-0.734,0.215-1.213,0.032c-0.41-0.157-0.858-0.273-1.252-0.447c-0.507-0.228-0.837-0.186-1.211,0.025
		c-1.859,1.055-3.743,2.094-5.62,3.138c-0.853,0.476-0.875,0.479-2.039,0.071c-0.956-0.336-1.913-0.677-2.868-1.015
		c-0.666-0.234-0.713-0.335-0.23-0.603c1.962-1.095,3.931-2.185,5.896-3.276C348.06,308.771,348.197,308.686,348.41,308.563z"/>
	<path fill-rule="evenodd" clip-rule="evenodd" fill="#FFFFFF" d="M402.722,317.677c0.886,0.001,1.701,0.005,2.518,0.005
		c0.777,0.002,1.554-0.016,2.338,0.01c1.621,0.052,2.929,0.78,3.053,1.815c0.191,1.605-0.825,3.807-4.565,3.833
		c-2.916,0.023-5.84,0.021-8.76,0.027c-0.459,0.002-0.665-0.132-0.573-0.409c0.187-0.578,0.383-1.155,0.589-1.731
		c0.11-0.302,0.469-0.394,0.959-0.393c2.169,0.009,4.333,0.003,6.494-0.002c0.229,0.001,0.514,0.017,0.654-0.056
		c0.168-0.089,0.207-0.271,0.299-0.41c-0.19-0.045-0.393-0.125-0.57-0.129c-1.328-0.01-2.648,0.005-3.976-0.005
		c-2.203-0.017-3.693-0.99-3.438-2.345c0.131-0.698,0.503-1.372,0.96-1.982c0.618-0.815,1.856-1.194,3.339-1.221
		c2.948-0.051,5.916-0.038,8.875-0.049c0.452-0.001,0.595,0.162,0.513,0.405c-0.195,0.575-0.408,1.15-0.595,1.729
		c-0.113,0.341-0.511,0.397-1.008,0.396c-2.102-0.004-4.204,0.002-6.306,0C403.048,317.165,402.646,317.203,402.722,317.677z"/>
	<path fill-rule="evenodd" clip-rule="evenodd" fill="#FFFFFF" d="M368.648,317.383c1.918,0.393,3.709,0.758,5.501,1.125
		c0.382,0.08,0.76,0.16,1.144,0.235c0.467,0.089,0.606,0.266,0.376,0.485c-0.547,0.535-1.095,1.08-1.715,1.579
		c-0.162,0.127-0.625,0.198-0.914,0.142c-3.005-0.594-6.01-1.201-9.003-1.846c-1.476-0.317-2.122-1.123-1.477-1.89
		c0.666-0.796,1.496-1.529,2.279-2.281c0.793-0.759,1.585-1.522,2.43-2.256c1-0.867,2.468-1.069,4.297-0.696
		c2.937,0.599,5.874,1.199,8.81,1.802c0.666,0.138,0.747,0.252,0.418,0.567c-0.5,0.482-1.022,0.958-1.524,1.442
		c-0.271,0.26-0.639,0.316-1.179,0.204c-1.942-0.408-3.892-0.786-5.831-1.205c-0.605-0.13-0.942-0.067-1.236,0.23
		c-0.672,0.681-1.396,1.337-2.091,2.005C368.836,317.117,368.775,317.22,368.648,317.383z"/>
	<path fill-rule="evenodd" clip-rule="evenodd" fill="#FFFFFF" d="M301.19,276.711c0.745,0.622,1.472,1.208,2.155,1.811
		c0.265,0.233,0.478,0.496,0.646,0.756c0.67,1.041,0.205,1.766-1.435,1.829c-1.583,0.063-3.245-0.069-4.879-0.158
		c-0.229-0.013-0.588-0.24-0.724-0.406c-0.622-0.754-1.186-1.521-1.771-2.282c-0.231-0.297-0.136-0.443,0.381-0.416
		c0.764,0.04,1.527,0.074,2.295,0.106c0.204,0.009,0.406,0.004,0.81,0.005c-0.504-0.52-0.918-0.972-1.39-1.405
		c-0.085-0.08-0.394-0.101-0.596-0.11c-2.85-0.156-5.699-0.306-8.55-0.454c-1.029-0.053-1.127-0.093-1.606-0.721
		c-0.486-0.632-0.977-1.264-1.452-1.898c-0.297-0.393-0.201-0.497,0.45-0.463c4.401,0.231,8.804,0.469,13.206,0.701
		c0.507,0.027,0.864,0.177,1.099,0.49c0.515,0.686,1.044,1.371,1.57,2.054C301.61,276.424,301.88,276.705,301.19,276.711z"/>
	<path fill-rule="evenodd" clip-rule="evenodd" fill="#FFFFFF" d="M326.752,298.966c-0.822-0.375-1.471-0.697-2.158-0.97
		c-0.161-0.063-0.473,0.018-0.683,0.074c-2.391,0.654-4.79,1.305-7.157,1.986c-0.671,0.194-1.19,0.166-1.833-0.242
		c-0.784-0.499-1.648-0.944-2.478-1.416c-0.608-0.343-0.612-0.454,0.008-0.623c3.387-0.932,6.772-1.867,10.167-2.788
		c1.854-0.502,1.39-0.634,3.364,0.473c0.59,0.331,1.175,0.665,1.764,0.998c0.458,0.26,0.47,0.311,0.163,0.57
		c0.97,0.365,1.963,0.713,2.919,1.105c0.476,0.192,0.922,0.445,1.316,0.707c1.042,0.69,1.135,1.347,0.278,1.931
		c-0.261,0.177-0.574,0.336-0.923,0.443c-1.063,0.322-2.159,0.613-3.235,0.919c-0.371,0.105-0.711,0.062-1.069-0.143
		c-1.051-0.596-2.111-1.188-3.166-1.785c-0.382-0.215-0.266-0.362,0.068-0.459c0.631-0.18,1.265-0.355,1.892-0.534
		C326.182,299.157,326.363,299.09,326.752,298.966z"/>
	<path fill-rule="evenodd" clip-rule="evenodd" fill="#FFFFFF" d="M410.21,249.322c10.583-0.982,16.569-4.91,18.502-11.495
		c0.046,0.157,0.104,0.315,0.138,0.473c0.543,2.484-0.177,4.702-1.828,6.702c-2.291,2.781-5.744,4.765-10.604,5.748
		c-0.207,0.042-0.424,0.078-0.641,0.109c-1.882,0.273-3.043,0.961-3.529,2.18c-0.878,2.2-3.985,3.233-8.096,2.802
		c-1.458-0.154-2.881-0.444-4.263-0.944c0.645,0.009,1.302,0.053,1.926,0.019c1.604-0.085,3.251-0.115,4.776-0.332
		c2.765-0.389,4.021-1.612,3.888-3.477C410.44,250.534,410.309,249.953,410.21,249.322z"/>
	<path fill-rule="evenodd" clip-rule="evenodd" fill="#FFFFFF" d="M365.839,259.724c-1.222,0.253-2.319,0.445-3.362,0.706
		c-2.923,0.734-5.357,1.889-7.677,3.146c-2.63,1.426-5.209,2.895-7.942,4.249c-2.877,1.424-6.016,2.633-9.648,3.35
		c-2.628,0.521-5.397,0.716-8.341,0.508c-0.422-0.03-0.854-0.074-1.274-0.156c-0.233-0.047-0.449-0.181-0.769-0.317
		c1.465-0.106,2.787-0.163,4.066-0.302c4.561-0.491,8.423-1.752,11.798-3.482c2.783-1.427,5.381-2.991,8.104-4.466
		c2.946-1.596,6.223-2.871,10.369-3.236c1.153-0.1,2.36-0.09,3.549-0.112C365.028,259.605,365.366,259.674,365.839,259.724z"/>
	<path fill-rule="evenodd" clip-rule="evenodd" fill="#FFFFFF" d="M404.07,275.434c0.09-0.178,0.178-0.342,0.265-0.52
		c1.256,0.308,2.473,0.63,3.712,0.908c4.604,1.033,9.232,1.542,13.855,1.707c2.838,0.101,5.666,0.139,8.481,0.14
		c3.14,0.003,6.215,0.522,9.263,1.369c1.117,0.309,1.968,0.854,2.55,1.544c0.646,0.769,0.865,1.553,0.862,2.275
		c-0.72-0.431-1.434-0.882-2.185-1.307c-2.353-1.326-5.034-1.927-7.852-2.13c-3.409-0.245-6.809-0.377-10.222-0.664
		c-3.626-0.306-7.262-0.736-10.892-1.109c-1.494-0.154-2.93-0.494-4.322-0.987C406.437,276.252,405.276,275.854,404.07,275.434z"/>
	<path fill-rule="evenodd" clip-rule="evenodd" fill="#FFFFFF" d="M344.535,217.515c-0.887-0.153-1.774-0.348-2.659-0.451
		c-1.959-0.231-3.939-0.509-5.881-0.6c-4.645-0.215-7.63,1.118-9.3,3.595c-1.03,1.53-1.591,3.182-2.03,4.869
		c-0.049,0.189-0.097,0.378-0.173,0.688c-0.354-0.34-0.641-0.576-0.852-0.83c-1.495-1.76-1.7-3.492-0.827-5.104
		c1.413-2.61,4.318-4.238,8.754-4.74c1.67-0.189,3.425-0.041,5.188,0.256C339.488,215.658,342.045,216.483,344.535,217.515z"/>
	<path fill-rule="evenodd" clip-rule="evenodd" fill="#FFFFFF" d="M443.368,252.39c-2.888,0.867-5.041,2.227-6.668,3.91
		c-1.241,1.284-2.352,2.629-3.463,3.967c-1.877,2.254-4.084,4.333-7.146,5.964c-2.875,1.53-6.315,2.348-10.433,2.29
		c-0.17-0.003-0.344,0.012-0.508-0.019c-0.261-0.047-0.513-0.127-0.773-0.194c0.209-0.079,0.389-0.213,0.62-0.23
		c1.652-0.118,3.201-0.379,4.645-0.798c2.511-0.732,4.476-1.866,6.227-3.156c2.963-2.186,5.229-4.708,7.756-7.104
		c1.067-1.014,2.229-1.986,3.391-2.953c0.311-0.26,0.745-0.465,1.183-0.645C439.707,252.796,441.538,252.597,443.368,252.39z"/>
	<path fill-rule="evenodd" clip-rule="evenodd" fill="#FFFFFF" d="M408.182,301.288c1.091-0.598,2.215-1.175,3.27-1.799
		c2.079-1.234,3.769-2.664,4.684-4.454c1.455-2.856,0.892-5.842-1.152-8.918c-1.253-1.891-2.969-3.655-4.802-5.39
		c-0.086-0.082-0.17-0.167-0.174-0.307c0.264,0.158,0.531,0.312,0.791,0.475c2.914,1.824,5.525,3.785,7.068,6.14
		c2.585,3.949,2.367,7.512-1.011,10.571c-1.946,1.765-4.578,3.005-7.973,3.628c-0.194,0.035-0.393,0.06-0.59,0.085
		C408.262,301.323,408.218,301.299,408.182,301.288z"/>
	<path fill-rule="evenodd" clip-rule="evenodd" fill="#FFFFFF" d="M295.293,285.119c-0.178-0.148-0.272-0.214-0.347-0.287
		c-0.713-0.711-1.432-1.421-2.131-2.137c-0.347-0.353-0.266-0.461,0.348-0.48c4.325-0.14,8.652-0.274,12.979-0.411
		c0.468-0.017,0.835,0.098,1.116,0.381c0.706,0.713,1.435,1.421,2.137,2.136c0.372,0.379,0.304,0.474-0.364,0.494
		c-4.303,0.14-8.608,0.275-12.919,0.401C295.824,285.226,295.508,285.146,295.293,285.119z"/>
	<path fill-rule="evenodd" clip-rule="evenodd" fill="#FFFFFF" d="M361.644,314.33c-1.354,0.927-2.715,1.849-4.058,2.781
		c-0.297,0.204-0.63,0.274-1.104,0.141c-1.235-0.352-2.471-0.704-3.707-1.052c-0.53-0.146-0.521-0.325-0.239-0.521
		c0.889-0.631,1.778-1.261,2.671-1.891c1.755-1.24,3.535-2.47,5.272-3.72c0.44-0.32,0.909-0.357,1.6-0.144
		c1.017,0.315,2.056,0.593,3.086,0.885c0.86,0.247,0.905,0.333,0.332,0.724c-1.324,0.908-2.653,1.817-3.982,2.723
		C361.56,314.281,361.6,314.305,361.644,314.33z"/>
	<path fill-rule="evenodd" clip-rule="evenodd" fill="#FFFFFF" d="M306.986,208.316c-1.723,1.17-4.278,1.118-6.364-0.132
		c-2.131-1.276-2.545-3.153-0.938-4.261c1.576-1.087,4.495-0.931,6.632,0.355C308.479,205.577,308.731,207.124,306.986,208.316z"/>
	<path fill-rule="evenodd" clip-rule="evenodd" fill="#FFFFFF" d="M467.785,304.826c-0.012,0.008-0.028,0.018-0.039,0.027
		c-1.129,0.745-2.433,1.253-4.39,0.706c-1.989-0.56-3.448-1.826-3.64-3.125c-0.184-1.209,0.542-2.06,2.188-2.474
		c1.657-0.417,3.344-0.166,4.97,0.661c0.144,0.073,0.272,0.158,0.409,0.238c2.122,1.278,2.404,2.573,0.811,3.748
		c-0.099,0.075-0.206,0.145-0.312,0.219L467.785,304.826z"/>
	<path fill-rule="evenodd" clip-rule="evenodd" fill="#FFFFFF" d="M384.985,276.256c0.332,0.157,0.586,0.279,0.93,0.443
		c-0.366,0.334-0.71,0.67-1.095,0.984c-3.34,2.739-6.684,5.476-10.041,8.208c-1.643,1.337-3.366,2.631-4.946,3.997
		c-0.587,0.504-0.881,1.159-1.304,1.747c-0.087,0.122-0.158,0.249-0.297,0.464c-0.442-1.003-0.492-1.869-0.244-2.709
		c0.34-1.153,1.187-2.127,2.368-2.925c2.674-1.801,5.412-3.564,8.187-5.303c2.152-1.347,4.227-2.726,5.825-4.378
		C384.54,276.607,384.756,276.45,384.985,276.256z"/>
	<path fill-rule="evenodd" clip-rule="evenodd" fill="#FFFFFF" d="M344.652,249.112c-1.288-0.644-2.555-1.304-3.862-1.927
		c-2.619-1.25-5.191-2.556-7.909-3.695c-3.236-1.357-6.667-1.985-10.14-1.562c-2.669,0.327-4.667,1.26-6.289,2.508
		c-0.337,0.262-0.651,0.536-1.079,0.888c0.063-0.907,0.472-1.597,1.173-2.172c2.913-2.387,6.989-3.078,12.208-2.066
		c4.763,0.923,8.73,2.765,12.219,5.143c1.317,0.901,2.548,1.856,3.817,2.787C344.744,249.047,344.698,249.08,344.652,249.112z"/>
	<path fill-rule="evenodd" clip-rule="evenodd" fill="#FFFFFF" d="M387.458,218.132c0.351,1.425,0.142,2.744-0.617,3.966
		c-0.817,1.321-2.213,2.339-3.838,3.252c-3.807,2.137-7.565,4.309-11.354,6.459c-0.793,0.449-1.613,0.877-2.449,1.296
		c-0.28,0.141-0.639,0.222-0.964,0.331c-0.047-0.035-0.098-0.069-0.145-0.103c0.322-0.224,0.648-0.449,0.978-0.67
		c4.554-3.073,9.122-6.137,13.659-9.221c1.923-1.306,3.525-2.768,4.395-4.555C387.24,218.637,387.343,218.382,387.458,218.132z"/>
	<path fill-rule="evenodd" clip-rule="evenodd" fill="#FFFFFF" d="M361.276,213.419c-1.642-2.925-0.24-5.706,4.558-7.161
		c3.279-0.995,9.16-0.084,11.603,1.845c-0.37-0.094-0.648-0.165-0.929-0.235c-3.61-0.899-7.021-1.071-10.027,0.042
		c-2.128,0.788-3.422,2.038-4.261,3.509C361.855,212.065,361.593,212.743,361.276,213.419z"/>
	<path fill-rule="evenodd" clip-rule="evenodd" fill="#FFFFFF" d="M451.931,256.5c0.865,0.711,1.264,1.396,1.331,2.125
		c0.175,2.026-2.525,4.248-5.562,4.569c-1.318,0.14-2.666,0-4.202-0.332c0.474-0.167,0.846-0.285,1.193-0.425
		c1.338-0.543,2.764-1.026,3.977-1.661c1.231-0.641,1.705-1.664,2.274-2.615C451.263,257.626,451.577,257.09,451.931,256.5z"/>
	<path fill-rule="evenodd" clip-rule="evenodd" fill="#FFFFFF" d="M448.489,265.008c0.283-0.088,0.497-0.144,0.688-0.219
		c1.499-0.574,3.099-1.074,4.472-1.745c2.686-1.316,3.382-3.281,2.802-5.596c-0.143-0.563-0.327-1.126-0.506-1.728
		c2.401,1.607,2.98,4.529,1.401,6.553C455.526,264.597,451.918,265.499,448.489,265.008z"/>
	<path fill-rule="evenodd" clip-rule="evenodd" fill="#FFFFFF" d="M325.159,259.235c-0.86-0.025-1.737-0.094-2.58-0.064
		c-1.154,0.042-2.34,0.075-3.414,0.259c-2.39,0.407-3.37,1.621-3.745,3.105c-0.196,0.785-0.26,1.596-0.381,2.385
		c-1.968-1.826-1.588-4.382,0.876-5.786C318.223,257.822,322.453,257.869,325.159,259.235z"/>
	<path fill-rule="evenodd" clip-rule="evenodd" fill="#FFFFFF" d="M447.996,286.59c-0.553,4.351-7.075,6.711-14.669,4.419
		c3.227,0.145,6.154-0.033,8.77-0.813C444.709,289.417,446.59,288.161,447.996,286.59z"/>
	<path fill-rule="evenodd" clip-rule="evenodd" fill="#FFFFFF" d="M393.095,299.88c-2.884-0.924-4.775-2.362-5.604-4.28
		c-0.938-2.167-0.242-3.95,1.913-5.35c0.063,0.015,0.124,0.028,0.188,0.042c-0.099,0.373-0.202,0.744-0.294,1.117
		c-0.15,0.6-0.306,1.199-0.428,1.804c-0.299,1.46,0.447,2.857,1.851,4.206c0.834,0.8,1.675,1.597,2.51,2.396
		C393.183,299.835,393.14,299.858,393.095,299.88z"/>
	<path fill-rule="evenodd" clip-rule="evenodd" fill="#FFFFFF" d="M311.087,284.608c-0.163-0.146-0.26-0.226-0.346-0.312
		c-0.706-0.698-1.411-1.396-2.105-2.097c-0.355-0.359-0.296-0.466,0.31-0.489c0.954-0.038,1.915-0.055,2.873-0.084
		c0.444-0.013,0.792,0.095,1.063,0.365c0.719,0.725,1.458,1.445,2.173,2.171c0.327,0.332,0.25,0.45-0.302,0.471
		c-0.972,0.036-1.951,0.068-2.937,0.08C311.567,284.716,311.288,284.639,311.087,284.608z"/>
	<path fill-rule="evenodd" clip-rule="evenodd" fill="#FFFFFF" d="M365.09,214.809c-0.778-1.769-0.425-3.262,1.54-4.314
		c1.815-0.972,4.116-1.036,6.677-0.542C369.173,210.649,366.209,212.108,365.09,214.809z"/>
	<path fill-rule="evenodd" clip-rule="evenodd" fill="#FFFFFF" d="M441.456,287.336c-3.11,2.744-8.546,2.278-12.868-0.539
		c2.319,0.581,4.483,1.033,6.69,1.15C437.502,288.065,439.549,287.845,441.456,287.336z"/>
	<path fill-rule="evenodd" clip-rule="evenodd" fill="#FFFFFF" d="M328.289,248.948c0.732,1.832-0.415,3.273-2.917,3.829
		c-2.65,0.59-5.39,0.085-7.229-1.38c0.443,0.076,0.808,0.156,1.177,0.196c1.232,0.131,2.487,0.329,3.698,0.353
		c2.856,0.056,4.411-0.924,5.078-2.536C328.146,249.288,328.197,249.169,328.289,248.948z"/>
	<path fill-rule="evenodd" clip-rule="evenodd" fill="#FFFFFF" d="M382.797,294.533c2.286,3.928-0.474,5.917-5.649,5.942
		c1.317-0.745,2.858-1.438,4.039-2.328C382.415,297.223,382.341,295.839,382.797,294.533z"/>
	<path fill-rule="evenodd" clip-rule="evenodd" fill="#FFFFFF" d="M329.259,221.487c0.256,2.049,0.502,4.009,0.756,6.035
		C327.303,225.023,327.217,222.763,329.259,221.487z"/>
	<path fill-rule="evenodd" clip-rule="evenodd" fill="#FFFFFF" d="M367.613,196.565c0.288,1.132,0.565,2.214,0.841,3.298
		c-0.041,0.009-0.083,0.019-0.126,0.028c-1.478-1.071-2.956-2.142-4.537-3.289C365.208,196.59,366.51,196.576,367.613,196.565z"/>
	<path fill-rule="evenodd" clip-rule="evenodd" fill="#FFFFFF" d="M372.059,296.381c2.258-0.174,4.334-0.336,6.409-0.495
		c0.118-0.008,0.239-0.013,0.516-0.028c-0.847,0.834-1.602,1.604-3.21,1.773c-0.824,0.087-1.607-0.151-2.33-0.492
		C373.001,296.933,372.611,296.686,372.059,296.381z"/>
	<path fill-rule="evenodd" clip-rule="evenodd" fill="#FFFFFF" d="M314.951,252.906c2.944,0.738,5.791,1.452,8.68,2.179
		C321.123,255.715,316.254,254.708,314.951,252.906z"/>
	<path fill-rule="evenodd" clip-rule="evenodd" fill="#FFFFFF" d="M470.328,260.583c1.509-0.064,2.877-0.122,4.33-0.184
		c-0.022,0.98-0.041,1.911-0.059,2.948C473.133,262.398,471.787,261.526,470.328,260.583z"/>
	<path fill-rule="evenodd" clip-rule="evenodd" fill="#FFFFFF" d="M353.857,233.889c-0.771-3.644-1.539-7.248-2.301-10.85
		c0.083-0.014,0.17-0.029,0.255-0.044c0.095,0.094,0.244,0.188,0.27,0.284c0.088,0.297,0.126,0.593,0.183,0.892
		c0.604,3.105,1.203,6.212,1.796,9.318C354.092,233.66,354.322,233.944,353.857,233.889z"/>
</g>
</svg>
