<?xml version="1.0" encoding="utf-8"?>
<!-- Generator: Adobe Illustrator 16.0.3, SVG Export Plug-In . SVG Version: 6.00 Build 0)  -->
<!DOCTYPE svg PUBLIC "-//W3C//DTD SVG 1.1//EN" "http://www.w3.org/Graphics/SVG/1.1/DTD/svg11.dtd">
<svg version="1.1" id="Capa_1" xmlns="http://www.w3.org/2000/svg" xmlns:xlink="http://www.w3.org/1999/xlink" x="0px" y="0px"
	 width="612px" height="792px" viewBox="0 0 612 792" enable-background="new 0 0 612 792" xml:space="preserve">
<g>
	<path fill="#FFFFFF" d="M35.127,449.008c-1.559-0.589-3.586,0.061-5.397,0.137c0.229,1.814-0.09,3.963,0.778,5.388
		c5.09,8.344,12.338,14.307,21.404,17.919c1.628,0.647,3.639,0.334,6.509,0.539c-0.765-2.711-0.883-4.691-1.811-6.162
		C51.408,458.576,44.286,452.47,35.127,449.008z"/>
	<path fill="#FFFFFF" d="M419.726,528.952c-0.175,1.073,2.472,3.64,3.888,3.667c1.684,0.035,3.407-1.938,6.782-4.119
		c-3.413-2.101-5.323-4.203-6.813-3.937C421.994,524.844,420.004,527.233,419.726,528.952z"/>
	<path fill="#FFFFFF" d="M568.087,512.621c3.594,0.281,5.034-0.945,5.871-4.197c2.787-10.833-1.438-19.786-12.172-23.11
		c-35.626-11.029-70.229-6.541-104.256,8.103c7.4,4.559,12.352,12.171,22.076,12.762
		C509.123,507.969,538.607,510.309,568.087,512.621z"/>
	<path fill="#FFFFFF" d="M565.077,557.149c-26.778,0.269-53.585,0.795-80.332-0.179c-12.102-0.44-21.011,4.356-31.354,11.942
		c8.455,3.514,15.446,6.827,22.708,9.363c26.396,9.215,53.348,12.244,80.891,5.975c11.297-2.57,16.082-9.619,15.178-20.566
		C571.771,558.906,570.229,557.097,565.077,557.149z"/>
	<g>
		<path fill="#FFFFFF" d="M388.904,249.847c0.6,0.063,1.202,0.115,1.803,0.167c0.059,0.005,0.153-0.008,0.176-0.045
			c0.152-0.262,0.29-0.533,0.448-0.828c-0.095-0.015-0.145-0.026-0.195-0.031c-0.453-0.045-0.906-0.09-1.36-0.131
			c-0.122-0.011-0.162-0.051-0.1-0.167c0.173-0.33,0.34-0.663,0.519-0.99c0.03-0.053,0.107-0.118,0.159-0.115
			c0.317,0.017,0.634,0.051,0.964,0.081c-0.028,0.197-0.111,0.268-0.275,0.231c-0.138-0.031-0.281-0.043-0.415-0.088
			c-0.141-0.046-0.209,0.004-0.266,0.124c-0.09,0.187-0.186,0.371-0.283,0.552c-0.063,0.111-0.043,0.172,0.088,0.2
			c0.329,0.072,0.655,0.162,0.987,0.223c0.322,0.06,0.644-0.004,0.828-0.282c0.249-0.377,0.46-0.783,0.645-1.196
			c0.109-0.242-0.021-0.471-0.256-0.565c-0.097-0.039-0.203-0.064-0.308-0.075c-0.542-0.056-1.085-0.103-1.627-0.158
			c-0.538-0.054-0.956,0.142-1.22,0.613c-0.288,0.517-0.564,1.041-0.822,1.573C388.16,249.42,388.375,249.791,388.904,249.847z"/>
		<path fill="#FFFFFF" d="M385.814,248.94c-0.175,0.5,0.064,0.835,0.593,0.835c0.372,0,0.745-0.007,1.116-0.025
			c0.075-0.004,0.185-0.055,0.213-0.115c0.111-0.241,0.198-0.493,0.291-0.742c0.031-0.086-0.001-0.138-0.1-0.137
			c-0.095,0.001-0.189,0.003-0.284,0.003c-0.174,0-0.348,0-0.559,0c0.156-0.407,0.295-0.782,0.447-1.151
			c0.019-0.043,0.117-0.07,0.181-0.074c0.188-0.012,0.378-0.011,0.566-0.01c0.122,0,0.201-0.052,0.245-0.166
			c0.083-0.222,0.167-0.442,0.255-0.662c0.054-0.137,0.007-0.182-0.134-0.177c-0.224,0.007-0.448,0.002-0.704,0.002
			c0.091-0.237,0.176-0.455,0.257-0.674c0.062-0.166,0.036-0.207-0.135-0.206c-0.278,0.002-0.557,0-0.832,0.025
			c-0.08,0.007-0.184,0.084-0.221,0.158c-0.095,0.183-0.163,0.38-0.229,0.576c-0.04,0.121-0.102,0.174-0.23,0.157
			c-0.174-0.024-0.274,0.058-0.328,0.224c-0.056,0.174-0.129,0.343-0.193,0.515c-0.095,0.255-0.092,0.257,0.187,0.261
			c0.028,0,0.056,0.007,0.106,0.016c-0.025,0.076-0.046,0.141-0.069,0.205C386.107,248.167,385.951,248.549,385.814,248.94z"/>
		<path fill="#FFFFFF" d="M382.359,250.134c0.246-0.034,0.492-0.073,0.739-0.092c0.177-0.015,0.258-0.097,0.3-0.265
			c0.164-0.642,0.338-1.281,0.512-1.92c0.015-0.054,0.036-0.138,0.074-0.15c0.168-0.056,0.344-0.091,0.557-0.145
			c-0.068,0.272-0.121,0.488-0.177,0.704c-0.028,0.11,0.009,0.16,0.123,0.146c0.3-0.037,0.601-0.066,0.897-0.117
			c0.064-0.011,0.148-0.089,0.167-0.152c0.093-0.312,0.188-0.625,0.239-0.945c0.086-0.531-0.221-0.812-0.743-0.686
			c-0.28,0.067-0.549,0.18-0.787,0.26c-0.092-0.04-0.154-0.093-0.214-0.088c-0.271,0.021-0.543,0.046-0.81,0.099
			c-0.084,0.017-0.198,0.107-0.22,0.186c-0.277,0.997-0.539,1.998-0.808,2.997C382.172,250.108,382.221,250.154,382.359,250.134z"/>
		<path fill="#FFFFFF" d="M389.554,271.004c-0.924-0.166-1.669,0.422-1.857,1.477C388.626,272.536,389.585,271.769,389.554,271.004z
			"/>
		<path fill="#FFFFFF" d="M378.525,251.035c0.176-0.039,0.271-0.132,0.342-0.293c0.415-0.954,0.838-1.904,1.26-2.855
			c0.014-0.032,0.038-0.059,0.073-0.112c0.087,0.325,0.164,0.619,0.245,0.926c-0.112,0.031-0.201,0.064-0.293,0.08
			c-0.144,0.023-0.229,0.104-0.283,0.236c-0.102,0.246-0.213,0.487-0.317,0.732c-0.025,0.062-0.038,0.129-0.073,0.25
			c0.431-0.107,0.814-0.204,1.221-0.305c0.054,0.205,0.101,0.381,0.146,0.558c0.029,0.113,0.091,0.153,0.21,0.121
			c0.302-0.083,0.606-0.157,0.909-0.236c0.146-0.038,0.198-0.122,0.153-0.278c-0.365-1.297-0.727-2.596-1.09-3.893
			c-0.057-0.202-0.09-0.219-0.29-0.167c-0.252,0.065-0.501,0.139-0.755,0.195c-0.178,0.039-0.288,0.134-0.363,0.3
			c-0.317,0.7-0.644,1.396-0.967,2.093c-0.42,0.907-0.842,1.813-1.259,2.72c-0.025,0.055-0.021,0.122-0.03,0.184
			c0.061,0,0.125,0.012,0.183-0.003C377.873,251.204,378.197,251.108,378.525,251.035z"/>
		<path fill="#FFFFFF" d="M393.323,249.319c0.282,0.064,0.566,0.122,0.848,0.191c0.058,0.014,0.105,0.068,0.157,0.104
			c-0.07,0.036-0.139,0.081-0.213,0.106c-0.033,0.011-0.079-0.015-0.12-0.023c-0.479-0.109-0.957-0.215-1.436-0.327
			c-0.146-0.034-0.249,0.004-0.331,0.132c-0.104,0.165-0.222,0.321-0.33,0.483c-0.095,0.141-0.08,0.179,0.083,0.216
			c0.635,0.144,1.269,0.284,1.903,0.428c0.778,0.177,1.335-0.192,1.688-1.006c0.179-0.412-0.033-0.755-0.468-0.86
			c-0.218-0.053-0.438-0.097-0.656-0.148c-0.136-0.032-0.269-0.068-0.407-0.104c0.048-0.161,0.146-0.148,0.25-0.125
			c0.484,0.11,0.969,0.217,1.452,0.331c0.146,0.034,0.25,0.003,0.333-0.127c0.101-0.159,0.215-0.312,0.32-0.469
			c0.111-0.164,0.098-0.198-0.101-0.242c-0.561-0.126-1.122-0.243-1.679-0.377c-0.747-0.18-1.267-0.041-1.753,0.797
			C392.589,248.772,392.791,249.198,393.323,249.319z"/>
		<path fill="#FFFFFF" d="M504.381,428.469c-11.341,0-22.274,0-33.502,0c-4.462-34.206-8.879-67.807-13.136-101.431
			c-0.215-1.701,0.446-4.007,1.552-5.302c7.529-8.813,14.75-17.645,10.91-30.958c4.433,0,7.738,0,11.76,0
			c0,7.44-0.087,14.515,0.024,21.588c0.12,7.625,4.389,12.411,10.998,12.599c6.952,0.199,11.699-4.511,11.765-12.503
			c0.171-20.54,0.183-41.084-0.002-61.625c-0.067-7.632-4.669-12.241-11.332-12.305c-6.819-0.066-11.303,4.902-11.425,12.852
			c-0.093,6.207-0.018,12.417-0.018,18.744c-4.125,0-7.415,0-10.928,0c-0.121-1.565-0.44-2.661-0.246-3.657
			c1.277-6.557-2.242-8.943-7.979-10.576c-9.545-2.714-18.912-6.074-28.276-9.384c-2.126-0.751-4.346-2.043-5.81-3.712
			c-6.719-7.663-15.243-11.851-25.027-13.896c-1.915-0.4-3.802-0.931-6.229-1.532c2.266-3.065,5.104-5.139,5.2-7.333
			c0.477-10.788,0.492-21.623-0.075-32.401c-0.08-1.53-4.189-3.829-6.534-3.957c-1.996-0.11-6.021,2.546-5.926,3.714
			c1.082,13.221-4.435,27.124,3.513,39.3c-36.688,5.866-73.432,12.623-110.434,17.39c-32.527,4.193-65.319,6.437-98.042,8.923
			c-8.625,0.656-17.425-0.975-27.895-1.672c2.002-7.134,3.56-12.685,5.165-18.399c-4.74,0-9.15,0-15.171,0
			c1.676,2.574,2.484,4.255,3.689,5.576c2.59,2.841,2.268,12.113-0.882,13.578c-8.394,3.906-11.06,10.626-11.02,19.445
			c0.165,36.542,0.066,73.085,0.094,109.628c0.001,2.061,0.27,4.122,0.428,6.398c4.597,0.248,8.573,0.462,12.459,0.671
			c0.509,9.814,0.979,18.897,1.45,27.979c2.744-4.278,4.555-8.488,5.106-12.856c0.632-5.014,0.147-10.169,0.147-15.472
			c9.429,0,17.891-0.499,26.262,0.163c6.31,0.498,9.03-2.098,11.421-7.508c8.822-19.954,18.02-39.743,27.385-59.448
			c1.064-2.241,3.948-4.872,6.209-5.096c22.781-2.257,45.581-5.011,68.43-5.635c15.403-0.42,31.122,1.14,46.282,4.02
			c16.572,3.15,20.007,9.929,17.349,26.46c-4.747,29.528-16.217,56.778-28.185,83.886c-1.563,3.54-3.888,3.904-7.152,3.856
			c-50.433-0.738-100.863-1.704-151.298-1.935c-21.631-0.1-43.269,1.361-64.903,2.149c-0.338,0.01-0.661,0.492-0.994,0.759
			c-0.002,2.944-0.002,5.885-0.002,9.142c131.756,0,263.121,0,394.826,0C504.381,435.283,504.381,432.2,504.381,428.469z
			 M416.665,277.388c0,0.006,0,0.012,0,0.018c-0.008,0.499-0.112,0.951-0.629,1.17c-0.524,0.223-1.144,0.085-1.535-0.33
			c-0.365-0.385-0.463-0.836-0.269-1.327c0.196-0.495,0.581-0.762,1.11-0.813c0.048-0.005,0.095-0.003,0.143-0.003
			c0.747,0.002,1.154,0.396,1.179,1.144C416.665,277.293,416.664,277.34,416.665,277.388
			C416.664,277.388,416.664,277.388,416.665,277.388z M416.438,267.657c-1.231-0.398-2.464-0.796-3.694-1.198
			c-0.537-0.175-0.79-0.071-1.058,0.433c-0.509,0.961-1.022,1.921-1.534,2.882c-0.033,0.062-0.07,0.123-0.126,0.222
			c-1.379-2.506-2.744-4.988-4.109-7.47c0.348-0.242,0.725-0.206,1.015,0.121c0.36,0.407,0.699,0.834,1.055,1.247
			c0.168,0.196,0.353,0.378,0.53,0.566c0.016-0.014,0.032-0.028,0.048-0.042c-0.221-0.431-0.439-0.862-0.66-1.293
			c-0.066-0.131-0.145-0.259-0.194-0.397c-0.131-0.371-0.037-0.642,0.291-0.858c0.106-0.071,0.226-0.124,0.348-0.19
			c0.357,0.42,0.705,0.829,1.054,1.238c0.016,0.018,0.027,0.044,0.047,0.052c0.05,0.023,0.104,0.039,0.156,0.057
			c0-0.051,0.019-0.111-0.002-0.152c-0.192-0.38-0.391-0.756-0.588-1.134c-0.098-0.188-0.195-0.377-0.3-0.579
			c0.313-0.226,0.625-0.45,0.951-0.685c0.042,0.054,0.082,0.102,0.119,0.153c0.344,0.474,0.687,0.95,1.029,1.423
			c0.047,0.064,0.09,0.159,0.189,0.042c-0.303-0.608-0.603-1.219-0.912-1.824c-0.067-0.132-0.065-0.21,0.062-0.306
			c0.236-0.176,0.457-0.373,0.7-0.574c0.489,0.587,0.957,1.18,1.441,1.757c0.018-0.014,0.035-0.028,0.054-0.043
			c0.001-0.015,0.01-0.035,0.004-0.047c-0.262-0.497-0.508-1.004-0.791-1.488c-0.297-0.509-0.233-0.739,0.342-0.962
			c1.992,2.792,3.592,5.788,4.684,9.08C416.522,267.675,416.479,267.67,416.438,267.657z M409.308,295.886
			c-0.048,0.024-0.108,0.039-0.142,0.075c-0.252,0.275-0.495,0.558-0.746,0.833c-0.417,0.458-0.962,0.43-1.285-0.099
			c-0.167-0.271-0.281-0.586-0.362-0.897c-0.108-0.415,0.02-0.808,0.29-1.129c0.537-0.638,1.097-1.258,1.647-1.884
			c0.084-0.096,0.155-0.067,0.206,0.034c0.122,0.243,0.238,0.489,0.362,0.732c0.072,0.143,0.014,0.246-0.08,0.35
			c-0.396,0.441-0.786,0.885-1.18,1.326c-0.089,0.099-0.153,0.198-0.01,0.348c0.167-0.186,0.32-0.356,0.473-0.528
			c0.146-0.163,0.286-0.332,0.439-0.488c0.317-0.324,0.763-0.343,1.068-0.006c0.476,0.522,0.888,1.508,0.195,2.304
			c-0.539,0.622-1.088,1.234-1.631,1.852c-0.086,0.097-0.16,0.094-0.22-0.022c-0.123-0.243-0.244-0.486-0.363-0.731
			c-0.063-0.129-0.02-0.237,0.072-0.339c0.407-0.454,0.811-0.91,1.215-1.367c0.042-0.048,0.1-0.102,0.106-0.158
			C409.37,296.025,409.328,295.955,409.308,295.886z M405.095,300.232c0.064-0.022,0.143-0.028,0.189-0.069
			c0.149-0.13,0.287-0.274,0.453-0.436c0.037,0.079,0.066,0.126,0.083,0.178c0.073,0.226,0.14,0.452,0.214,0.677
			c0.046,0.142,0.028,0.263-0.077,0.375c-0.208,0.22-0.404,0.45-0.613,0.666c-0.095,0.096-0.205,0.182-0.321,0.249
			c-0.283,0.164-0.607,0.103-0.755-0.185c-0.268-0.523-0.466-1.076-0.436-1.679c0.019-0.368,0.223-0.643,0.494-0.871
			c0.376-0.315,0.759-0.624,1.143-0.931c0.097-0.078,0.144-0.153,0.036-0.292c-0.093,0.072-0.177,0.135-0.259,0.201
			c-0.39,0.317-0.779,0.636-1.17,0.953c-0.152,0.124-0.173,0.116-0.231-0.076c-0.073-0.238-0.139-0.478-0.222-0.712
			c-0.053-0.151-0.022-0.252,0.104-0.353c0.555-0.444,1.103-0.896,1.654-1.343c0.488-0.395,0.993-0.252,1.195,0.346
			c0.146,0.432,0.271,0.87,0.404,1.306c0.137,0.441,0.267,0.883,0.411,1.321c0.059,0.176,0.038,0.298-0.118,0.414
			c-0.238,0.175-0.461,0.371-0.69,0.558c-0.183,0.148-0.2,0.143-0.267-0.076c-0.102-0.334-0.203-0.668-0.306-1.002
			c-0.019-0.06-0.042-0.119-0.073-0.207c-0.3,0.247-0.587,0.47-0.854,0.717C405.04,300,405.089,300.139,405.095,300.232z
			 M401.51,302.453c0.006,0.051,0.023,0.1,0.043,0.184c0.467-0.265,0.902-0.514,1.339-0.762c0.092-0.052,0.186-0.104,0.277-0.159
			c0.111-0.066,0.186-0.034,0.203,0.09c0.044,0.304,0.091,0.609,0.111,0.915c0.005,0.08-0.063,0.201-0.132,0.242
			c-0.726,0.424-1.453,0.843-2.189,1.247c-0.363,0.199-0.705,0.052-0.794-0.352c-0.094-0.42-0.139-0.851-0.197-1.279
			c-0.061-0.433-0.12-0.867-0.163-1.302c-0.051-0.513,0.169-0.893,0.612-1.147c0.714-0.408,1.428-0.815,2.143-1.221
			c0.162-0.092,0.208-0.069,0.233,0.11c0.038,0.275,0.07,0.552,0.109,0.827c0.021,0.147-0.032,0.245-0.164,0.319
			c-0.476,0.266-0.943,0.543-1.421,0.804c-0.149,0.082-0.196,0.175-0.169,0.341C401.413,301.69,401.457,302.073,401.51,302.453z
			 M397.769,297.687c-2.119,1.223-4.392,2.074-6.812,2.45c-6.794,1.056-12.852-0.613-18.129-5.028
			c-2.133-1.783-3.884-3.897-5.202-6.349c-0.428-0.794-0.754-1.643-1.127-2.466c-0.009-0.021-0.012-0.043,0.007-0.079
			c0.031,0.05,0.063,0.1,0.093,0.151c1.473,2.534,3.179,4.89,5.28,6.948c2.489,2.438,5.357,4.252,8.708,5.266
			c1.748,0.529,3.538,0.81,5.363,0.878c1.979,0.073,3.938-0.077,5.879-0.465c4.674-0.935,8.565-3.225,11.73-6.773
			c1.659-1.862,3.019-3.931,4.155-6.146c0.417-0.81,0.787-1.644,1.179-2.466c0.024-0.05,0.049-0.1,0.073-0.15
			c0.013,0.005,0.026,0.011,0.04,0.016c-0.139,0.457-0.262,0.919-0.421,1.37C406.592,290.48,402.92,294.713,397.769,297.687z
			 M397.367,301.941c0.189-0.055,0.229-0.023,0.214,0.167c-0.024,0.277-0.053,0.554-0.076,0.831
			c-0.013,0.141-0.079,0.229-0.219,0.266c-0.119,0.032-0.235,0.085-0.356,0.106c-0.158,0.027-0.208,0.111-0.22,0.264
			c-0.059,0.761-0.128,1.521-0.193,2.282c-0.029,0.346-0.033,0.352-0.361,0.453c-0.271,0.083-0.544,0.165-0.814,0.248
			c-0.189,0.058-0.226,0.032-0.209-0.163c0.067-0.796,0.138-1.592,0.207-2.387c0.005-0.058,0.008-0.117,0.014-0.204
			c-0.133,0.038-0.242,0.066-0.349,0.098c-0.107,0.033-0.165-0.003-0.157-0.116c0.024-0.318,0.051-0.637,0.082-0.955
			c0.015-0.143,0.127-0.198,0.248-0.215c0.219-0.031,0.304-0.145,0.309-0.365c0.007-0.266,0.048-0.53,0.076-0.794
			c0.067-0.644,0.403-1.071,1.027-1.262c0.453-0.139,0.904-0.279,1.356-0.417c0.039-0.012,0.102-0.031,0.118-0.014
			c0.126,0.132,0.234,0.025,0.345-0.019c0.241-0.097,0.479-0.202,0.721-0.298c0.166-0.066,0.204-0.04,0.207,0.133
			c0.004,0.266,0.001,0.533,0.008,0.799c0.004,0.144-0.054,0.233-0.188,0.287c-0.313,0.126-0.623,0.256-0.933,0.39
			c-0.117,0.051-0.196,0.042-0.218-0.106c-0.322,0.1-0.64,0.193-0.951,0.298c-0.057,0.019-0.129,0.083-0.138,0.137
			c-0.037,0.226-0.054,0.455-0.081,0.716C397.032,302.041,397.199,301.989,397.367,301.941z M398.282,301.405
			c0.276-0.104,0.547-0.225,0.819-0.338c0.229-0.096,0.261-0.074,0.261,0.182c0.001,0.597,0,1.195,0,1.792c0.015,0,0.03,0,0.045,0
			c0,0.609-0.003,1.218,0.002,1.827c0,0.134-0.042,0.229-0.168,0.282c-0.327,0.137-0.655,0.272-0.981,0.411
			c-0.14,0.059-0.187-0.005-0.188-0.133c-0.006-0.408-0.013-0.816-0.018-1.224c-0.011-0.804-0.015-1.609-0.032-2.413
			C398.017,301.587,398.095,301.475,398.282,301.405z M391.553,305.967c-0.135,0.024-0.15,0.146-0.133,0.251
			c0.004,0.026,0.126,0.056,0.188,0.045c0.157-0.029,0.311-0.075,0.464-0.121c0.12-0.037,0.174-0.007,0.144,0.124
			c-0.061,0.265-0.115,0.532-0.189,0.793c-0.021,0.075-0.091,0.17-0.159,0.192c-0.387,0.129-0.773,0.268-1.173,0.346
			c-0.486,0.095-0.798-0.2-0.729-0.688c0.057-0.396,0.155-0.79,0.281-1.17c0.175-0.526,0.59-0.776,1.121-0.858
			c0.455-0.07,0.911-0.144,1.366-0.216c0.029-0.005,0.071,0,0.086-0.018c0.044-0.054,0.078-0.115,0.116-0.175
			c-0.051-0.013-0.105-0.045-0.155-0.038c-0.537,0.083-1.074,0.171-1.612,0.258c-0.263,0.042-0.271,0.032-0.211-0.223
			c0.058-0.242,0.102-0.487,0.177-0.724c0.023-0.077,0.117-0.174,0.192-0.188c0.751-0.132,1.504-0.26,2.26-0.367
			c0.478-0.068,0.807,0.229,0.771,0.711c-0.027,0.345-0.123,0.685-0.197,1.025c-0.14,0.629-0.294,1.256-0.43,1.887
			c-0.037,0.174-0.122,0.249-0.294,0.27c-0.299,0.037-0.596,0.094-0.894,0.14c-0.219,0.034-0.232,0.019-0.184-0.192
			c0.083-0.363,0.169-0.725,0.253-1.088c0.008-0.039,0.008-0.08,0.016-0.152C392.251,305.853,391.9,305.904,391.553,305.967z
			 M388.004,305.107c-0.047,0.011-0.084,0.105-0.106,0.169c-0.269,0.732-0.539,1.465-0.796,2.202
			c-0.073,0.208-0.178,0.308-0.409,0.3c-0.283-0.01-0.567,0.016-0.852,0.025c-0.207,0.008-0.238-0.031-0.169-0.22
			c0.379-1.039,0.756-2.078,1.14-3.114c0.209-0.566,0.086-0.516,0.758-0.542c0.201-0.008,0.402-0.014,0.604-0.021
			c0.157-0.005,0.174,0.01,0.187,0.166c0.282-0.076,0.563-0.163,0.85-0.227c0.141-0.032,0.293-0.037,0.439-0.029
			c0.384,0.022,0.581,0.233,0.58,0.619c0,0.116-0.016,0.238-0.051,0.348c-0.111,0.336-0.236,0.669-0.354,1.003
			c-0.041,0.115-0.116,0.171-0.238,0.175c-0.361,0.012-0.722,0.028-1.082,0.04c-0.129,0.005-0.148-0.07-0.112-0.175
			c0.068-0.195,0.14-0.39,0.208-0.585c0.021-0.06,0.036-0.122,0.074-0.247C388.417,305.034,388.208,305.058,388.004,305.107z
			 M377.024,303.334c-0.038-0.01-0.101,0.048-0.143,0.087c-0.575,0.545-1.149,1.092-1.723,1.638
			c-0.208,0.198-0.237,0.205-0.498,0.086c-0.265-0.12-0.529-0.237-0.792-0.359c-0.162-0.076-0.173-0.132-0.043-0.257
			c0.887-0.845,1.776-1.688,2.663-2.532c0.103-0.097,0.211-0.119,0.34-0.06c0.284,0.132,0.57,0.261,0.856,0.39
			c0.113,0.051,0.241,0.094,0.114,0.241c0.31,0.061,0.605,0.114,0.898,0.181c0.113,0.026,0.225,0.074,0.328,0.13
			c0.41,0.224,0.521,0.576,0.232,0.943c-0.279,0.355-0.626,0.658-0.956,0.97c-0.047,0.043-0.177,0.039-0.247,0.01
			c-0.322-0.133-0.638-0.284-0.956-0.427c-0.124-0.056-0.146-0.127-0.042-0.226c0.153-0.147,0.306-0.296,0.458-0.445
			c0.041-0.041,0.078-0.085,0.153-0.168C377.433,303.459,377.23,303.388,377.024,303.334z M372.975,301.152
			c-0.049-0.031-0.157-0.016-0.212,0.019c-0.385,0.244-0.762,0.499-1.142,0.75c-0.135,0.088-0.085,0.152,0.019,0.223
			c0.445,0.302,0.888,0.607,1.331,0.913c0.056,0.039,0.105,0.085,0.171,0.139c-0.051,0.046-0.08,0.082-0.118,0.107
			c-0.23,0.155-0.464,0.306-0.694,0.462c-0.105,0.073-0.201,0.077-0.309,0.002c-0.618-0.427-1.241-0.846-1.855-1.278
			c-0.399-0.282-0.422-0.766-0.055-1.09c0.142-0.125,0.306-0.224,0.463-0.329c0.423-0.282,0.849-0.561,1.271-0.842
			c0.608-0.403,1.208-0.42,1.814,0.015c0.505,0.361,1.023,0.703,1.535,1.055c0.067,0.046,0.135,0.097,0.194,0.154
			c0.3,0.284,0.319,0.654-0.007,0.905c-0.377,0.291-0.781,0.554-1.2,0.78c-0.381,0.206-0.78,0.138-1.115-0.135
			c-0.324-0.265-0.626-0.558-0.939-0.837c-0.101-0.089-0.076-0.153,0.027-0.22c0.224-0.144,0.446-0.292,0.664-0.444
			c0.109-0.076,0.192-0.083,0.293,0.02c0.129,0.131,0.271,0.248,0.413,0.363c0.165,0.132,0.255,0.112,0.403-0.092
			C373.61,301.578,373.297,301.357,372.975,301.152z M369.706,272.705c-0.207,0.133-0.427,0.251-0.621,0.401
			c-0.43,0.332-0.876,0.65-1.265,1.026c-0.928,0.902-1.121,1.997-0.755,3.216c0.226,0.753,0.572,1.45,0.952,2.133
			c0.043,0.077,0.086,0.153,0.156,0.278c-0.159-0.045-0.276-0.068-0.387-0.112c-0.762-0.303-1.273-0.867-1.551-1.615
			c-0.45-1.212-0.354-2.394,0.34-3.503c0.261-0.417,0.63-0.734,1.041-1.001C368.254,273.115,368.958,272.867,369.706,272.705z
			 M369.334,261.523c-0.569-0.064-1.139-0.129-1.749-0.198c0.262-0.303,0.501-0.58,0.705-0.816c0.364,0.336,0.713,0.657,1.061,0.979
			C369.346,261.5,369.34,261.512,369.334,261.523z M372.812,267.434c-0.63-0.457-0.972-1.054-0.893-1.836
			c0.072-0.723,0.486-1.229,1.101-1.594C372.438,265.117,372.281,266.251,372.812,267.434z M372.567,273.095
			c0.044,0.013,0.098,0.015,0.129,0.042c0.098,0.086,0.186,0.182,0.278,0.273c0.963,0.962,1.925,1.925,2.886,2.889
			c0.054,0.053,0.174,0.105,0.072,0.183c-1.142-1.115-2.271-2.217-3.4-3.318C372.544,273.142,372.556,273.118,372.567,273.095z
			 M373.049,262.6c-0.922,0.444-1.607,1.102-1.865,2.124c-0.183,0.724-0.083,1.434,0.164,2.126c0.107,0.303,0.244,0.596,0.37,0.899
			c-1.108-0.679-1.607-1.949-1.108-3.468c0.342-1.039,1.692-1.956,2.677-1.793C373.191,262.531,373.12,262.565,373.049,262.6z
			 M371.616,274.008c0.44,0.345,0.838,0.748,1.232,1.147c1.122,1.136,2.361,2.133,3.605,3.128c0.403,0.324,0.844,0.512,1.352,0.564
			c0.134,0.014,0.269,0.042,0.455,0.072c-0.561-0.576-1.089-1.119-1.624-1.668c0.068-0.09,0.127-0.169,0.189-0.254
			c1.251,0.874,2.616,1.191,4.118,0.906c-0.128-0.024-0.255-0.054-0.383-0.074c-0.345-0.056-0.688-0.122-1.034-0.161
			c-1.225-0.136-2.13-0.796-2.867-1.729c-0.85-1.075-1.176-2.302-1.04-3.66c0.123-1.242,0.252-2.484,0.355-3.729
			c0.072-0.866,0.135-1.735,0.148-2.604c0.016-0.877-0.312-1.629-0.988-2.21c-0.013-0.011-0.021-0.027-0.05-0.063
			c0.302-0.046,0.578-0.016,0.84,0.095c0.774,0.329,1.187,0.952,1.306,1.753c0.067,0.452,0.038,0.92,0.027,1.381
			c-0.025,1.148-0.069,2.295-0.098,3.442c-0.017,0.657-0.045,1.314-0.021,1.97c0.035,1.031,0.318,1.99,1.019,2.777
			c0.285,0.319,0.631,0.586,0.991,0.915c0-0.578,0-1.098,0-1.655c0.062,0.045,0.092,0.065,0.12,0.088
			c0.254,0.204,0.493,0.429,0.762,0.607c0.862,0.57,1.778,0.604,2.619,0.028c0.702-0.481,1.424,0.127,1.483,0.773
			c0.019,0.205,0.022,0.41,0.035,0.622c0.683-0.543,0.978-1.505,0.259-2.183c-0.217-0.206-0.466-0.352-0.749-0.46
			c-0.329-0.126-0.664-0.261-0.958-0.453c-0.852-0.557-1.069-1.465-0.61-2.377c0.224-0.444,0.538-0.816,0.889-1.159
			c-0.993-0.646-1.402-1.646-1.645-2.723c-0.423-1.872-0.048-3.593,1.068-5.152c0.256-0.355,0.619-0.584,0.983-0.804
			c1.326-0.8,2.733-1.036,4.22-0.523c1.093,0.376,1.913,1.102,2.493,2.088c0.595,1.012,0.935,2.106,0.945,3.29
			c0.012,1.366-0.494,2.537-1.365,3.567c-0.042,0.049-0.086,0.098-0.128,0.147c-0.044,0.049-0.087,0.096-0.146,0.161
			c0.055,0.026,0.099,0.047,0.142,0.071c0.257,0.143,0.535,0.261,0.768,0.437c0.659,0.496,0.725,1.093,0.311,1.806
			c-0.387,0.665-0.945,1.159-1.476,1.689c-0.237,0.236-0.479,0.486-0.643,0.773c-0.377,0.66-0.206,1.338,0.41,1.782
			c0.166,0.119,0.354,0.207,0.558,0.324c0.042-0.134,0.077-0.238,0.109-0.342c0.327-1.043,0.791-1.385,1.883-1.385
			c0.053,0,0.106-0.005,0.159,0.001c1.07,0.132,1.847-0.381,2.493-1.15c0.531-0.631,0.782-1.356,0.744-2.197
			c-0.062-1.338-0.258-2.66-0.43-3.986c-0.16-1.236,0.004-2.424,0.67-3.504c0.659-1.068,1.644-1.679,2.853-1.941
			c0.15-0.033,0.322,0.03,0.483,0.047c0.004,0.018,0.007,0.034,0.011,0.051c-0.059,0.031-0.116,0.063-0.176,0.092
			c-0.509,0.259-0.982,0.569-1.387,0.977c-0.704,0.708-1.006,1.572-0.921,2.554c0.09,1.031,0.225,2.058,0.347,3.085
			c0.135,1.122,0.341,2.238,0.295,3.374c-0.089,2.183-1.118,3.795-3.012,4.856c-0.502,0.281-1.067,0.375-1.646,0.422
			c0.333,0.029,0.665,0.063,0.998,0.087c1.754,0.125,3.307-0.421,4.692-1.462c0.898-0.675,1.762-1.396,2.643-2.096
			c0.692-0.55,1.401-1.07,2.245-1.375c0.947-0.342,1.9-0.361,2.852-0.03c0.168,0.058,0.309,0.193,0.47,0.297
			c-0.385,0-0.732-0.019-1.077,0.003c-0.96,0.063-1.791,0.463-2.487,1.098c-0.726,0.661-1.406,1.372-2.091,2.076
			c-0.805,0.829-1.599,1.667-2.547,2.337c-1.468,1.038-3.092,1.535-4.897,1.405c-0.219-0.016-0.442,0.02-0.663,0.032
			c-0.004,0.022-0.008,0.044-0.012,0.066c0.25,0.128,0.498,0.263,0.751,0.383c1.251,0.596,2.586,0.905,3.941,1.144
			c1.153,0.203,2.312,0.401,3.421,0.79c1.85,0.647,2.982,1.948,3.321,3.877c0.203,1.152-0.256,2.117-1.076,2.93
			c0.05-0.179,0.095-0.359,0.151-0.534c0.436-1.335,0.026-2.457-0.886-3.439c-0.579-0.625-1.3-1.007-2.14-1.179
			c-1.174-0.239-2.355-0.403-3.551-0.482c-1.549-0.101-2.967-0.619-4.301-1.391c-0.215-0.125-0.436-0.238-0.654-0.355
			c-0.02-0.01-0.041-0.014-0.077-0.025c0.145,0.292,0.29,0.562,0.415,0.84c0.481,1.074,0.688,2.211,0.746,3.378
			c0.057,1.158,0.079,2.318,0.148,3.476c0.061,1.004,0.143,2.007,0.258,3.006c0.13,1.137,0.778,1.96,1.703,2.58
			c0.309,0.208,0.644,0.376,0.967,0.562c0.045,0.025,0.087,0.054,0.176,0.108c-0.351,0.054-0.654,0.059-0.955,0
			c-1.076-0.207-1.991-0.698-2.542-1.67c-0.278-0.492-0.439-1.058-0.604-1.606c-0.486-1.625-0.764-3.294-1.002-4.971
			c-0.15-1.056-0.354-2.1-0.77-3.092c-0.299-0.711-0.712-1.347-1.228-1.92c-0.13-0.144-0.252-0.294-0.406-0.474
			c0.386,0,0.73,0,1.076,0c0.02-0.027,0.039-0.055,0.06-0.082c-0.062-0.033-0.13-0.058-0.183-0.101
			c-0.501-0.409-1.091-0.54-1.713-0.517c-1.895,0.071-3.254,1.001-4.126,2.656c-0.538,1.02-0.765,2.137-0.872,3.273
			c-0.092,0.972-0.117,1.949-0.186,2.923c-0.062,0.884-0.219,1.75-0.577,2.568c-0.153,0.35-0.45,0.758-0.757,1.036
			c0.08-0.279,0.169-0.544,0.232-0.815c0.198-0.853,0.17-1.715,0.093-2.579c-0.103-1.144-0.22-2.286-0.298-3.431
			c-0.058-0.877-0.002-1.75,0.25-2.603c0.196-0.663,0.53-1.25,0.943-1.798c0.205-0.273,0.408-0.548,0.635-0.854
			c-0.077,0.018-0.12,0.024-0.16,0.039c-0.989,0.356-2.014,0.542-3.059,0.579c-1.188,0.041-2.379,0.02-3.567,0.049
			c-0.56,0.014-1.127,0.039-1.676,0.138c-2.193,0.395-3.569,2.44-3.604,4.393c-0.012,0.716,0.089,1.416,0.26,2.108
			c0.018,0.068,0.032,0.136,0.053,0.216c-0.083,0.038-0.156,0.071-0.228,0.103c-0.837-1.491-1.314-3.032-0.77-4.729
			c0.481-1.5,1.496-2.523,2.914-3.165c0.655-0.296,1.349-0.416,2.066-0.46c1.683-0.104,3.364-0.237,5.046-0.359
			c0.017-0.001,0.031-0.009,0.051-0.042c-0.218-0.03-0.437-0.056-0.654-0.089c-0.713-0.112-1.432-0.195-2.137-0.347
			c-1.132-0.244-2.07-0.868-2.889-1.66c-0.657-0.637-1.281-1.312-1.89-1.997c-0.469-0.528-0.938-1.052-1.508-1.473
			c-0.463-0.341-0.971-0.555-1.56-0.419c-0.244,0.057-0.478,0.164-0.727,0.252c0.101-0.34,0.306-0.619,0.583-0.845
			C369.768,273.463,370.863,273.419,371.616,274.008z M378.05,264.23c-0.046-0.113-0.096-0.224-0.145-0.335
			c0.457,0.425,0.778,0.932,0.971,1.52c0.209,0.635,0.226,1.285,0.172,1.947c-0.127,1.55-0.236,3.102-0.356,4.652
			c-0.025,0.324-0.062,0.647-0.104,0.969c-0.014,0.108-0.059,0.212-0.09,0.318c-0.018-0.001-0.037-0.003-0.056-0.005
			c0-0.147-0.001-0.294,0-0.441c0.012-2.035,0.027-4.069,0.032-6.104C378.477,265.888,378.377,265.039,378.05,264.23z
			 M392.1,270.916c0.438,0.957,0.139,1.971-0.748,2.685c-0.314,0.252-0.66,0.45-1.056,0.565c0.122-0.132,0.258-0.255,0.365-0.398
			c0.277-0.368,0.577-0.725,0.803-1.121c0.411-0.717,0.311-1.411-0.224-2.036c-0.165-0.192-0.35-0.368-0.54-0.568
			c1.712-2.571,1.757-5.206,0.315-7.92c0.052,0.045,0.106,0.088,0.155,0.137c0.782,0.756,1.254,1.685,1.493,2.733
			c0.332,1.457,0.229,2.878-0.411,4.245c-0.028,0.059-0.059,0.116-0.09,0.173C391.886,269.901,391.856,270.387,392.1,270.916z
			 M397.681,271.936c-0.043-1.389-0.31-2.75-0.492-4.121c-0.079-0.58-0.127-1.164-0.175-1.748c-0.013-0.156,0.012-0.319,0.044-0.475
			c0.112-0.536,0.401-0.991,0.687-1.449c-0.304,0.912-0.333,1.841-0.178,2.773c0.119,0.711,0.28,1.415,0.438,2.119
			c0.267,1.185,0.423,2.377,0.296,3.592c-0.118,1.14-0.539,2.15-1.325,2.997c-0.032,0.035-0.062,0.077-0.1,0.101
			c-0.063,0.038-0.131,0.063-0.197,0.094c0.017-0.071,0.014-0.156,0.052-0.211c0.277-0.389,0.495-0.806,0.65-1.256
			C397.649,273.567,397.707,272.756,397.681,271.936z M401.576,263.166c-0.181-0.167-0.369-0.326-0.567-0.5
			c0.89,0.059,1.798,0.96,2.056,2.002c0.296,1.197-0.133,2.272-0.908,2.821c0.028-0.091,0.053-0.155,0.068-0.222
			c0.124-0.517,0.286-1.028,0.359-1.552C402.727,264.689,402.318,263.854,401.576,263.166z M401.302,264.25
			c0.587,0.672,0.69,2.019,0.21,2.77c-0.208,0.326-0.499,0.561-0.877,0.768c0.043-0.158,0.08-0.278,0.106-0.4
			c0.102-0.472,0.236-0.941,0.29-1.419c0.055-0.484-0.137-0.941-0.29-1.395c-0.087-0.255-0.174-0.509-0.271-0.79
			C400.828,263.851,401.089,264.007,401.302,264.25z M405.031,261.346c0.264-0.339,0.504-0.647,0.759-0.975
			c0.266,0.349,0.517,0.679,0.797,1.046C406.052,261.393,405.562,261.37,405.031,261.346z M407.971,275.158
			c1.088,1.641,0.514,3.841-1.534,4.634c0.643-0.628,1.143-1.306,1.418-2.129S408.138,276.004,407.971,275.158z M404.396,279.312
			c0.593-0.284,1.122-0.581,1.567-1.004c0.447-0.426,0.771-0.933,0.988-1.513C407.121,278.411,405.976,279.391,404.396,279.312z
			 M404.321,284.818c-0.509-1.307-1.433-2.235-2.656-2.884c-0.752-0.399-1.557-0.657-2.374-0.879
			c-0.039-0.01-0.078-0.022-0.116-0.071c0.092,0,0.185-0.002,0.277,0c1.045,0.027,2.069,0.166,3.003,0.666
			c1.565,0.84,2.499,2.135,2.704,3.917c0.119,1.028-0.033,2.016-0.499,2.949c-0.025,0.052-0.056,0.104-0.086,0.154
			c-0.005,0.007-0.021,0.009-0.03,0.012c0.042-0.439,0.094-0.878,0.12-1.318C404.715,286.495,404.641,285.638,404.321,284.818z
			 M405.259,274.889c-0.803,0.029-1.47,0.383-2.052,0.904c-0.705,0.631-1.377,1.3-2.095,1.917c-0.762,0.656-1.56,1.27-2.341,1.902
			c-0.322,0.26-0.684,0.443-1.079,0.563c-0.327,0.099-0.652,0.204-0.993,0.31c-0.032-0.082-0.062-0.157-0.093-0.238
			c0.318-0.155,0.635-0.299,0.942-0.462c1.144-0.606,2.148-1.401,3.06-2.315c0.559-0.561,1.099-1.144,1.625-1.734
			c0.589-0.66,1.306-1.124,2.108-1.469c0.294-0.126,0.602-0.115,0.899,0.006c0.331,0.133,0.587,0.362,0.784,0.615
			C405.773,274.887,405.516,274.879,405.259,274.889z M397.946,291.653c1.503,0.896,1.531,2.174,0.569,3.271
			c0.043-0.539,0.142-1.105,0.119-1.666C398.611,292.677,398.219,292.207,397.946,291.653z M399.116,291.04
			c-0.769-0.563-1.126-1.334-1.105-2.278c0.016-0.008,0.03-0.016,0.045-0.024c0.085,0.151,0.166,0.303,0.251,0.453
			c0.137,0.242,0.271,0.484,0.414,0.722c0.344,0.575,0.866,0.907,1.498,1.085c0.375,0.105,0.749,0.208,1.125,0.312
			c-0.003,0.017-0.005,0.034-0.007,0.051C400.545,291.644,399.797,291.538,399.116,291.04z M397.479,294.216
			c-0.13,0.203-0.342,0.286-0.57,0.318c-0.139,0.02-0.279,0.016-0.466,0.025c0.374-0.536,0.719-1.029,1.063-1.521
			c0.02-0.028,0.04-0.054,0.089-0.118C397.666,293.39,397.734,293.818,397.479,294.216z M393.382,285.102
			c-0.016-0.098-0.019-0.198-0.028-0.315c0.104-0.015,0.186-0.025,0.295-0.04c0.022,0.194,0.051,0.384,0.064,0.575
			c0.125,1.663,0.248,3.326,0.368,4.988c0.058,0.814,0.09,1.63,0.167,2.442c0.029,0.3,0.154,0.592,0.236,0.887
			c0.017,0.061,0.037,0.12,0.07,0.225c-0.356-0.259-0.603-0.552-0.787-0.898c-0.252-0.476-0.36-0.995-0.357-1.523
			c0.008-1.194,0.038-2.388,0.08-3.581C393.524,286.937,393.535,286.017,393.382,285.102z M385.245,283.019
			c-0.158,0.346-0.312,0.645-0.436,0.955c-0.346,0.872-0.485,1.789-0.575,2.716c-0.102,1.054-0.183,2.111-0.323,3.161
			c-0.148,1.104-0.405,2.187-0.888,3.203c-0.35,0.735-0.814,1.387-1.422,1.932c-0.088,0.079-0.181,0.154-0.281,0.214
			c-0.057,0.033-0.134,0.031-0.231,0.05c0.246-0.344,0.478-0.643,0.679-0.961c0.719-1.13,1.098-2.385,1.255-3.701
			c0.131-1.086,0.188-2.181,0.294-3.27c0.114-1.179,0.378-2.315,1.054-3.314c0.188-0.278,0.417-0.529,0.634-0.787
			C385.062,283.148,385.144,283.101,385.245,283.019z M376.581,294.606c0.179,0.317,0.389,0.615,0.582,0.917
			c-0.868-0.226-1.496-1.201-1.419-2.212c0.072-0.945,0.876-1.819,1.756-1.909c-0.167,0.172-0.351,0.333-0.499,0.52
			c-0.206,0.258-0.418,0.519-0.569,0.809C376.097,293.376,376.245,294.008,376.581,294.606z M375.36,287.34
			c-0.023-0.052-0.046-0.104-0.09-0.201c0.64,0.487,0.818,1.235,0.502,1.956c-0.334,0.764-0.985,1.163-1.729,1.036
			c0.104-0.066,0.193-0.115,0.272-0.179c0.268-0.213,0.557-0.408,0.789-0.654C375.654,288.716,375.677,288.045,375.36,287.34z
			 M376.079,290.269c-0.297,0.749-1.483,1.42-2.221,1.062C374.611,290.971,375.339,290.623,376.079,290.269z M377.127,283.892
			c-0.832,0.113-1.671,0.196-2.491,0.368c-0.978,0.205-1.791,0.708-2.324,1.586c-0.411,0.676-0.529,1.423-0.49,2.201
			c0.008,0.163,0.024,0.325,0.04,0.538c-0.235-0.331-0.349-0.659-0.375-1.007c-0.108-1.45,0.466-2.55,1.719-3.292
			c1.144-0.678,2.391-0.867,3.693-0.767c0.495,0.038,0.985,0.114,1.479,0.174c0,0.021,0,0.041,0,0.062
			C377.96,283.8,377.542,283.835,377.127,283.892z M367.935,277.31c0.609,0.664,1.192,1.299,1.794,1.956
			C368.536,278.96,367.902,278.186,367.935,277.31z M366.38,296.937c0.057-0.022,0.164,0.001,0.209,0.044
			c0.29,0.278,0.57,0.568,0.853,0.854c0.016,0.016,0.022,0.04,0.044,0.079c-0.105,0.058-0.206,0.113-0.322,0.178
			c0.033,0.042,0.057,0.082,0.087,0.112c0.374,0.379,0.754,0.753,1.124,1.136c0.104,0.109,0.196,0.124,0.328,0.058
			c0.177-0.089,0.362-0.161,0.571-0.251c-0.081-0.087-0.139-0.151-0.2-0.213c-0.434-0.437-0.868-0.874-1.303-1.31
			c-0.494-0.496-0.408-1.083,0.232-1.37c0.495-0.221,1.007-0.414,1.526-0.567c0.481-0.142,0.924,0.03,1.274,0.366
			c0.657,0.631,1.301,1.278,1.932,1.935c0.314,0.33,0.271,0.805-0.096,1.077c-0.209,0.156-0.466,0.251-0.707,0.36
			c-0.047,0.021-0.141,0.005-0.179-0.03c-0.314-0.294-0.621-0.597-0.965-0.931c0.159-0.084,0.261-0.138,0.379-0.2
			c-0.045-0.051-0.076-0.093-0.111-0.129c-0.346-0.349-0.697-0.692-1.035-1.048c-0.119-0.126-0.224-0.143-0.373-0.065
			c-0.166,0.086-0.344,0.151-0.544,0.237c0.063,0.071,0.106,0.125,0.154,0.173c0.463,0.466,0.929,0.93,1.39,1.399
			c0.403,0.41,0.37,0.948-0.12,1.231c-0.526,0.305-1.091,0.542-1.693,0.666c-0.483,0.1-0.916-0.038-1.263-0.371
			c-0.673-0.648-1.334-1.31-1.98-1.986c-0.338-0.354-0.271-0.851,0.135-1.122C365.926,297.116,366.156,297.027,366.38,296.937z
			 M377.804,306.185c0.771-0.958,1.544-1.915,2.316-2.873c0.083-0.104,0.183-0.141,0.313-0.101c0.327,0.101,0.657,0.196,0.983,0.299
			c0.174,0.055,0.187,0.102,0.068,0.25c-0.768,0.954-1.536,1.907-2.309,2.858c-0.051,0.063-0.132,0.102-0.179,0.137
			c-0.075-0.014-0.11-0.017-0.145-0.027c-0.328-0.099-0.656-0.196-0.983-0.3C377.709,306.376,377.694,306.321,377.804,306.185z
			 M380.619,302.689c0.168-0.214,0.343-0.421,0.515-0.633c0.079-0.098,0.174-0.133,0.298-0.095c0.333,0.103,0.668,0.199,1.001,0.303
			c0.152,0.047,0.17,0.105,0.072,0.229c-0.172,0.218-0.346,0.435-0.527,0.646c-0.046,0.054-0.119,0.085-0.165,0.117
			c-0.07-0.017-0.11-0.025-0.149-0.036c-0.323-0.097-0.646-0.193-0.969-0.293C380.53,302.875,380.513,302.825,380.619,302.689z
			 M380.479,308.371c0.128-0.213,0.25-0.429,0.376-0.644c0.136-0.229,0.184-0.25,0.446-0.208c0.408,0.062,0.817,0.129,1.228,0.179
			c0.075,0.009,0.196-0.037,0.232-0.095c0.492-0.822,0.973-1.651,1.456-2.478c0.006-0.009,0.003-0.022,0.008-0.056
			c-0.336-0.05-0.663-0.103-0.99-0.143c-0.059-0.007-0.153,0.024-0.181,0.068c-0.253,0.413-0.495,0.833-0.739,1.252
			c-0.008,0.014-0.003,0.034-0.005,0.078c0.211,0.012,0.42,0.023,0.629,0.036c0.265,0.016,0.275,0.038,0.142,0.263
			c-0.118,0.198-0.238,0.395-0.353,0.596c-0.068,0.121-0.169,0.181-0.304,0.178c-0.379-0.008-0.758-0.006-1.135-0.039
			c-0.543-0.046-0.797-0.492-0.579-0.996c0.059-0.135,0.138-0.261,0.212-0.389c0.265-0.455,0.531-0.909,0.797-1.363
			c0.018-0.031,0.037-0.061,0.055-0.091c0.358-0.625,0.888-0.884,1.607-0.77c0.741,0.119,1.485,0.222,2.228,0.333
			c0.135,0.02,0.269,0.041,0.403,0.06c0.232,0.033,0.251,0.067,0.135,0.266c-0.375,0.643-0.753,1.286-1.13,1.929
			c-0.305,0.52-0.61,1.041-0.916,1.561c-0.047,0.082-0.097,0.162-0.146,0.243c-0.346,0.571-0.845,0.821-1.513,0.72
			c-0.619-0.093-1.239-0.186-1.86-0.275C380.431,308.563,380.402,308.5,380.479,308.371z M362.439,256.309
			c0.842-0.889,1.676-1.787,2.526-2.668c1.285-1.333,2.782-2.404,4.309-3.437c2.026-1.369,4.167-2.525,6.449-3.414
			c1.726-0.672,3.502-1.161,5.317-1.517c2.45-0.479,4.922-0.679,7.416-0.583c2.983,0.115,5.906,0.595,8.756,1.498
			c3.53,1.118,6.742,2.837,9.635,5.149c1.702,1.36,3.254,2.875,4.651,4.547c0.137,0.163,0.254,0.343,0.39,0.506
			c0.186,0.222,0.228,0.491,0.263,0.761c0.005,0.042-0.039,0.113-0.078,0.133c-0.054,0.025-0.138,0.039-0.187,0.013
			c-0.261-0.139-0.51-0.301-0.771-0.437c-0.229-0.118-0.469-0.212-0.704-0.317c-0.013,0.019-0.025,0.037-0.038,0.055
			c0.34,0.441,0.679,0.881,1.029,1.335c-0.206,0.189-0.404,0.372-0.608,0.558c-0.539-0.462-1.068-0.916-1.598-1.369
			c-0.018,0.011-0.035,0.021-0.053,0.033c0.087,0.169,0.162,0.345,0.264,0.505c0.126,0.199,0.284,0.378,0.408,0.58
			c0.232,0.378,0.178,0.76-0.147,1.092c-0.482-0.286-0.967-0.573-1.451-0.861c-0.02,0.013-0.039,0.026-0.058,0.039
			c0.051,0.125,0.085,0.261,0.159,0.371c0.095,0.14,0.222,0.259,0.335,0.389c0.344,0.394,0.297,0.738-0.153,1.048
			c-0.372-0.322-0.748-0.646-1.123-0.971c-0.031-0.027-0.06-0.062-0.096-0.079c-0.04-0.019-0.09-0.021-0.135-0.031
			c0.002,0.045-0.014,0.1,0.007,0.136c0.202,0.361,0.409,0.719,0.615,1.079c0.056,0.097,0.111,0.194,0.177,0.309
			c-0.199,0.168-0.396,0.334-0.611,0.514c-0.053-0.071-0.102-0.134-0.148-0.2c-1.621-2.249-3.549-4.185-5.858-5.729
			c-1.665-1.113-3.452-1.989-5.33-2.681c-2.653-0.977-5.397-1.448-8.22-1.499c-2.219-0.041-4.408,0.174-6.564,0.704
			c-3.02,0.742-5.776,2.054-8.296,3.871c-1.463,1.056-2.816,2.239-4.047,3.558c-0.379,0.405-0.697,0.866-1.047,1.298
			c-0.104,0.128-0.212,0.257-0.336,0.366c-0.323,0.289-0.608,0.26-0.879-0.078c-0.044-0.054-0.081-0.114-0.124-0.175
			c0.29-0.45,0.574-0.893,0.859-1.335c0.022-0.035,0.052-0.067,0.064-0.105c0.017-0.043,0.019-0.092,0.027-0.139
			c-0.044,0.013-0.099,0.015-0.131,0.042c-0.126,0.107-0.245,0.223-0.368,0.334c-0.093,0.083-0.193,0.157-0.282,0.244
			c-0.282,0.276-0.63,0.325-1.019,0.295c-0.009-0.289-0.047-0.576,0.133-0.836c0.201-0.292,0.397-0.588,0.597-0.882
			c0.032-0.048,0.064-0.097,0.077-0.181c-0.085,0.042-0.181,0.07-0.254,0.127c-0.158,0.124-0.306,0.261-0.454,0.396
			c-0.089,0.078-0.169,0.167-0.261,0.241c-0.351,0.289-0.651,0.294-1.011,0.018c-0.08-0.061-0.151-0.131-0.241-0.209
			c0.17-0.23,0.334-0.452,0.498-0.674c0.211-0.285,0.425-0.569,0.632-0.857c0.032-0.045,0.032-0.112,0.047-0.169
			c-0.02-0.008-0.038-0.016-0.057-0.023c-0.555,0.439-1.11,0.879-1.665,1.317c-0.275-0.313-0.354-0.75-0.154-1.095
			c0.141-0.243,0.338-0.453,0.516-0.674c0.102-0.126,0.213-0.245,0.321-0.367c-0.011-0.015-0.021-0.029-0.032-0.043
			c-0.126,0.07-0.261,0.126-0.374,0.213c-0.234,0.18-0.451,0.384-0.686,0.563c-0.462,0.352-0.961,0.367-1.451,0.047
			C362.025,256.739,362.234,256.525,362.439,256.309z M362.461,258.632c0.241,0.127,0.298,0.224,0.233,0.518
			c-0.093,0.415-0.209,0.825-0.316,1.237c-0.042,0.158-0.089,0.314-0.102,0.487c0.414-0.474,0.829-0.948,1.25-1.428
			c0.291,0.206,0.569,0.404,0.86,0.609c-0.203,0.397-0.401,0.785-0.601,1.173c-0.154,0.3-0.312,0.599-0.46,0.9
			c-0.023,0.047-0.009,0.113-0.012,0.17c0.022,0.005,0.044,0.009,0.065,0.014c0.439-0.6,0.879-1.201,1.314-1.797
			c0.677,0.204,0.938,0.775,0.633,1.368c-0.054,0.104-0.123,0.202-0.189,0.299c-0.25,0.37-0.429,0.772-0.515,1.23
			c0.025-0.033,0.048-0.068,0.074-0.101c0.411-0.504,0.826-1.006,1.233-1.514c0.071-0.09,0.137-0.119,0.234-0.06
			c0.016,0.009,0.033,0.014,0.049,0.021c0.578,0.248,0.716,0.624,0.384,1.158c-0.287,0.462-0.508,0.947-0.638,1.475
			c-0.007,0.032-0.01,0.065-0.015,0.098c0.017,0.01,0.032,0.021,0.048,0.031c0.387-0.521,0.791-1.03,1.151-1.566
			c0.337-0.499,0.815-0.703,1.374-0.504c-1.384,2.509-2.765,5.015-4.161,7.549c-0.085-0.15-0.157-0.276-0.227-0.403
			c-0.572-1.055-1.147-2.11-1.715-3.168c-0.067-0.125-0.127-0.147-0.261-0.104c-1.379,0.445-2.76,0.882-4.141,1.322
			c-0.072,0.023-0.145,0.043-0.254,0.075C358.866,264.427,360.476,261.433,362.461,258.632z M358.933,276.103
			c0.76,0.001,1.23,0.489,1.23,1.274c-0.001,0.772-0.494,1.292-1.227,1.292c-0.748,0.001-1.339-0.57-1.342-1.295
			C357.591,276.661,358.181,276.102,358.933,276.103z M416.347,292.069c-1.448,3.458-3.521,6.505-6.096,9.217
			c-2.521,2.655-5.4,4.836-8.646,6.528c-2.512,1.309-5.153,2.259-7.928,2.838c-2.394,0.5-4.813,0.695-7.254,0.613
			c-3.009-0.101-5.957-0.578-8.828-1.493c-4.599-1.467-8.642-3.878-12.146-7.192c-2.584-2.445-4.727-5.231-6.369-8.389
			c-0.479-0.922-0.875-1.888-1.308-2.835c-0.026-0.058-0.043-0.121-0.04-0.195c0.027,0.05,0.057,0.099,0.084,0.15
			c1.188,2.263,2.521,4.434,4.062,6.474c2.19,2.904,4.723,5.456,7.732,7.517c2.801,1.919,5.852,3.288,9.143,4.122
			c2.385,0.605,4.81,0.911,7.268,0.977c1.796,0.048,3.586-0.022,5.37-0.23c5.06-0.591,9.722-2.248,13.899-5.198
			c2.875-2.03,5.302-4.513,7.392-7.335c1.54-2.079,2.859-4.292,4.015-6.605c0.016-0.031,0.034-0.062,0.051-0.092
			c0.013,0.004,0.027,0.008,0.04,0.013C416.641,291.326,416.501,291.701,416.347,292.069z M425.92,372.102
			c-0.099,1.453-1.95,2.788-2.999,4.177c-0.981-1.225-2.748-2.403-2.824-3.681c-0.67-11.348-1.19-22.711-1.284-34.075
			c-0.011-1.27,2.914-2.562,4.479-3.844c0.904,1.247,2.528,2.459,2.591,3.747c0.283,5.817,0.124,11.656,0.124,17.486
			c0.019,0,0.039,0,0.058,0C426.063,361.313,426.28,366.726,425.92,372.102z"/>
		<path fill="#FFFFFF" d="M383.255,270.892c-0.188,0.73,0.907,1.677,1.836,1.585C384.968,271.363,384.189,270.717,383.255,270.892z"
			/>
	</g>
	<path fill="#FFFFFF" d="M586.159,539.867c-37.184,0.163-74.374,0.4-111.552-0.114c-9.519-0.132-19.002-2.864-28.326-4.373
		c0-3.675,0-6.178,0-9.781c9.426-0.81,18.663-2.723,27.756-2.186c37.316,2.203,74.603,4.997,111.866,7.987
		c5.976,0.479,7.83-1.809,9.184-6.868c6.738-25.187-4.599-47.171-30.584-56.495c-45.547-16.344-88.012-9.817-126.818,19.144
		c-3.897,2.908-7.502,4.168-12.369,3.885c-52.686-3.072-105.405-4.244-158.144-1.48c-32.396,1.697-64.669,4.609-96.159,13.042
		c-5.856,1.568-11.543,3.773-17.308,5.683c0.106,0.487,0.212,0.974,0.318,1.46c82.552,6.061,165.105,12.121,247.657,18.185
		c-0.037,0.677-0.073,1.354-0.11,2.032c-82.817,0-165.633,0-248.45,0c3.616,2.94,7.466,4.744,11.436,6.226
		c36.332,13.566,74.312,19.979,112.619,23.222c48.629,4.117,97.447,5.982,146.168,9.108c3.667,0.234,7.869,1.973,10.67,4.361
		c38.471,32.792,81.854,42.523,129.978,26.813c24.544-8.012,34.902-28.506,29.976-53.815
		C592.993,540.904,590.796,539.847,586.159,539.867z M561.786,485.313c10.734,3.324,14.959,12.277,12.172,23.11
		c-0.837,3.252-2.277,4.479-5.871,4.197c-29.479-2.313-58.964-4.652-88.48-6.443c-9.725-0.591-14.676-8.203-22.076-12.762
		C491.557,478.772,526.16,474.284,561.786,485.313z M423.613,532.619c-1.416-0.027-4.063-2.594-3.888-3.667
		c0.278-1.719,2.269-4.108,3.856-4.389c1.49-0.267,3.4,1.836,6.813,3.937C427.021,530.682,425.297,532.654,423.613,532.619z
		 M556.989,584.251c-27.543,6.27-54.494,3.24-80.891-5.975c-7.262-2.536-14.253-5.85-22.708-9.363
		c10.344-7.586,19.253-12.383,31.354-11.942c26.747,0.974,53.554,0.447,80.332,0.179c5.151-0.053,6.694,1.757,7.09,6.535
		C573.071,574.632,568.286,581.681,556.989,584.251z"/>
	<path fill="#FFFFFF" d="M100.273,497.283c-20.519-18.845-41.024-37.704-61.577-56.51c-5.319-4.867-10.783-5.614-15.884-2.208
		c-4.864,3.25-6.952,8.156-4.993,13.489c1.237,3.364,4.106,6.573,7.042,8.801c37.84,28.713,75.82,57.241,113.772,85.809
		c24.131,18.163,48.272,36.313,72.408,54.473c0.313-0.287,0.625-0.57,0.936-0.854c-0.978-1.028-1.9-2.117-2.943-3.076
		C172.789,563.891,136.532,530.586,100.273,497.283z M51.913,472.451c-9.066-3.612-16.314-9.575-21.404-17.919
		c-0.869-1.425-0.549-3.573-0.778-5.388c1.811-0.076,3.838-0.726,5.397-0.137c9.159,3.462,16.281,9.568,21.484,17.82
		c0.928,1.471,1.046,3.451,1.811,6.162C55.552,472.785,53.542,473.099,51.913,472.451z"/>
</g>
</svg>
