<?xml version="1.0" encoding="utf-8"?>
<!-- Generator: Adobe Illustrator 16.0.3, SVG Export Plug-In . SVG Version: 6.00 Build 0)  -->
<!DOCTYPE svg PUBLIC "-//W3C//DTD SVG 1.1//EN" "http://www.w3.org/Graphics/SVG/1.1/DTD/svg11.dtd">
<svg version="1.1" id="Capa_1" xmlns="http://www.w3.org/2000/svg" xmlns:xlink="http://www.w3.org/1999/xlink" x="0px" y="0px"
	 width="792px" height="612px" viewBox="0 0 792 612" enable-background="new 0 0 792 612" xml:space="preserve">
<g>
	<path fill-rule="evenodd" clip-rule="evenodd" fill="#FFFFFF" d="M772.422,415.433c-0.178,0.287-0.345,0.579-0.531,0.855
		c-1.885,2.804-4.816,2.86-6.73,0.177c-11.377-15.986-26.773-25.662-46.203-28.156c-21.831-2.8-40.708,3.937-56.495,19.284
		c-0.431,0.421-0.852,0.845-1.284,1.256c-0.058,0.057-0.155,0.072-0.439,0.191c-14.396-42.021-28.787-84.028-43.24-126.219
		c-6.169,2.302-12.133,4.599-18.147,6.754c-6.601,2.365-12.803-1.766-13.092-8.814c4.171,0.311,8.316,0.732,12.472,0.896
		c4.021,0.159,8.059,0.18,12.08,0.042c10.26-0.356,16.899-5.936,19.205-15.964c0.095-0.412,0.247-0.809,0.589-1.904
		c0.859,1.758,1.628,2.993,2.092,4.333c4.379,12.684,8.755,25.371,13.002,38.099c0.601,1.803,1.555,2.779,3.22,3.538
		c19.721,8.988,35.312,22.481,45.008,42.125c2.528,5.12,4.426,10.567,6.348,15.96c0.681,1.914,1.59,2.331,3.476,2.376
		c16.999,0.391,32.838,4.559,46.58,15.015c8.284,6.304,14.926,14.098,19.995,23.199c0.861,1.541,1.407,3.259,2.098,4.899
		C772.422,414.062,772.422,414.747,772.422,415.433z"/>
	<path fill-rule="evenodd" clip-rule="evenodd" fill="#FFFFFF" d="M525.528,298.454c20.416,3.17,40.553,6.17,60.64,9.476
		c8.611,1.417,15,6.347,18.269,14.51c10.938,27.323,21.749,54.694,32.46,82.104c3.699,9.468,2.05,18.339-4.924,25.701
		c-6.787,7.169-15.353,9.164-24.766,6.241c-7.709-2.395-12.561-7.899-15.474-15.356c-7.811-19.997-15.733-39.952-23.614-59.923
		c-0.404-1.031-0.987-2.023-1.207-3.092c-0.831-4.008-3.334-5.299-7.284-5.865c-23.12-3.33-46.18-7.073-69.291-10.457
		c-16.971-2.481-27.839-12.366-31.776-30.398c-1.563-7.149-2.188-14.567-2.559-21.897c-0.45-8.887-0.446-17.82-0.16-26.717
		c0.55-16.873,4.145-33.242,9.073-49.327c2.7-8.816,5.11-17.758,10.461-25.516c7.164-10.394,16.507-17.467,29.187-19.649
		c15.969-2.746,27.558,4.454,32.116,20.046c2.075,7.093,2.492,14.285,0.98,22.23c-1.766-2.28-3.351-4.041-4.612-6.008
		c-2.723-4.248-5.461-8.503-7.872-12.931c-4.913-9.032-15.858-12.884-25.112-8.624c-9.36,4.31-13.895,15.081-9.896,24.583
		c4.08,9.705,10.228,18.195,16.831,26.332c6.176,7.611,13.101,14.483,20.685,20.702c0.604,0.495,1.044,1.699,0.932,2.484
		c-1.855,12.979-3.432,25.976-3.189,39.125C525.437,296.896,525.485,297.563,525.528,298.454z"/>
	<path fill-rule="evenodd" clip-rule="evenodd" fill="#FFFFFF" d="M643.724,444.697c0,7.742,0,15.071,0,22.639
		c-50.526,0-101.522,0-152.739,0c3.723-23.796-2.423-44.594-19.956-61.421c-13.372-12.835-29.691-18.885-48.173-18.192
		c-20.448,0.771-37.442,9.157-50.21,25.244c-12.667,15.956-16.841,34.262-13.456,54.459c-11.002,0-21.771,0-32.882,0
		c0.134-14.015,3.204-27.461,7.376-40.652c4.142-13.1,8.743-26.053,13.17-39.153c-0.305-0.07-0.951-0.229-1.601-0.378
		c-3.949-0.915-6.2-3.62-6.22-7.643c-0.033-6.948-0.04-13.896,0-20.841c0.026-4.64,3.108-7.715,7.759-7.72
		c19.894-0.04,39.788-0.045,59.683-0.052c28.639-0.006,57.28,0,85.92,0.003c3.773,0,7.548-0.018,11.318,0.049
		c4.062,0.07,7.235,3.008,7.309,7.087c0.133,7.365,0.063,14.737,0.025,22.105c-0.016,2.839-1.643,4.708-3.873,6.28
		c-0.655,0.462-1.301,1.583-1.229,2.331c1.802,18.7,6.186,36.72,14.275,53.765c0.799,1.688,1.738,2.093,3.504,2.09
		c39.273-0.038,78.547-0.011,117.821,0C642.215,444.697,642.887,444.697,643.724,444.697z"/>
	<path fill-rule="evenodd" clip-rule="evenodd" fill="#FFFFFF" d="M482.404,454.55c-0.117,31.984-26.095,57.838-58.404,57.286
		c-31.238-0.53-56.463-26.25-56.245-57.65c0.212-30.997,25.704-57.532,59.171-56.87C456.962,397.912,482.679,424.144,482.404,454.55
		z M447.657,454.688c-0.009-12.626-10.143-22.804-22.67-22.759c-12.471,0.045-22.652,10.321-22.627,22.833
		c0.027,12.554,10.156,22.553,22.833,22.541C437.66,477.287,447.664,467.217,447.657,454.688z"/>
	<path fill-rule="evenodd" clip-rule="evenodd" fill="#FFFFFF" d="M767.461,454.586c0.135,31.396-25.418,56.96-56.882,57.247
		c-31.277,0.286-57.669-24.825-57.762-57.401c-0.085-31.127,25.624-56.979,56.88-57.084
		C741.655,397.243,767.324,422.679,767.461,454.586z M732.794,454.857c0.018-12.744-10.065-22.911-22.743-22.932
		c-12.445-0.018-22.553,10.255-22.544,22.907c0.009,12.516,10.223,22.564,22.877,22.511
		C722.621,477.29,732.775,467.101,732.794,454.857z"/>
	<path fill-rule="evenodd" clip-rule="evenodd" fill="#FFFFFF" d="M591.086,99.607c-8.035,1.855-15.878,3.479-23.605,5.529
		c-3.814,1.011-7.236,3.065-9.75,6.334c-1.761,2.292-2.554,4.834-2.205,7.687c0.779,6.367,1.689,12.72,2.383,19.096
		c0.218,2.017,0.078,4.11-0.187,6.13c-0.34,2.607-1.593,4.369-4.444,5.199c-5.443,1.585-10.898,2.153-16.482,1.349
		c-6.419-0.923-12.914-1.554-19.21-3.022c-10.999-2.563-18.371-9.556-22.106-20.191c-6.131-17.462-5.412-34.328,5.839-49.618
		c10.466-14.222,24.838-21.087,42.585-20.483C568.472,58.453,587.815,77.084,591.086,99.607z"/>
	<path fill-rule="evenodd" clip-rule="evenodd" fill="#FFFFFF" d="M605.857,278.072c-36.762-0.68-66.453-14.291-90.508-40.388
		c-8.113-8.801-14.982-18.475-20.531-29.088c-5.047-9.66-0.689-20.303,9.398-22.918c6.938-1.799,14.09,1.415,17.508,8.022
		c7.408,14.315,17.514,26.354,30.382,36.033c12.723,9.569,26.996,15.371,42.886,16.843c5.272,0.489,10.602,0.471,15.904,0.527
		c8.29,0.089,14.943,6.139,15.422,14.177c0.503,8.459-5.295,15.381-13.715,16.287C609.966,277.851,607.313,277.967,605.857,278.072z
		"/>
	<path fill-rule="evenodd" clip-rule="evenodd" fill="#FFFFFF" d="M692.734,279.275c-0.728,3.829-1.902,10.284-3.21,16.712
		c-0.268,1.314-0.939,2.578-1.585,3.779c-2.463,4.575-5.355,6.07-10.499,5.539c-14.52-1.5-25.908-13.643-26.418-28.169
		c-0.508-14.526,10.036-27.459,24.396-29.922c7.252-1.244,10.879,0.793,13.607,7.66C691.791,261.834,692.29,269.167,692.734,279.275
		z"/>
	<path fill-rule="evenodd" clip-rule="evenodd" fill="#FFFFFF" d="M514.557,151.735c6.439,1.011,12.718,2.183,19.047,2.94
		c6.913,0.828,13.859,1.043,20.62-1.211c5.381-1.794,7.513-4.158,7.558-9.808c0.039-4.93-0.64-9.873-1.116-14.797
		c-0.315-3.233-0.9-6.44-1.247-9.671c-0.411-3.837,1.623-6.658,4.78-8.086c4.479-2.029,9.243-3.457,13.95-4.934
		c2.016-0.632,4.207-0.684,6.295-1.111c1.643-0.335,2.407,0.289,3.076,1.803c8.27,18.744,2.128,40.928-14.672,52.754
		c-17.718,12.473-41.819,9.988-56.613-5.844C515.615,153.108,515.078,152.373,514.557,151.735z"/>
	<g>
		<path fill="#FFFFFF" d="M361.122,222.723c0.45-0.063,0.901-0.134,1.354-0.169c0.325-0.026,0.474-0.178,0.552-0.486
			c0.3-1.176,0.62-2.348,0.937-3.521c0.027-0.1,0.068-0.253,0.137-0.276c0.308-0.103,0.629-0.168,1.02-0.267
			c-0.123,0.5-0.222,0.896-0.322,1.292c-0.053,0.202,0.014,0.294,0.225,0.268c0.551-0.067,1.102-0.122,1.646-0.215
			c0.12-0.02,0.271-0.162,0.307-0.278c0.17-0.572,0.346-1.146,0.438-1.731c0.157-0.976-0.406-1.489-1.363-1.258
			c-0.514,0.123-1.005,0.33-1.443,0.476c-0.167-0.072-0.283-0.17-0.391-0.161c-0.496,0.04-0.998,0.086-1.483,0.182
			c-0.157,0.031-0.367,0.196-0.405,0.34c-0.508,1.828-0.987,3.664-1.48,5.497C360.778,222.674,360.867,222.758,361.122,222.723z"/>
		<path fill="#FFFFFF" d="M367.456,220.532c-0.32,0.918,0.119,1.533,1.086,1.531c0.685,0,1.367-0.011,2.048-0.045
			c0.138-0.006,0.34-0.102,0.393-0.212c0.203-0.441,0.364-0.904,0.532-1.36c0.059-0.158-0.003-0.253-0.182-0.25
			c-0.174,0.002-0.347,0.006-0.52,0.006c-0.321,0-0.64,0-1.026,0c0.284-0.746,0.541-1.434,0.821-2.11
			c0.033-0.079,0.214-0.128,0.327-0.136c0.349-0.022,0.695-0.02,1.041-0.019c0.225,0,0.37-0.094,0.449-0.303
			c0.154-0.407,0.309-0.812,0.469-1.214c0.098-0.249,0.012-0.333-0.247-0.325c-0.409,0.013-0.819,0.004-1.289,0.004
			c0.165-0.435,0.32-0.834,0.47-1.236c0.113-0.303,0.066-0.378-0.248-0.376c-0.51,0.004-1.02-0.001-1.526,0.045
			c-0.145,0.012-0.334,0.155-0.404,0.29c-0.172,0.335-0.3,0.697-0.417,1.056c-0.073,0.223-0.186,0.319-0.422,0.288
			c-0.318-0.043-0.504,0.106-0.603,0.412c-0.103,0.32-0.237,0.628-0.354,0.943c-0.175,0.466-0.168,0.471,0.343,0.479
			c0.05,0,0.102,0.015,0.193,0.029c-0.048,0.139-0.083,0.26-0.127,0.376C367.994,219.114,367.709,219.817,367.456,220.532z"/>
		<path fill="#FFFFFF" d="M373.123,222.197c1.101,0.117,2.204,0.21,3.307,0.305c0.107,0.008,0.281-0.015,0.32-0.083
			c0.281-0.48,0.534-0.977,0.823-1.518c-0.173-0.029-0.265-0.047-0.356-0.057c-0.832-0.082-1.664-0.166-2.496-0.241
			c-0.223-0.02-0.299-0.093-0.185-0.307c0.318-0.605,0.626-1.215,0.953-1.815c0.055-0.098,0.197-0.215,0.294-0.21
			c0.58,0.03,1.158,0.093,1.764,0.148c-0.05,0.361-0.202,0.491-0.502,0.424c-0.256-0.056-0.521-0.08-0.764-0.161
			c-0.256-0.084-0.381,0.008-0.487,0.227c-0.165,0.341-0.339,0.679-0.52,1.013c-0.112,0.206-0.076,0.315,0.163,0.367
			c0.604,0.131,1.201,0.295,1.809,0.409c0.594,0.109,1.182-0.007,1.52-0.519c0.457-0.69,0.844-1.436,1.184-2.192
			c0.198-0.443-0.04-0.864-0.469-1.037c-0.18-0.071-0.375-0.118-0.565-0.137c-0.995-0.103-1.989-0.188-2.983-0.289
			c-0.985-0.101-1.754,0.258-2.238,1.124c-0.527,0.947-1.033,1.907-1.508,2.883C371.759,221.414,372.152,222.094,373.123,222.197z"
			/>
		<path fill="#FFFFFF" d="M381.227,221.228c0.519,0.118,1.038,0.224,1.555,0.351c0.105,0.026,0.193,0.126,0.289,0.192
			c-0.13,0.066-0.255,0.147-0.391,0.194c-0.062,0.022-0.146-0.027-0.221-0.043c-0.877-0.199-1.758-0.393-2.632-0.6
			c-0.271-0.063-0.456,0.007-0.606,0.242c-0.192,0.301-0.408,0.588-0.607,0.886c-0.171,0.257-0.146,0.327,0.152,0.395
			c1.163,0.264,2.328,0.523,3.49,0.786c1.428,0.323,2.449-0.354,3.097-1.846c0.328-0.756-0.06-1.384-0.857-1.578
			c-0.399-0.098-0.803-0.179-1.205-0.273c-0.247-0.057-0.493-0.125-0.745-0.191c0.086-0.295,0.27-0.272,0.457-0.23
			c0.889,0.202,1.778,0.398,2.664,0.608c0.27,0.062,0.461,0.004,0.609-0.233c0.186-0.293,0.394-0.573,0.591-0.86
			c0.201-0.301,0.175-0.363-0.188-0.445c-1.025-0.231-2.055-0.445-3.078-0.691c-1.367-0.329-2.322-0.074-3.213,1.462
			C379.881,220.226,380.251,221.005,381.227,221.228z"/>
		<path fill="#FFFFFF" d="M374.314,260.993c-1.695-0.304-3.063,0.776-3.404,2.708C372.613,263.803,374.371,262.395,374.314,260.993z
			"/>
		<path fill="#FFFFFF" d="M441.05,211.469c0.022-6.179-4.46-11.233-11.268-11.223c-39.278,0.07-78.557,0.086-117.831-0.053
			c-6.408-0.022-10.891,2.117-13.041,8.336c0,41.174,0,82.349,0,123.525c2.63,6.859,5.349,8.675,12.965,8.675
			c39.193,0,78.388,0.006,117.581,0c7.316-0.003,11.52-4.169,11.521-11.423C440.982,290.027,440.913,250.747,441.05,211.469z
			 M424.029,272.7L424.029,272.7c0,0.01,0,0.021,0,0.033c-0.014,0.914-0.206,1.743-1.15,2.146c-0.963,0.408-2.1,0.156-2.818-0.604
			c-0.669-0.708-0.849-1.535-0.49-2.435c0.358-0.908,1.064-1.396,2.035-1.492c0.086-0.007,0.174-0.004,0.262-0.004
			c1.371,0.004,2.116,0.727,2.161,2.097C424.031,272.526,424.029,272.612,424.029,272.7z M423.615,254.855
			c-2.259-0.73-4.518-1.46-6.775-2.196c-0.983-0.321-1.449-0.131-1.938,0.793c-0.935,1.764-1.875,3.524-2.813,5.284
			c-0.062,0.115-0.13,0.226-0.232,0.407c-2.526-4.596-5.031-9.148-7.536-13.697c0.641-0.443,1.327-0.379,1.86,0.222
			c0.662,0.746,1.282,1.529,1.936,2.286c0.309,0.359,0.646,0.692,0.973,1.037c0.027-0.025,0.06-0.051,0.089-0.076
			c-0.405-0.791-0.809-1.581-1.212-2.372c-0.121-0.242-0.266-0.477-0.356-0.729c-0.241-0.68-0.067-1.177,0.534-1.573
			c0.196-0.13,0.414-0.228,0.637-0.349c0.655,0.77,1.294,1.52,1.934,2.271c0.028,0.033,0.047,0.081,0.083,0.097
			c0.092,0.043,0.192,0.071,0.289,0.105c0-0.093,0.032-0.205-0.006-0.278c-0.353-0.697-0.716-1.388-1.077-2.08
			c-0.178-0.346-0.355-0.691-0.549-1.063c0.574-0.415,1.146-0.824,1.743-1.256c0.078,0.098,0.151,0.187,0.218,0.281
			c0.632,0.869,1.259,1.74,1.891,2.61c0.086,0.117,0.164,0.29,0.346,0.075c-0.556-1.114-1.104-2.234-1.672-3.344
			c-0.124-0.243-0.119-0.387,0.113-0.56c0.433-0.325,0.836-0.684,1.283-1.054c0.897,1.077,1.753,2.165,2.645,3.223
			c0.03-0.026,0.063-0.053,0.096-0.078c0.004-0.03,0.018-0.066,0.008-0.088c-0.479-0.911-0.93-1.84-1.45-2.728
			c-0.543-0.933-0.426-1.355,0.627-1.765c3.651,5.119,6.587,10.612,8.587,16.65C423.769,254.888,423.689,254.88,423.615,254.855z
			 M410.537,306.621c-0.087,0.044-0.197,0.07-0.26,0.138c-0.461,0.506-0.906,1.024-1.366,1.528c-0.765,0.839-1.765,0.789-2.356-0.18
			c-0.306-0.499-0.516-1.076-0.666-1.646c-0.197-0.761,0.037-1.482,0.533-2.071c0.983-1.17,2.011-2.306,3.02-3.455
			c0.156-0.175,0.285-0.123,0.378,0.063c0.226,0.445,0.438,0.896,0.665,1.341c0.135,0.262,0.025,0.452-0.146,0.643
			c-0.725,0.809-1.443,1.622-2.164,2.432c-0.161,0.182-0.281,0.362-0.017,0.637c0.304-0.34,0.587-0.653,0.865-0.967
			c0.271-0.297,0.525-0.608,0.807-0.895c0.584-0.594,1.399-0.627,1.96-0.011c0.871,0.957,1.629,2.764,0.357,4.226
			c-0.988,1.139-1.994,2.264-2.99,3.395c-0.156,0.178-0.295,0.172-0.402-0.041c-0.227-0.443-0.449-0.891-0.667-1.341
			c-0.115-0.236-0.037-0.433,0.132-0.622c0.746-0.832,1.487-1.669,2.229-2.507c0.077-0.088,0.184-0.188,0.193-0.291
			C410.653,306.877,410.577,306.747,410.537,306.621z M402.814,314.589c0.117-0.039,0.262-0.05,0.346-0.125
			c0.274-0.239,0.526-0.504,0.831-0.801c0.068,0.144,0.122,0.232,0.154,0.328c0.132,0.413,0.254,0.83,0.389,1.242
			c0.085,0.26,0.056,0.482-0.141,0.688c-0.38,0.403-0.739,0.824-1.126,1.222c-0.173,0.177-0.373,0.333-0.589,0.456
			c-0.519,0.299-1.112,0.188-1.382-0.337c-0.492-0.962-0.855-1.975-0.801-3.081c0.035-0.675,0.409-1.18,0.906-1.596
			c0.691-0.579,1.393-1.145,2.098-1.708c0.177-0.142,0.264-0.28,0.063-0.535c-0.168,0.132-0.322,0.247-0.471,0.369
			c-0.715,0.581-1.432,1.165-2.148,1.747c-0.276,0.226-0.316,0.212-0.424-0.14c-0.132-0.436-0.254-0.875-0.404-1.304
			c-0.099-0.278-0.042-0.463,0.189-0.647c1.018-0.814,2.021-1.643,3.033-2.463c0.895-0.723,1.822-0.461,2.192,0.636
			c0.267,0.79,0.494,1.594,0.741,2.392c0.25,0.809,0.486,1.621,0.752,2.424c0.109,0.321,0.072,0.546-0.216,0.758
			c-0.437,0.321-0.845,0.68-1.266,1.021c-0.336,0.271-0.368,0.262-0.489-0.139c-0.186-0.611-0.371-1.224-0.561-1.836
			c-0.033-0.11-0.078-0.219-0.135-0.38c-0.548,0.452-1.076,0.863-1.564,1.315C402.714,314.167,402.801,314.42,402.814,314.589z
			 M395.949,316.569c0.111,0.695,0.193,1.396,0.289,2.093c0.013,0.095,0.043,0.186,0.081,0.339c0.854-0.487,1.655-0.943,2.454-1.397
			c0.17-0.097,0.339-0.192,0.508-0.29c0.204-0.122,0.342-0.063,0.374,0.164c0.081,0.56,0.165,1.119,0.202,1.679
			c0.01,0.146-0.114,0.369-0.242,0.443c-1.328,0.778-2.664,1.547-4.016,2.287c-0.664,0.364-1.29,0.095-1.454-0.645
			c-0.171-0.771-0.254-1.562-0.362-2.345c-0.109-0.796-0.222-1.59-0.299-2.388c-0.095-0.942,0.309-1.64,1.123-2.104
			c1.311-0.749,2.618-1.496,3.93-2.24c0.297-0.168,0.381-0.126,0.427,0.203c0.072,0.505,0.131,1.011,0.201,1.517
			c0.037,0.271-0.06,0.45-0.301,0.584c-0.872,0.488-1.731,0.997-2.605,1.475C395.984,316.094,395.9,316.265,395.949,316.569z
			 M389.379,309.924c-3.887,2.241-8.053,3.801-12.492,4.493c-12.457,1.936-23.564-1.125-33.244-9.221
			c-3.911-3.27-7.122-7.146-9.539-11.642c-0.784-1.458-1.384-3.014-2.066-4.525c-0.016-0.036-0.022-0.078,0.012-0.143
			c0.059,0.093,0.117,0.184,0.17,0.278c2.702,4.646,5.832,8.967,9.683,12.74c4.565,4.47,9.825,7.798,15.97,9.657
			c3.206,0.97,6.49,1.485,9.835,1.61c3.628,0.135,7.223-0.141,10.78-0.853c8.57-1.712,15.707-5.912,21.51-12.42
			c3.046-3.415,5.535-7.209,7.622-11.269c0.765-1.485,1.444-3.014,2.161-4.521c0.045-0.093,0.088-0.184,0.135-0.275
			c0.025,0.009,0.048,0.019,0.072,0.027c-0.254,0.838-0.479,1.687-0.771,2.511C405.559,296.708,398.826,304.471,389.379,309.924z
			 M388.641,317.725c0.348-0.1,0.424-0.042,0.393,0.305c-0.045,0.51-0.095,1.017-0.14,1.523c-0.021,0.259-0.145,0.422-0.399,0.488
			c-0.221,0.058-0.433,0.157-0.653,0.194c-0.29,0.051-0.382,0.206-0.403,0.486c-0.108,1.397-0.234,2.79-0.354,4.186
			c-0.055,0.636-0.06,0.646-0.664,0.831c-0.498,0.15-0.996,0.301-1.492,0.454c-0.349,0.104-0.414,0.059-0.383-0.3
			c0.122-1.459,0.251-2.919,0.378-4.379c0.01-0.106,0.015-0.213,0.027-0.373c-0.246,0.068-0.445,0.12-0.64,0.18
			c-0.197,0.06-0.304-0.007-0.288-0.212c0.045-0.583,0.092-1.168,0.15-1.752c0.025-0.261,0.232-0.363,0.455-0.394
			c0.399-0.057,0.554-0.264,0.563-0.668c0.013-0.487,0.089-0.972,0.142-1.458c0.123-1.182,0.737-1.962,1.883-2.314
			c0.83-0.254,1.659-0.513,2.488-0.766c0.071-0.022,0.187-0.058,0.216-0.025c0.231,0.243,0.431,0.046,0.633-0.034
			c0.441-0.179,0.878-0.369,1.321-0.547c0.305-0.121,0.375-0.073,0.38,0.245c0.008,0.487,0.001,0.977,0.015,1.465
			c0.008,0.264-0.098,0.427-0.344,0.525c-0.573,0.231-1.143,0.47-1.713,0.715c-0.214,0.095-0.356,0.078-0.396-0.194
			c-0.593,0.184-1.174,0.355-1.746,0.546c-0.105,0.036-0.236,0.154-0.251,0.25c-0.069,0.416-0.099,0.835-0.149,1.313
			C388.029,317.908,388.335,317.813,388.641,317.725z M390.32,316.741c0.508-0.19,1.003-0.412,1.502-0.62
			c0.421-0.175,0.479-0.136,0.479,0.334c0,1.096,0,2.192,0,3.287c0.026,0,0.054,0,0.081,0c0,1.118-0.003,2.235,0.005,3.352
			c0.001,0.246-0.078,0.421-0.31,0.518c-0.6,0.25-1.2,0.499-1.799,0.753c-0.255,0.108-0.342-0.008-0.345-0.244
			c-0.013-0.75-0.024-1.496-0.033-2.245c-0.018-1.475-0.027-2.95-0.06-4.426C389.832,317.077,389.977,316.869,390.32,316.741z
			 M377.979,325.109c-0.247,0.046-0.276,0.27-0.243,0.46c0.008,0.049,0.231,0.104,0.345,0.082c0.287-0.051,0.569-0.137,0.85-0.221
			c0.222-0.067,0.317-0.014,0.263,0.228c-0.11,0.485-0.208,0.975-0.346,1.455c-0.041,0.139-0.169,0.313-0.293,0.352
			c-0.709,0.234-1.419,0.492-2.149,0.636c-0.894,0.171-1.464-0.37-1.336-1.263c0.103-0.725,0.283-1.449,0.517-2.146
			c0.318-0.964,1.08-1.423,2.053-1.572c0.837-0.13,1.671-0.264,2.507-0.397c0.055-0.007,0.13-0.001,0.157-0.031
			c0.08-0.099,0.143-0.214,0.215-0.322c-0.096-0.023-0.197-0.084-0.287-0.07c-0.984,0.151-1.969,0.316-2.956,0.476
			c-0.481,0.075-0.495,0.058-0.386-0.412c0.104-0.442,0.185-0.893,0.321-1.327c0.045-0.142,0.217-0.319,0.355-0.344
			c1.377-0.244,2.757-0.477,4.142-0.672c0.877-0.125,1.48,0.42,1.414,1.304c-0.05,0.631-0.224,1.257-0.361,1.879
			c-0.256,1.154-0.539,2.304-0.787,3.46c-0.069,0.319-0.224,0.457-0.54,0.495c-0.548,0.067-1.092,0.171-1.64,0.256
			c-0.401,0.063-0.427,0.034-0.337-0.353c0.153-0.665,0.311-1.329,0.464-1.996c0.016-0.07,0.016-0.146,0.031-0.276
			C379.262,324.898,378.617,324.993,377.979,325.109z M371.474,323.531c-0.089,0.021-0.155,0.194-0.197,0.309
			c-0.493,1.345-0.988,2.688-1.459,4.036c-0.134,0.386-0.325,0.567-0.751,0.552c-0.519-0.018-1.04,0.028-1.561,0.047
			c-0.38,0.014-0.438-0.057-0.311-0.402c0.695-1.906,1.385-3.812,2.089-5.714c0.384-1.038,0.159-0.947,1.394-0.995
			c0.367-0.014,0.735-0.026,1.104-0.039c0.289-0.008,0.318,0.021,0.342,0.304c0.518-0.14,1.033-0.299,1.557-0.416
			c0.261-0.057,0.54-0.067,0.807-0.051c0.705,0.04,1.066,0.426,1.066,1.134c0,0.213-0.03,0.437-0.096,0.64
			c-0.204,0.617-0.432,1.226-0.648,1.839c-0.074,0.21-0.214,0.313-0.438,0.321c-0.662,0.021-1.321,0.05-1.982,0.072
			c-0.239,0.01-0.273-0.129-0.207-0.321c0.125-0.359,0.256-0.714,0.38-1.073c0.039-0.11,0.069-0.221,0.138-0.452
			C372.229,323.397,371.847,323.442,371.474,323.531z M351.338,320.281c-0.07-0.018-0.186,0.087-0.26,0.159
			c-1.058,1-2.109,2.001-3.161,3.005c-0.38,0.363-0.435,0.375-0.913,0.156c-0.484-0.219-0.97-0.436-1.451-0.659
			c-0.298-0.139-0.318-0.241-0.079-0.472c1.627-1.55,3.257-3.094,4.884-4.642c0.188-0.18,0.386-0.22,0.622-0.11
			c0.522,0.243,1.046,0.48,1.571,0.716c0.209,0.093,0.441,0.171,0.21,0.44c0.567,0.112,1.11,0.21,1.647,0.332
			c0.207,0.047,0.412,0.137,0.601,0.239c0.752,0.411,0.956,1.056,0.426,1.73c-0.511,0.651-1.149,1.204-1.754,1.78
			c-0.084,0.078-0.319,0.071-0.45,0.019c-0.592-0.245-1.17-0.522-1.754-0.786c-0.23-0.103-0.269-0.232-0.078-0.414
			c0.284-0.27,0.561-0.543,0.84-0.817c0.076-0.073,0.144-0.153,0.282-0.308C352.086,320.51,351.717,320.377,351.338,320.281z
			 M343.911,316.278c-0.089-0.057-0.289-0.029-0.388,0.034c-0.705,0.448-1.396,0.917-2.096,1.377
			c-0.244,0.16-0.154,0.279,0.035,0.406c0.816,0.556,1.628,1.116,2.442,1.676c0.102,0.072,0.194,0.156,0.313,0.255
			c-0.094,0.084-0.149,0.15-0.216,0.196c-0.423,0.285-0.854,0.562-1.274,0.849c-0.193,0.134-0.37,0.14-0.565,0.004
			c-1.132-0.784-2.277-1.552-3.403-2.345c-0.733-0.517-0.773-1.403-0.1-1.998c0.26-0.229,0.56-0.411,0.848-0.604
			c0.774-0.517,1.556-1.027,2.332-1.543c1.117-0.739,2.215-0.77,3.327,0.026c0.925,0.663,1.876,1.289,2.814,1.935
			c0.124,0.086,0.246,0.179,0.356,0.282c0.552,0.521,0.587,1.201-0.011,1.661c-0.691,0.533-1.434,1.016-2.203,1.43
			c-0.698,0.376-1.429,0.253-2.042-0.248c-0.597-0.488-1.148-1.023-1.725-1.535c-0.185-0.167-0.14-0.281,0.052-0.404
			c0.411-0.263,0.816-0.534,1.216-0.814c0.2-0.14,0.352-0.153,0.54,0.036c0.231,0.241,0.493,0.456,0.757,0.666
			c0.301,0.243,0.466,0.207,0.74-0.166C345.078,317.058,344.503,316.654,343.911,316.278z M337.919,264.112
			c-0.383,0.243-0.782,0.459-1.14,0.734c-0.788,0.609-1.606,1.192-2.318,1.883c-1.701,1.653-2.055,3.662-1.385,5.898
			c0.413,1.38,1.051,2.659,1.746,3.912c0.078,0.14,0.156,0.28,0.286,0.51c-0.291-0.084-0.508-0.125-0.71-0.206
			c-1.395-0.556-2.334-1.589-2.844-2.961c-0.827-2.223-0.646-4.391,0.622-6.423c0.48-0.767,1.155-1.348,1.91-1.837
			C335.256,264.865,336.549,264.409,337.919,264.112z M337.238,243.608c-1.048-0.118-2.091-0.237-3.209-0.363
			c0.48-0.556,0.918-1.065,1.292-1.498c0.667,0.616,1.306,1.205,1.945,1.794C337.256,243.565,337.247,243.586,337.238,243.608z
			 M343.613,254.446c-1.156-0.837-1.783-1.933-1.638-3.368c0.134-1.324,0.894-2.252,2.02-2.923
			C342.928,250.198,342.641,252.278,343.613,254.446z M343.166,264.828c0.079,0.023,0.179,0.027,0.234,0.077
			c0.18,0.158,0.341,0.334,0.511,0.502c1.765,1.765,3.53,3.531,5.293,5.298c0.097,0.098,0.319,0.191,0.132,0.335
			c-2.094-2.043-4.164-4.063-6.235-6.085C343.123,264.913,343.143,264.871,343.166,264.828z M344.047,245.581
			c-1.689,0.815-2.945,2.021-3.42,3.896c-0.336,1.326-0.15,2.629,0.301,3.898c0.198,0.556,0.448,1.093,0.678,1.648
			c-2.03-1.245-2.945-3.575-2.03-6.36c0.627-1.904,3.101-3.586,4.909-3.288C344.312,245.457,344.178,245.518,344.047,245.581z
			 M341.42,266.503c0.808,0.631,1.537,1.371,2.26,2.102c2.058,2.083,4.331,3.912,6.611,5.737c0.741,0.593,1.548,0.938,2.479,1.033
			c0.247,0.025,0.492,0.076,0.835,0.131c-1.027-1.055-1.996-2.05-2.979-3.06c0.125-0.166,0.232-0.311,0.348-0.465
			c2.294,1.603,4.799,2.185,7.551,1.663c-0.234-0.045-0.466-0.099-0.7-0.136c-0.633-0.103-1.263-0.225-1.897-0.294
			c-2.244-0.249-3.906-1.461-5.259-3.172c-1.557-1.969-2.154-4.221-1.906-6.71c0.227-2.278,0.462-4.556,0.651-6.838
			c0.133-1.588,0.248-3.183,0.273-4.774c0.027-1.609-0.573-2.988-1.814-4.055c-0.023-0.02-0.037-0.049-0.09-0.115
			c0.553-0.084,1.06-0.028,1.54,0.175c1.42,0.601,2.175,1.744,2.394,3.213c0.123,0.83,0.071,1.688,0.052,2.533
			c-0.048,2.104-0.128,4.208-0.179,6.313c-0.031,1.204-0.083,2.409-0.042,3.613c0.065,1.891,0.584,3.649,1.87,5.091
			c0.521,0.587,1.155,1.075,1.815,1.678c0-1.061,0-2.014,0-3.037c0.116,0.084,0.171,0.121,0.221,0.163
			c0.466,0.374,0.904,0.787,1.399,1.114c1.581,1.047,3.26,1.107,4.801,0.053c1.288-0.883,2.613,0.233,2.719,1.417
			c0.036,0.375,0.045,0.752,0.065,1.139c1.252-0.995,1.794-2.76,0.478-4.003c-0.4-0.376-0.856-0.646-1.375-0.844
			c-0.605-0.23-1.22-0.479-1.756-0.831c-1.561-1.021-1.963-2.686-1.119-4.359c0.41-0.814,0.985-1.496,1.629-2.125
			c-1.822-1.185-2.572-3.019-3.018-4.995c-0.773-3.431-0.086-6.588,1.961-9.447c0.468-0.652,1.134-1.072,1.803-1.473
			c2.433-1.469,5.012-1.901,7.739-0.961c2.002,0.691,3.506,2.021,4.569,3.83c1.093,1.855,1.715,3.863,1.735,6.032
			c0.022,2.505-0.906,4.652-2.503,6.542c-0.079,0.091-0.158,0.18-0.237,0.27c-0.077,0.088-0.158,0.176-0.268,0.293
			c0.099,0.05,0.182,0.086,0.261,0.131c0.471,0.264,0.979,0.478,1.408,0.801c1.208,0.91,1.327,2.005,0.566,3.312
			c-0.707,1.219-1.73,2.125-2.703,3.096c-0.437,0.433-0.879,0.892-1.178,1.417c-0.692,1.211-0.379,2.454,0.75,3.267
			c0.305,0.219,0.65,0.382,1.022,0.596c0.078-0.246,0.141-0.436,0.202-0.627c0.6-1.914,1.451-2.54,3.451-2.54
			c0.097,0,0.197-0.009,0.292,0.002c1.962,0.243,3.389-0.7,4.575-2.11c0.972-1.155,1.433-2.484,1.362-4.026
			c-0.112-2.456-0.474-4.879-0.786-7.312c-0.296-2.267,0.006-4.445,1.226-6.426c1.21-1.959,3.013-3.079,5.23-3.559
			c0.277-0.061,0.593,0.054,0.89,0.087c0.005,0.031,0.012,0.062,0.018,0.094c-0.107,0.056-0.212,0.113-0.319,0.169
			c-0.935,0.474-1.805,1.044-2.546,1.792c-1.291,1.299-1.844,2.884-1.689,4.683c0.165,1.89,0.412,3.773,0.638,5.657
			c0.246,2.057,0.623,4.104,0.54,6.187c-0.161,4.003-2.051,6.961-5.523,8.904c-0.92,0.515-1.957,0.688-3.017,0.774
			c0.608,0.055,1.219,0.116,1.829,0.161c3.217,0.228,6.064-0.773,8.604-2.682c1.648-1.238,3.232-2.559,4.846-3.842
			c1.271-1.008,2.572-1.963,4.118-2.521c1.738-0.627,3.486-0.661,5.232-0.054c0.306,0.105,0.563,0.353,0.856,0.545
			c-0.703,0-1.34-0.035-1.975,0.006c-1.759,0.114-3.282,0.85-4.562,2.014c-1.329,1.21-2.577,2.515-3.83,3.807
			c-1.478,1.52-2.933,3.056-4.673,4.286c-2.691,1.903-5.668,2.815-8.979,2.576c-0.402-0.03-0.813,0.037-1.219,0.059
			c-0.006,0.039-0.013,0.08-0.021,0.12c0.46,0.236,0.911,0.483,1.376,0.704c2.295,1.094,4.741,1.66,7.23,2.098
			c2.115,0.372,4.237,0.735,6.271,1.446c3.393,1.188,5.468,3.574,6.091,7.111c0.373,2.113-0.471,3.882-1.974,5.372
			c0.092-0.327,0.173-0.656,0.277-0.979c0.799-2.447,0.049-4.503-1.623-6.305c-1.063-1.147-2.385-1.848-3.927-2.162
			c-2.151-0.438-4.317-0.741-6.51-0.883c-2.84-0.188-5.439-1.136-7.886-2.554c-0.395-0.227-0.799-0.435-1.202-0.651
			c-0.033-0.018-0.074-0.023-0.14-0.045c0.267,0.536,0.529,1.031,0.759,1.54c0.885,1.97,1.266,4.055,1.37,6.194
			c0.104,2.124,0.145,4.252,0.274,6.374c0.108,1.841,0.261,3.681,0.468,5.513c0.241,2.084,1.43,3.594,3.128,4.731
			c0.565,0.379,1.178,0.688,1.771,1.031c0.081,0.046,0.16,0.099,0.322,0.197c-0.643,0.101-1.199,0.107-1.752,0.001
			c-1.972-0.379-3.651-1.281-4.659-3.062c-0.51-0.904-0.807-1.942-1.107-2.946c-0.894-2.98-1.4-6.04-1.839-9.115
			c-0.273-1.936-0.647-3.851-1.41-5.669c-0.545-1.306-1.305-2.471-2.25-3.521c-0.239-0.264-0.463-0.54-0.747-0.871
			c0.708,0,1.343,0,1.976,0c0.036-0.05,0.071-0.1,0.107-0.149c-0.111-0.061-0.237-0.105-0.334-0.184c-0.917-0.75-2-0.99-3.14-0.948
			c-3.474,0.131-5.969,1.836-7.568,4.87c-0.983,1.872-1.402,3.921-1.599,6.003c-0.168,1.782-0.216,3.573-0.34,5.359
			c-0.112,1.622-0.4,3.209-1.059,4.709c-0.28,0.641-0.824,1.391-1.388,1.899c0.147-0.511,0.31-0.999,0.426-1.496
			c0.364-1.564,0.313-3.145,0.172-4.729c-0.19-2.097-0.403-4.191-0.546-6.291c-0.108-1.607-0.006-3.21,0.457-4.772
			c0.36-1.216,0.973-2.292,1.73-3.296c0.378-0.501,0.747-1.005,1.162-1.565c-0.141,0.033-0.22,0.043-0.293,0.07
			c-1.814,0.652-3.693,0.995-5.609,1.061c-2.178,0.076-4.361,0.036-6.54,0.09c-1.028,0.026-2.066,0.072-3.075,0.253
			c-4.022,0.724-6.545,4.476-6.606,8.056c-0.022,1.313,0.162,2.596,0.476,3.865c0.033,0.125,0.061,0.25,0.098,0.397
			c-0.152,0.068-0.287,0.13-0.416,0.188c-1.536-2.733-2.412-5.561-1.414-8.673c0.885-2.749,2.745-4.628,5.346-5.804
			c1.2-0.543,2.473-0.763,3.789-0.844c3.085-0.191,6.169-0.435,9.254-0.659c0.03-0.002,0.059-0.015,0.09-0.077
			c-0.398-0.055-0.799-0.102-1.197-0.165c-1.307-0.204-2.625-0.355-3.918-0.635c-2.076-0.449-3.797-1.592-5.296-3.044
			c-1.206-1.167-2.353-2.404-3.468-3.661c-0.86-0.969-1.719-1.929-2.765-2.7c-0.851-0.626-1.781-1.019-2.859-0.77
			c-0.448,0.104-0.876,0.301-1.332,0.462c0.185-0.625,0.56-1.136,1.067-1.549C338.031,265.501,340.04,265.423,341.42,266.503z
			 M353.218,248.571c-0.083-0.208-0.174-0.411-0.266-0.616c0.839,0.78,1.43,1.71,1.784,2.786c0.381,1.165,0.412,2.357,0.313,3.57
			c-0.232,2.843-0.434,5.687-0.653,8.532c-0.047,0.594-0.112,1.187-0.189,1.778c-0.024,0.198-0.109,0.389-0.165,0.583
			c-0.033-0.003-0.066-0.006-0.102-0.009c0-0.27-0.001-0.539,0-0.809c0.021-3.731,0.051-7.462,0.061-11.193
			C354.003,251.612,353.818,250.054,353.218,248.571z M378.982,260.833c0.803,1.752,0.256,3.615-1.372,4.922
			c-0.577,0.463-1.209,0.825-1.935,1.037c0.225-0.242,0.472-0.467,0.67-0.729c0.508-0.674,1.056-1.328,1.472-2.057
			c0.753-1.316,0.569-2.587-0.411-3.734c-0.304-0.354-0.641-0.675-0.992-1.042c3.142-4.714,3.224-9.547,0.581-14.524
			c0.097,0.083,0.195,0.164,0.285,0.251c1.434,1.387,2.3,3.09,2.738,5.012c0.607,2.672,0.421,5.278-0.757,7.784
			c-0.049,0.107-0.104,0.214-0.164,0.317C378.592,258.971,378.537,259.861,378.982,260.833z M389.219,262.701
			c-0.082-2.545-0.569-5.042-0.905-7.557c-0.143-1.064-0.231-2.134-0.319-3.205c-0.023-0.286,0.021-0.585,0.08-0.87
			c0.206-0.983,0.736-1.817,1.258-2.657c-0.555,1.671-0.611,3.375-0.324,5.086c0.22,1.303,0.514,2.596,0.804,3.885
			c0.486,2.172,0.774,4.359,0.542,6.587c-0.219,2.091-0.988,3.944-2.43,5.496c-0.061,0.063-0.114,0.139-0.184,0.183
			c-0.114,0.07-0.242,0.118-0.363,0.174c0.032-0.131,0.025-0.287,0.098-0.387c0.505-0.714,0.906-1.478,1.191-2.305
			C389.159,265.693,389.265,264.207,389.219,262.701z M396.36,246.62c-0.33-0.307-0.677-0.598-1.04-0.917
			c1.631,0.107,3.297,1.761,3.771,3.672c0.54,2.194-0.245,4.167-1.666,5.173c0.052-0.167,0.097-0.286,0.126-0.407
			c0.227-0.948,0.523-1.886,0.658-2.847C398.469,249.414,397.723,247.883,396.36,246.62z M395.857,248.606
			c1.079,1.234,1.266,3.703,0.385,5.08c-0.381,0.599-0.915,1.028-1.608,1.408c0.078-0.29,0.147-0.51,0.195-0.734
			c0.188-0.866,0.434-1.726,0.532-2.602c0.1-0.887-0.251-1.725-0.533-2.558c-0.158-0.465-0.319-0.932-0.493-1.448
			C394.988,247.875,395.468,248.162,395.857,248.606z M402.697,243.283c0.482-0.623,0.925-1.188,1.391-1.788
			c0.486,0.64,0.947,1.244,1.462,1.917C404.568,243.367,403.669,243.326,402.697,243.283z M408.087,268.611
			c1.993,3.008,0.94,7.043-2.813,8.495c1.18-1.15,2.094-2.394,2.6-3.904C408.379,271.695,408.393,270.163,408.087,268.611z
			 M401.532,276.228c1.087-0.521,2.058-1.065,2.874-1.841c0.82-0.782,1.412-1.711,1.813-2.774
			C406.529,274.575,404.428,276.373,401.532,276.228z M401.396,286.325c-0.935-2.397-2.629-4.098-4.873-5.288
			c-1.379-0.731-2.853-1.204-4.352-1.611c-0.071-0.02-0.143-0.042-0.215-0.132c0.169,0,0.339-0.003,0.51,0
			c1.915,0.05,3.796,0.304,5.506,1.222c2.87,1.54,4.584,3.915,4.961,7.183c0.218,1.886-0.063,3.698-0.915,5.408
			c-0.049,0.097-0.104,0.189-0.16,0.283c-0.008,0.013-0.037,0.015-0.054,0.021c0.076-0.805,0.17-1.609,0.218-2.417
			C402.118,289.4,401.98,287.828,401.396,286.325z M403.113,268.117c-1.473,0.056-2.693,0.704-3.762,1.66
			c-1.294,1.157-2.525,2.383-3.842,3.514c-1.396,1.203-2.859,2.328-4.294,3.487c-0.589,0.478-1.252,0.813-1.978,1.033
			c-0.598,0.181-1.196,0.372-1.82,0.568c-0.061-0.15-0.111-0.287-0.171-0.438c0.585-0.285,1.165-0.548,1.729-0.846
			c2.099-1.112,3.94-2.57,5.609-4.246c1.023-1.029,2.015-2.097,2.981-3.181c1.08-1.209,2.394-2.062,3.864-2.693
			c0.542-0.232,1.104-0.21,1.65,0.011c0.608,0.244,1.075,0.664,1.439,1.129C404.057,268.115,403.586,268.1,403.113,268.117z
			 M389.705,298.859c2.755,1.643,2.806,3.986,1.044,5.998c0.079-0.987,0.259-2.025,0.218-3.054
			C390.925,300.735,390.203,299.874,389.705,298.859z M391.849,297.735c-1.407-1.033-2.063-2.447-2.026-4.177
			c0.027-0.015,0.055-0.03,0.084-0.045c0.154,0.277,0.303,0.556,0.461,0.83c0.249,0.444,0.496,0.889,0.757,1.325
			c0.631,1.053,1.59,1.662,2.747,1.989c0.687,0.193,1.374,0.383,2.063,0.573c-0.004,0.031-0.006,0.062-0.013,0.094
			C394.467,298.842,393.099,298.648,391.849,297.735z M388.849,303.559c-0.237,0.373-0.626,0.525-1.046,0.583
			c-0.254,0.036-0.514,0.029-0.856,0.045c0.688-0.982,1.32-1.886,1.952-2.789c0.035-0.051,0.074-0.1,0.162-0.217
			C389.19,302.044,389.316,302.829,388.849,303.559z M381.334,286.845c-0.029-0.18-0.032-0.364-0.05-0.577
			c0.19-0.027,0.339-0.047,0.538-0.073c0.042,0.355,0.095,0.703,0.118,1.053c0.229,3.049,0.457,6.097,0.675,9.148
			c0.109,1.492,0.167,2.989,0.309,4.477c0.053,0.551,0.282,1.085,0.432,1.626c0.03,0.111,0.067,0.221,0.129,0.412
			c-0.652-0.473-1.105-1.011-1.443-1.646c-0.461-0.873-0.66-1.823-0.654-2.793c0.014-2.188,0.068-4.378,0.148-6.566
			C381.595,290.211,381.617,288.523,381.334,286.845z M366.413,283.025c-0.291,0.634-0.571,1.182-0.798,1.75
			c-0.635,1.599-0.89,3.281-1.055,4.982c-0.188,1.932-0.334,3.872-0.593,5.794c-0.272,2.025-0.742,4.012-1.63,5.875
			c-0.639,1.348-1.492,2.543-2.606,3.542c-0.159,0.145-0.33,0.283-0.517,0.393c-0.103,0.062-0.242,0.057-0.424,0.093
			c0.45-0.633,0.875-1.18,1.246-1.763c1.316-2.074,2.011-4.374,2.3-6.787c0.239-1.993,0.346-4,0.538-5.998
			c0.211-2.16,0.694-4.244,1.934-6.076c0.346-0.51,0.766-0.969,1.163-1.442C366.076,283.262,366.227,283.175,366.413,283.025z
			 M350.526,304.275c0.325,0.582,0.712,1.126,1.065,1.68c-1.591-0.414-2.744-2.203-2.603-4.057c0.133-1.732,1.607-3.334,3.223-3.5
			c-0.308,0.316-0.646,0.61-0.917,0.955c-0.377,0.472-0.767,0.949-1.042,1.482C349.637,302.019,349.908,303.178,350.526,304.275z
			 M348.289,290.95c-0.046-0.096-0.086-0.192-0.168-0.37c1.173,0.894,1.502,2.264,0.921,3.586c-0.612,1.402-1.806,2.133-3.172,1.9
			c0.189-0.122,0.356-0.211,0.501-0.327c0.489-0.392,1.019-0.749,1.446-1.2C348.825,293.473,348.867,292.244,348.289,290.95z
			 M349.604,296.321c-0.543,1.372-2.72,2.604-4.07,1.947C346.912,297.608,348.248,296.97,349.604,296.321z M351.527,284.625
			c-1.526,0.208-3.065,0.36-4.57,0.675c-1.792,0.376-3.285,1.297-4.262,2.908c-0.754,1.24-0.969,2.61-0.898,4.037
			c0.015,0.298,0.045,0.596,0.074,0.987c-0.433-0.606-0.641-1.208-0.688-1.847c-0.199-2.658,0.854-4.675,3.15-6.037
			c2.099-1.243,4.385-1.589,6.774-1.406c0.904,0.07,1.806,0.21,2.708,0.319c0,0.039,0.002,0.076,0.002,0.114
			C353.054,284.458,352.287,284.523,351.527,284.625z M334.67,272.558c1.117,1.217,2.187,2.382,3.289,3.587
			C335.773,275.583,334.611,274.163,334.67,272.558z M331.82,308.547c0.103-0.041,0.298,0.004,0.381,0.082
			c0.534,0.511,1.046,1.042,1.565,1.566c0.027,0.029,0.039,0.074,0.079,0.144c-0.193,0.107-0.377,0.209-0.591,0.326
			c0.061,0.08,0.103,0.15,0.16,0.207c0.687,0.694,1.382,1.38,2.062,2.083c0.189,0.2,0.359,0.227,0.6,0.107
			c0.324-0.164,0.665-0.295,1.049-0.461c-0.149-0.158-0.256-0.278-0.367-0.389c-0.796-0.802-1.593-1.602-2.389-2.402
			c-0.908-0.908-0.748-1.987,0.426-2.512c0.908-0.406,1.847-0.759,2.798-1.04c0.885-0.261,1.696,0.054,2.339,0.67
			c1.205,1.158,2.385,2.344,3.54,3.55c0.578,0.604,0.498,1.475-0.175,1.974c-0.383,0.285-0.854,0.459-1.294,0.659
			c-0.087,0.04-0.26,0.009-0.328-0.055c-0.578-0.539-1.142-1.095-1.772-1.707c0.293-0.154,0.481-0.253,0.696-0.366
			c-0.082-0.094-0.138-0.17-0.206-0.237c-0.633-0.64-1.278-1.27-1.896-1.922c-0.221-0.23-0.41-0.263-0.684-0.12
			c-0.305,0.159-0.631,0.276-0.997,0.435c0.116,0.131,0.195,0.229,0.284,0.317c0.848,0.855,1.701,1.705,2.548,2.565
			c0.737,0.752,0.677,1.738-0.222,2.258c-0.966,0.558-2.002,0.993-3.104,1.221c-0.888,0.182-1.681-0.07-2.314-0.679
			c-1.236-1.189-2.449-2.403-3.634-3.642c-0.619-0.649-0.496-1.561,0.247-2.058C330.986,308.876,331.408,308.714,331.82,308.547z
			 M352.768,325.508c1.415-1.757,2.833-3.513,4.246-5.27c0.153-0.189,0.338-0.259,0.576-0.184c0.599,0.186,1.204,0.361,1.804,0.549
			c0.318,0.1,0.343,0.187,0.124,0.457c-1.406,1.75-2.815,3.499-4.232,5.242c-0.094,0.115-0.242,0.187-0.329,0.25
			c-0.136-0.024-0.199-0.03-0.262-0.049c-0.604-0.183-1.206-0.36-1.805-0.553C352.596,325.858,352.566,325.757,352.768,325.508z
			 M357.929,319.096c0.31-0.391,0.632-0.774,0.944-1.161c0.146-0.18,0.319-0.244,0.548-0.173c0.61,0.189,1.225,0.364,1.835,0.555
			c0.279,0.088,0.312,0.196,0.133,0.419c-0.316,0.401-0.636,0.799-0.967,1.186c-0.085,0.099-0.22,0.155-0.304,0.213
			c-0.128-0.031-0.202-0.045-0.274-0.065c-0.592-0.179-1.184-0.355-1.775-0.54C357.766,319.438,357.733,319.344,357.929,319.096z
			 M357.673,329.518c0.235-0.392,0.459-0.787,0.69-1.181c0.249-0.421,0.338-0.457,0.816-0.383c0.752,0.115,1.5,0.237,2.253,0.328
			c0.138,0.017,0.361-0.068,0.427-0.176c0.902-1.507,1.783-3.025,2.669-4.543c0.011-0.017,0.008-0.04,0.015-0.103
			c-0.614-0.092-1.213-0.189-1.815-0.261c-0.108-0.014-0.281,0.042-0.331,0.124c-0.466,0.757-0.91,1.527-1.356,2.295
			c-0.013,0.024-0.005,0.062-0.01,0.146c0.388,0.022,0.772,0.041,1.154,0.064c0.485,0.028,0.507,0.068,0.26,0.482
			c-0.217,0.362-0.436,0.725-0.644,1.093c-0.126,0.221-0.314,0.332-0.559,0.325c-0.695-0.015-1.391-0.012-2.082-0.07
			c-0.996-0.084-1.462-0.904-1.062-1.826c0.108-0.248,0.253-0.48,0.389-0.713c0.485-0.835,0.976-1.669,1.461-2.501
			c0.033-0.058,0.068-0.111,0.1-0.169c0.659-1.145,1.63-1.621,2.948-1.412c1.359,0.219,2.723,0.409,4.087,0.609
			c0.244,0.037,0.491,0.075,0.739,0.11c0.424,0.06,0.457,0.125,0.246,0.489c-0.689,1.181-1.382,2.358-2.071,3.537
			c-0.56,0.954-1.12,1.909-1.681,2.864c-0.088,0.148-0.179,0.296-0.268,0.445c-0.636,1.049-1.551,1.504-2.773,1.318
			c-1.139-0.17-2.273-0.34-3.413-0.503C357.585,329.871,357.533,329.751,357.673,329.518z M324.593,234.046
			c1.543-1.631,3.071-3.277,4.634-4.894c2.357-2.444,5.102-4.411,7.901-6.301c3.715-2.511,7.639-4.633,11.825-6.262
			c3.162-1.233,6.42-2.128,9.749-2.78c4.493-0.88,9.027-1.245,13.6-1.069c5.472,0.21,10.834,1.092,16.058,2.745
			c6.475,2.05,12.362,5.204,17.666,9.443c3.123,2.494,5.968,5.272,8.53,8.338c0.251,0.299,0.466,0.628,0.716,0.928
			c0.341,0.406,0.416,0.9,0.48,1.395c0.01,0.076-0.07,0.208-0.143,0.244c-0.098,0.046-0.252,0.07-0.342,0.024
			c-0.479-0.256-0.936-0.552-1.416-0.801c-0.418-0.216-0.859-0.389-1.289-0.581c-0.021,0.033-0.046,0.067-0.07,0.102
			c0.621,0.807,1.246,1.613,1.887,2.447c-0.378,0.346-0.741,0.681-1.113,1.023c-0.991-0.848-1.962-1.68-2.932-2.511
			c-0.031,0.021-0.063,0.041-0.096,0.061c0.158,0.309,0.297,0.633,0.48,0.925c0.232,0.367,0.522,0.696,0.752,1.064
			c0.428,0.692,0.326,1.395-0.271,2.003c-0.883-0.524-1.771-1.051-2.662-1.58c-0.034,0.025-0.07,0.049-0.104,0.073
			c0.095,0.228,0.155,0.478,0.291,0.68c0.175,0.258,0.408,0.477,0.615,0.713c0.632,0.723,0.544,1.354-0.281,1.921
			c-0.683-0.589-1.372-1.184-2.062-1.78c-0.055-0.049-0.107-0.113-0.174-0.144c-0.073-0.035-0.164-0.04-0.246-0.057
			c0.001,0.083-0.026,0.184,0.012,0.249c0.368,0.663,0.752,1.32,1.128,1.979c0.103,0.178,0.206,0.356,0.325,0.566
			c-0.365,0.309-0.729,0.613-1.122,0.943c-0.097-0.13-0.187-0.246-0.272-0.366c-2.972-4.125-6.508-7.675-10.742-10.506
			c-3.055-2.042-6.331-3.647-9.774-4.916c-4.866-1.793-9.897-2.656-15.073-2.749c-4.068-0.074-8.085,0.318-12.037,1.29
			c-5.538,1.361-10.593,3.766-15.213,7.098c-2.684,1.935-5.166,4.105-7.422,6.525c-0.694,0.743-1.277,1.588-1.92,2.38
			c-0.19,0.235-0.388,0.471-0.613,0.671c-0.596,0.531-1.119,0.479-1.614-0.142c-0.081-0.101-0.147-0.21-0.226-0.321
			c0.529-0.825,1.053-1.637,1.575-2.45c0.039-0.064,0.094-0.123,0.118-0.192c0.03-0.08,0.033-0.17,0.051-0.253
			c-0.082,0.025-0.183,0.027-0.241,0.077c-0.232,0.196-0.45,0.409-0.676,0.611c-0.172,0.152-0.354,0.29-0.518,0.447
			c-0.517,0.507-1.153,0.596-1.867,0.541c-0.017-0.53-0.087-1.057,0.244-1.534c0.369-0.535,0.729-1.078,1.094-1.618
			c0.059-0.088,0.118-0.176,0.141-0.331c-0.154,0.077-0.333,0.129-0.465,0.232c-0.289,0.228-0.559,0.479-0.835,0.725
			c-0.161,0.144-0.307,0.306-0.475,0.444c-0.644,0.53-1.195,0.538-1.855,0.031c-0.143-0.111-0.276-0.239-0.443-0.383
			c0.313-0.422,0.614-0.829,0.914-1.235c0.388-0.523,0.779-1.043,1.16-1.572c0.059-0.082,0.059-0.206,0.085-0.31
			c-0.034-0.015-0.067-0.028-0.101-0.043c-1.022,0.807-2.041,1.612-3.057,2.417c-0.504-0.574-0.647-1.376-0.284-2.009
			c0.259-0.445,0.62-0.83,0.945-1.234c0.188-0.232,0.392-0.449,0.591-0.673c-0.021-0.027-0.039-0.053-0.057-0.08
			c-0.232,0.128-0.48,0.232-0.689,0.392c-0.429,0.33-0.825,0.703-1.259,1.031c-0.846,0.645-1.759,0.673-2.657,0.085
			C323.834,234.833,324.215,234.443,324.593,234.046z M324.633,238.306c0.442,0.232,0.545,0.411,0.428,0.949
			c-0.172,0.763-0.383,1.515-0.58,2.27c-0.077,0.289-0.165,0.576-0.189,0.894c0.763-0.87,1.523-1.738,2.295-2.618
			c0.534,0.377,1.044,0.739,1.578,1.116c-0.373,0.728-0.736,1.44-1.102,2.152c-0.284,0.549-0.572,1.098-0.844,1.652
			c-0.042,0.086-0.016,0.207-0.021,0.312c0.04,0.008,0.079,0.017,0.119,0.026c0.806-1.102,1.61-2.201,2.411-3.296
			c1.242,0.374,1.721,1.422,1.158,2.508c-0.098,0.191-0.225,0.37-0.346,0.549c-0.459,0.678-0.787,1.416-0.943,2.256
			c0.045-0.063,0.088-0.126,0.136-0.185c0.754-0.924,1.515-1.845,2.262-2.776c0.13-0.165,0.249-0.219,0.431-0.109
			c0.026,0.017,0.06,0.026,0.09,0.039c1.059,0.454,1.312,1.144,0.702,2.123c-0.526,0.849-0.932,1.737-1.169,2.705
			c-0.015,0.059-0.018,0.119-0.027,0.18c0.029,0.019,0.06,0.037,0.088,0.055c0.707-0.955,1.449-1.886,2.113-2.872
			c0.615-0.915,1.494-1.289,2.516-0.923c-2.535,4.6-5.066,9.195-7.629,13.842c-0.154-0.274-0.287-0.504-0.414-0.739
			c-1.051-1.935-2.105-3.869-3.146-5.809c-0.122-0.229-0.231-0.269-0.478-0.191c-2.528,0.817-5.061,1.62-7.592,2.426
			c-0.135,0.042-0.266,0.078-0.469,0.137C318.041,248.934,320.992,243.442,324.633,238.306z M318.162,270.343
			c1.391,0.002,2.257,0.897,2.256,2.337c-0.004,1.417-0.905,2.369-2.25,2.37c-1.37,0-2.455-1.047-2.46-2.377
			C315.702,271.367,316.783,270.34,318.162,270.343z M423.447,299.622c-2.656,6.342-6.458,11.929-11.178,16.902
			c-4.624,4.869-9.905,8.871-15.856,11.973c-4.606,2.402-9.45,4.142-14.539,5.205c-4.39,0.918-8.823,1.275-13.3,1.126
			c-5.52-0.188-10.924-1.059-16.189-2.737c-8.435-2.692-15.848-7.112-22.274-13.19c-4.739-4.484-8.668-9.593-11.679-15.383
			c-0.881-1.691-1.605-3.462-2.398-5.199c-0.049-0.105-0.079-0.221-0.074-0.358c0.051,0.093,0.104,0.182,0.155,0.275
			c2.177,4.148,4.623,8.129,7.447,11.872c4.017,5.324,8.66,10.004,14.177,13.784c5.139,3.521,10.732,6.03,16.766,7.561
			c4.375,1.109,8.822,1.669,13.33,1.791c3.293,0.088,6.575-0.041,9.847-0.424c9.276-1.083,17.827-4.122,25.487-9.531
			c5.272-3.723,9.723-8.277,13.557-13.452c2.823-3.813,5.242-7.872,7.36-12.113c0.03-0.058,0.061-0.113,0.093-0.169
			c0.027,0.007,0.051,0.016,0.076,0.023C423.986,298.259,423.729,298.946,423.447,299.622z"/>
		<path fill="#FFFFFF" d="M352.295,224.833c0.602-0.149,1.193-0.324,1.795-0.458c0.323-0.072,0.497-0.243,0.627-0.539
			c0.762-1.749,1.539-3.492,2.311-5.236c0.025-0.059,0.07-0.11,0.136-0.207c0.156,0.597,0.301,1.136,0.448,1.699
			c-0.205,0.058-0.367,0.118-0.537,0.146c-0.263,0.044-0.419,0.191-0.518,0.433c-0.188,0.45-0.393,0.894-0.584,1.343
			c-0.048,0.114-0.07,0.238-0.133,0.459c0.787-0.199,1.492-0.375,2.236-0.559c0.1,0.375,0.186,0.698,0.268,1.022
			c0.054,0.208,0.165,0.28,0.386,0.221c0.553-0.152,1.112-0.287,1.668-0.432c0.269-0.07,0.362-0.223,0.281-0.509
			c-0.671-2.379-1.333-4.759-2.001-7.139c-0.104-0.37-0.164-0.401-0.531-0.307c-0.462,0.119-0.918,0.255-1.383,0.357
			c-0.329,0.071-0.53,0.245-0.668,0.55c-0.58,1.283-1.18,2.56-1.771,3.838c-0.771,1.662-1.543,3.322-2.312,4.986
			c-0.044,0.1-0.037,0.224-0.054,0.336C352.072,224.837,352.189,224.859,352.295,224.833z"/>
		<path fill="#FFFFFF" d="M366.13,263.695c-0.226-2.042-1.652-3.228-3.367-2.907C362.419,262.128,364.429,263.862,366.13,263.695z"
			/>
	</g>
	<path fill="#FFFFFF" d="M273.265,413.009c0,0-211.921-24.92-220.511-6.858c-8.593,18.064,34.49,18.896,34.49,18.896
		L273.265,413.009z"/>
	<path fill="#FFFFFF" d="M267.143,342.55c0,0-211.859-25.305-220.493-7.257c-8.637,18.052,34.442,18.959,34.442,18.959
		L267.143,342.55z"/>
	<path fill="#FFFFFF" d="M307.182,460.962c0,0-211.859-25.306-220.494-7.255c-8.636,18.049,34.442,18.958,34.442,18.958
		L307.182,460.962z"/>
	<path fill="#FFFFFF" d="M282.229,290.749c0,0-237.499-49.445-249.817-32.515c-12.32,16.93,36.558,22.779,36.558,22.779
		L282.229,290.749z"/>
	<path fill="#FFFFFF" d="M259.983,233.545c0,0-206.936-46.62-217.974-29.571s31.617,22.322,31.617,22.322L259.983,233.545z"/>
	<path fill="#FFFFFF" d="M306.574,174.812c0,0-208.212-42.18-218.755-24.9c-10.545,17.279,32.249,21.639,32.249,21.639
		L306.574,174.812z"/>
</g>
</svg>
