<?xml version="1.0" encoding="utf-8"?>
<!-- Generator: Adobe Illustrator 16.0.3, SVG Export Plug-In . SVG Version: 6.00 Build 0)  -->
<!DOCTYPE svg PUBLIC "-//W3C//DTD SVG 1.1//EN" "http://www.w3.org/Graphics/SVG/1.1/DTD/svg11.dtd">
<svg version="1.1" id="Capa_1" xmlns="http://www.w3.org/2000/svg" xmlns:xlink="http://www.w3.org/1999/xlink" x="0px" y="0px"
	 width="792px" height="612px" viewBox="0 0 792 612" enable-background="new 0 0 792 612" xml:space="preserve">
<g>
	<path fill-rule="evenodd" clip-rule="evenodd" fill="#FFFFFF" d="M493.563,282.262c-1.791-0.625-3.306-1.122-4.796-1.681
		c-5.991-2.244-7.796-5.572-7.2-11.997c1.018-10.984,2.27-21.988,2.369-32.993c0.035-3.742-2.339-8.179-4.926-11.158
		c-13.831-15.926-6.359-39.605,14.351-43.597c4.314-0.832,9.283,0.005,13.611,1.25c42.316,12.173,84.56,24.596,126.826,36.945
		c8.039,2.35,16.078,4.702,24.123,7.03c18.812,5.442,25.57,27.824,12.36,42.271c-4.134,4.521-5.871,9.184-5.499,14.932
		c0.563,8.713,0.903,17.463,2.009,26.112c1.539,12.034,0.345,14.215-11.28,16.715c0,3.841,0,7.729,0,12.192
		c10.897,3.017,21.831,6.044,32.765,9.069c16.495,4.563,32.957,9.252,49.51,13.591c3.929,1.03,5.112,2.905,5.023,6.746
		c-0.216,9.276-0.258,18.565-0.009,27.839c0.122,4.56-1.277,6.294-6.08,6.292c-154.739-0.071-309.479,0.01-464.217-0.153
		c-5.365-0.004-10.819-1.947-16.078-3.507c-71.252-21.165-142.463-42.464-213.737-63.55c-4.592-1.358-6.342-3.334-6.146-8.159
		c0.36-8.908,0.263-17.848,0.015-26.765c-0.129-4.609,1.425-6.257,6.177-6.212c63.889,0.595,127.778,1.063,191.668,1.498
		c49.008,0.334,98.018,0.525,147.025,0.883c34.221,0.251,68.439,0.642,102.658,1.045c9.501,0.112,9.498,0.234,9.479-9.23
		C493.561,285.9,493.563,284.13,493.563,282.262z M42.396,300.292c0,8.123,0.2,15.572-0.083,23.002
		c-0.146,3.82,1.029,5.532,4.843,6.661c69.391,20.527,138.725,41.251,208.107,61.808c6.269,1.857,12.791,4.07,19.199,4.078
		c152.232,0.166,304.466,0.055,456.699-0.022c1.868-0.002,3.736-0.214,5.338-0.312c0-9.736,0-18.734,0-28.029
		c-2.604,0-4.729,0-6.851,0c-151.877,0.029-303.753,0.064-455.629,0.054c-2.817,0-5.766-0.103-8.434-0.893
		c-65.46-19.412-130.889-38.926-196.324-58.414C60.581,305.639,51.888,303.094,42.396,300.292z M490.718,228.22
		c-0.926,12.679-1.514,24.899-2.808,37.044c-0.929,8.711-1.359,8.704,6.95,11.135c41.395,12.109,82.794,24.205,124.197,36.283
		c4.701,1.371,9.444,2.604,15.256,4.201c0.922-11.654,1.904-22.445,2.58-33.255c0.367-5.883-1.463-10.803-5.734-15.441
		c-10.677-11.589-8.633-28.463,3.964-37.997c1.283-0.971,2.597-1.902,4.614-3.377c-8.181-2.386-15.193-4.43-22.204-6.476
		c-38.14-11.124-76.237-22.395-114.44-33.298c-15.28-4.361-28.872,9.622-24.753,24.925c1.24,4.607,3.698,7.676,8.663,9.079
		c13.033,3.682,25.972,7.712,38.858,11.881c1.749,0.566,2.983,2.724,4.456,4.145c-1.96,0.427-4.104,1.588-5.848,1.152
		c-6.561-1.639-12.989-3.811-19.474-5.76C499.96,230.946,494.914,229.465,490.718,228.22z M646.279,353.898
		c0-8.141-0.135-15.396,0.063-22.643c0.087-3.163-0.833-4.631-4.072-5.563c-46.706-13.447-93.365-27.057-140.043-40.603
		c-0.748-0.218-1.584-0.138-2.829-0.23c0,9.991,0.145,19.577-0.077,29.153c-0.081,3.474,1.034,4.838,4.453,5.771
		c39.682,10.837,79.249,22.102,119.008,32.638C629.965,354.324,637.886,353.448,646.279,353.898z M656.115,344.523
		c-0.418,0.619-0.835,1.237-1.251,1.855c1.267,0.912,2.409,2.209,3.824,2.664c4.919,1.58,9.979,2.724,14.873,4.369
		c1.186,0.398,1.939,2.08,2.893,3.172c-1.189,0.842-2.288,1.896-3.598,2.452c-0.909,0.386-2.111,0.089-3.182,0.089
		c-125.292,0.001-250.585,0.017-375.877-0.071c-4.034-0.005-8.186-0.646-12.082-1.714c-41.948-11.498-83.854-23.144-125.774-34.744
		c-14.257-3.947-28.544-7.792-42.746-11.934c-1.819-0.529-3.197-2.578-4.781-3.924c1.949-0.809,3.886-1.652,5.858-2.397
		c0.469-0.177,1.061-0.019,1.597-0.019c124.623,0.034,249.246,0.07,373.87,0.07c1.02,0,2.039-0.469,3.059-0.721
		c-0.05-0.42-0.1-0.84-0.148-1.262c-142.98-0.992-285.962-1.984-428.94-2.977c1.003,1.155,2.196,1.746,3.455,2.122
		c64.906,19.377,129.811,38.76,194.745,58.045c3.884,1.152,8.008,2.125,12.021,2.125c144.745,0.028,289.492-0.069,434.238-0.162
		c1.616-0.001,3.233-0.185,4.849-0.283c0.014-0.368,0.028-0.736,0.042-1.104C694.077,354.959,675.097,349.74,656.115,344.523z
		 M493.256,310.35c-119.059,0-237.823,0-356.588,0c8.969,3.387,17.997,6.071,27.132,8.322c2.872,0.707,6.03,0.319,9.058,0.321
		c35.681,0.022,71.361,0,107.041,0.036c31.2,0.031,62.402,0.145,93.603,0.18c29.415,0.033,58.83,0.015,88.245,0.019
		c10.451,0,20.9,0,31.51,0C493.256,315.806,493.256,313.21,493.256,310.35z M655.293,319.188c5.532,1.026,6.81-1.263,6.296-5.855
		c-1.067-9.549-2.149-19.109-2.689-28.694c-0.431-7.645,1.44-14.45,7.226-20.412c7.919-8.159,6.833-20.292-1.513-28.104
		c-7.743-7.248-20.521-7.068-28.136,0.397c-8.011,7.856-8.614,20.114-0.669,28.241c5.05,5.166,7.148,11.038,6.744,17.852
		c-0.621,10.469-1.628,20.918-2.585,31.364c-0.417,4.557,1.331,6.266,6.332,5.086c0-3.609,0.007-7.145-0.002-10.682
		c-0.009-3.324,1.909-4.184,4.876-4.101c2.909,0.08,4.209,1.354,4.14,4.268C655.229,312.073,655.293,315.604,655.293,319.188z"/>
	<path fill-rule="evenodd" clip-rule="evenodd" fill="#FFFFFF" d="M364.592,248.412c-0.318,2.471-0.419,4.993-0.988,7.404
		c-4.048,17.114-18.631,27.675-33.951,24.69c-15.076-2.937-27.366-20.684-23.922-36.694c1.908-8.872,5.996-17.473,10.271-25.58
		c4.381-8.307,10.177-15.87,15.377-23.742c1.956-2.96,4.435-4.134,6.615-0.538c8.013,13.218,16.103,26.406,23.521,39.958
		c2.293,4.189,2.535,9.501,3.717,14.299C365.018,248.277,364.805,248.344,364.592,248.412z"/>
	<path fill-rule="evenodd" clip-rule="evenodd" fill="#FFFFFF" d="M615.274,265.023c-7.354-2.135-13.855-4.004-20.346-5.91
		c-14.699-4.315-29.421-8.557-44.049-13.096c-1.765-0.547-3.017-2.743-4.506-4.175c2.028-0.409,4.279-1.608,6.051-1.108
		c20.738,5.855,41.422,11.905,62.053,18.127c1.557,0.469,2.597,2.647,3.876,4.031C617.175,263.708,615.996,264.524,615.274,265.023z
		"/>
</g>
</svg>
